<?xml version="1.0" encoding="utf-8"?>
<!-- Generator: Adobe Illustrator 18.1.1, SVG Export Plug-In . SVG Version: 6.00 Build 0)  -->
<svg version="1.1" id="Layer_1" xmlns="http://www.w3.org/2000/svg" xmlns:xlink="http://www.w3.org/1999/xlink" x="0px" y="0px"
	 viewBox="0 0 70.5 64.7" enable-background="new 0 0 70.5 64.7" xml:space="preserve">
<g>
	<path fill="#010101" d="M61.7,35.4l-1.2,0c-0.2,0-0.4,0.1-0.5,0.3c0,0.1-0.1,0.1-0.1,0.2C58.3,48,47.7,57.1,35.4,57.1
		c-6.6,0-12.9-2.6-17.6-7.3c-4.7-4.7-7.3-10.9-7.3-17.5c0-13.7,11.2-24.8,24.9-24.8c12.3,0,22.9,9.2,24.6,21.3l0,0
		c0,0.3,0.2,0.5,0.5,0.5l0,0l0,0v0l1.2,0v0l0,0l0,0c0.3,0,0.5-0.3,0.5-0.5c0,0,0,0,0,0c0,0,0,0,0-0.1c-0.8-5.9-3.4-11.3-7.7-15.5
		c-5.1-5.1-11.9-7.9-19.2-7.9s-14.1,2.8-19.2,7.9c-5.1,5.1-7.9,11.9-7.9,19.1s2.8,14,7.9,19.1s11.9,7.9,19.2,7.9
		c7.2,0,14.1-2.8,19.2-7.9c4.3-4.3,6.9-9.6,7.7-15.5c0,0,0,0,0-0.1l0,0C62.3,35.6,62,35.4,61.7,35.4z"/>
	<path fill="#010101" d="M47.4,48.5h2.6L42,16l0.1-0.1h3.4V14c0-0.2-0.2-0.4-0.4-0.4H25.4c-0.2,0-0.4,0.2-0.4,0.4v1.9h3.4l0.1,0.1
		l-8.1,32.6h2.6l4.6-18.4l0.2,0v18.4h7.4c5.3,0,9.6-4.3,9.6-9.6c0-0.3,0-0.5,0-0.8l0.1,0L47.4,48.5z M31,16.6c0.1-0.4,0.6-0.7,1-0.7
		h6.5c0.4,0,0.8,0.3,1,0.7l1.2,4.8l-0.1,0.1H29.9l-0.1-0.1L31,16.6z M35.1,46.1L35.1,46.1l-4.2,0c-0.3,0-0.5-0.2-0.6-0.5V32.4
		c0-0.3,0.2-0.5,0.5-0.5l0,0l4.3,0c3.9,0,7.2,3.2,7.2,7.1S39.1,46.1,35.1,46.1z M44,35.3c-1.5-3.5-5-5.8-8.8-5.8h-7.2l-0.1-0.1
		l1.1-4.6c0.1-0.4,0.6-0.7,1-0.7l10.5,0c0.4,0,0.8,0.3,1,0.7l2.6,10.5L44,35.3z"/>
</g>
</svg>
