<?xml version="1.0" encoding="utf-8"?>
<!-- Generator: Adobe Illustrator 18.1.1, SVG Export Plug-In . SVG Version: 6.00 Build 0)  -->
<svg version="1.1" id="Layer_1" xmlns="http://www.w3.org/2000/svg" xmlns:xlink="http://www.w3.org/1999/xlink" x="0px" y="0px"
	 viewBox="0 0 612 792" enable-background="new 0 0 612 792" xml:space="preserve">
<g>
	<path fill="#EF4236" d="M459.3,467c-2.8-1.7-5.9-3-9-4.3c-3.7-1.6-7.5-2.8-11.1-4.4c-2.4-1.1-4.9-2.7-4.5-5.9
		c0.3-3,2.8-4.4,5.4-5.3c6.7-2.3,13.2-0.7,19.3,2c2.3,1,3.8,1.1,5.3-1.3c3.9-6,8-11.9,12.4-18.4c-13.9-6-27.9-7.4-42.3-4.6
		c-10.2,2-19.3,6.1-26.2,14.2c-12.4,14.6-8.7,31.3,8.7,39.1c3.9,1.8,8.1,3,12,4.8c3.5,1.5,8.3,2.4,7.6,7.7c-0.7,5.3-5.3,6.4-9.6,7.2
		c-1.6,0.3-3.3,0.1-4.9-0.2c-6.5-1-12.6-3.3-17.9-7.1c-2.5-1.8-3.7-1.6-5.3,1c-3.4,5.5-7,11-10.9,16.1c-2.8,3.6-1.4,5,1.9,6.8
		c14.1,7.6,29,9.8,44.5,6.5c15-3.2,27.3-10.4,33.7-25.3C473.5,483.6,470.4,473.7,459.3,467z"/>
	<path fill="#EF4236" d="M174.3,470.1c-1.5,0-2.7,0.2-3.8,1.7c-11.4,16.6-22.9,33.1-34.9,50.4c12.5,0,24-0.1,35.5,0.1
		c3.1,0.1,4.8-1,6.5-3.4c10.2-15,20.6-29.8,30.9-44.8c0.8-1.1,2.2-2.1,1.8-4C198.3,470.1,186.3,470.1,174.3,470.1z"/>
	<path fill="#EF4136" d="M386.4,426.1c-6.3,0-13.7-1.9-18.7,0.7c-5.1,2.7-8,9.9-11.7,15.1c-3.5,4.9-6.9,9.8-11.1,15.7
		c0-10.3-0.1-19.1,0.1-27.9c0.1-2.9-0.8-3.7-3.6-3.6c-7.5,0.2-15-0.2-22.5,0.2c-4.7,0.3-5.7-1.2-5.7-5.7c0.2-48.7,0.1-97.3,0.1-146
		c0-1.7,0.5-3.5-0.8-5.4c-44.2,63-88.1,125.6-132.6,189.1c33.2,0,65.4,0.1,97.6-0.1c3.8,0,4.6,1,4.6,4.7c-0.2,18.3,0,36.7-0.2,55
		c0,3.1,0.5,4.4,4,4.3c7.7-0.3,15.3-0.3,23,0c3.5,0.1,4.5-1,4.5-4.5c-0.2-17.5-0.1-35-0.1-52.5c0-8-0.8-6.7,7-6.8c19-0.1,38,0,57,0
		c1.7,0,3.8,0.7,5.1-1.1c6.9-10.1,13.9-20.2,21.4-31.1C397.3,426.1,391.9,426.1,386.4,426.1z M281.9,374.2
		c-0.1,16-0.3,31.9-0.3,47.9c0,3.2-0.7,4.3-4.1,4.2c-11.5-0.2-22.9-0.1-35.5-0.1c13.4-19.2,26.2-37.7,39.2-56.4
		C282.4,371.4,281.9,372.9,281.9,374.2z"/>
</g>
</svg>
