<?xml version="1.0" encoding="utf-8"?>
<!-- Generator: Adobe Illustrator 18.1.1, SVG Export Plug-In . SVG Version: 6.00 Build 0)  -->
<svg version="1.1" id="Layer_1" xmlns="http://www.w3.org/2000/svg" xmlns:xlink="http://www.w3.org/1999/xlink" x="0px" y="0px"
	 width="139.5px" height="980px" viewBox="225 0 139.5 980" enable-background="new 225 0 139.5 980" xml:space="preserve">
<g>
	<g>
		<path fill="#171617" d="M252.7,317.5v3.6C281,319.5,259.9,318.5,252.7,317.5z M252.7,323.5v3.6l0.2,0.1
			C274.4,325.2,268.3,324.4,252.7,323.5z M252.7,303.5c17.8-0.6,17.9-1.6,8.6-2.8l1.6-2c11.3,1.7,10.7,4.6,2.5,6
			c2.8,0.9,12.4,2.8,0.7,6.3c1.9,0.5,12.7,3.2-0.7,5.5c2.1,0.9,13.4,2.3,0.5,5.8c3.4,0.6,11.9,2.4,0.6,6c4.3,0.5,4.7,0.6,5.9,2.6
			v7.5h5.1v-46.8h-24.9L252.7,303.5L252.7,303.5z M252.7,311.9v3.6C258,314.5,282.4,314.1,252.7,311.9z M252.7,305.6v3.9
			C269.3,308.6,274.9,307.5,252.7,305.6z M284.1,311.7h0.7v-7.9h3v-0.6h-6.6v0.6h3v7.9H284.1z M290,307.7h5.5v4h0.7v-8.6h-0.7v3.9
			H290v-3.9h-0.7v8.6h0.7V307.7z M304.6,311.1h-5.5v-3.4h4.9v-0.6h-4.9v-3.4h5.5v-0.6h-6.1v8.6h6.2v-0.6H304.6z M287,325.1l1.9-5.3
			l1.9,5.3h2.3l3.2-9.4h-2.8l-1.6,5.5l-1.8-5.5h-2.3l-1.8,5.5l-1.6-5.5h-2.9l3.2,9.4H287L287,325.1z M296.3,320.3
			c0,3,2.2,5.1,5.3,5.1c1.9,0,3.2-0.8,4.2-2l-1.9-1.5c-0.7,0.7-1.3,0.9-2.2,0.9c-1.1,0-1.8-0.6-2.1-1.6h6.5c0-0.2,0-0.5,0-0.7
			c0-2.8-1.5-5.3-4.9-5.3C298.3,315,296.3,317.3,296.3,320.3L296.3,320.3z M301.3,317.7c0.9,0,1.6,0.7,1.7,1.8h-3.4
			C299.8,318.3,300.4,317.7,301.3,317.7z M316.5,322.4L316.5,322.4c0-1.3-0.8-2-1.9-2.4c0.9-0.4,1.5-1.1,1.5-2.1l0,0
			c0-0.7-0.2-1.1-0.6-1.5c-0.6-0.6-1.5-0.9-2.6-0.9H308v9.4h4.9C315.1,325.1,316.5,324.1,316.5,322.4z M310.6,317.7h1.7
			c0.8,0,1.1,0.3,1.1,0.9l0,0c0,0.6-0.5,0.9-1.3,0.9h-1.6L310.6,317.7L310.6,317.7z M310.6,322.9v-1.7h2c0.9,0,1.3,0.4,1.3,0.9l0,0
			c0,0.6-0.5,0.9-1.3,0.9h-2V322.9z M327,322.4L327,322.4c0-1.3-0.8-2-1.9-2.4c0.9-0.4,1.5-1.1,1.5-2.1l0,0c0-0.7-0.2-1.1-0.6-1.5
			c-0.6-0.6-1.5-0.9-2.6-0.9h-4.9v9.4h4.9C325.7,325.1,327,324.1,327,322.4z M321.1,317.7h1.7c0.8,0,1.1,0.3,1.1,0.9l0,0
			c0,0.6-0.5,0.9-1.3,0.9H321L321.1,317.7L321.1,317.7z M321.1,322.9v-1.7h2c0.9,0,1.3,0.4,1.3,0.9l0,0c0,0.6-0.5,0.9-1.3,0.9h-2
			V322.9z M330.6,325.1h2.7v-3.6l3.6-5.9h-3l-2,3.4l-1.9-3.4h-3l3.6,5.9L330.6,325.1L330.6,325.1z M286,328.8l-3.9,8.5h0.7l1.1-2.4
			h4.9l1.1,2.4h0.7l-3.9-8.5H286L286,328.8z M284.1,334.5l2.2-4.9l2.2,4.9H284.1z M299.4,336.5l-2.5-7.5h-0.5l-2.5,7.5l-2.7-7.5
			h-0.7l3,8.5h0.5l2.5-7.4l2.5,7.4h0.5l3-8.5h-0.7L299.4,336.5z M306.8,329l-3.9,8.5h0.7l1.1-2.4h4.9l1.1,2.4h0.7l-3.9-8.5
			C307.4,329,306.8,329,306.8,329z M304.8,334.5l2.2-4.9l2.2,4.9H304.8z M319.5,331.4L319.5,331.4c0-0.7-0.3-1.3-0.7-1.6
			c-0.5-0.5-1.3-0.9-2.4-0.9h-3.6v8.5h0.7v-3.6h2.8l2.7,3.6h0.8l-2.8-3.6C318.4,333.6,319.5,332.8,319.5,331.4z M313.4,333.3v-3.8
			h2.8c1.5,0,2.5,0.7,2.5,1.8l0,0c0,1.3-1.1,1.9-2.5,1.9L313.4,333.3L313.4,333.3z M324.2,329h-2.8v8.5h2.8c2.7,0,4.5-1.8,4.5-4.2
			l0,0C328.7,330.7,326.8,329,324.2,329z M328,333.2c0,2-1.5,3.6-3.8,3.6H322v-7.4h2.2C326.5,329.5,328,331.1,328,333.2L328,333.2z
			 M333.2,332.8c-2-0.4-2.5-0.9-2.5-1.8l0,0c0-0.9,0.9-1.6,2.1-1.6c0.9,0,1.7,0.3,2.6,0.9l0.4-0.5c-0.9-0.7-1.7-1.1-2.8-1.1
			c-1.5,0-2.8,0.9-2.8,2.2l0,0c0,1.3,0.9,2,2.8,2.4c1.9,0.4,2.4,0.9,2.4,1.8l0,0c0,0.9-0.9,1.7-2.1,1.7c-1.3,0-2.1-0.4-3-1.3
			l-0.4,0.5c1.1,0.9,2.1,1.3,3.4,1.3c1.6,0,2.8-0.9,2.8-2.3l0,0C336.1,334,335.2,333.2,333.2,332.8z"/>
	</g>
</g>
<path d="M294.8,851.5c-11.7,0-21.5,8.6-23.2,19.9c3.2,3.4,6.2,6.9,9.4,10.3c0.7-4.4,1.4-8.6,2.1-13c2.8,3,5.6,6.1,8.4,9.1
	c0.2-1.1,0.4-2.2,0.5-3.2c0.2-1.3,0.4-2.6,0.6-3.9c0-0.2,0.1-0.3,0.3-0.3c1.5-0.5,3.1-1.1,4.6-1.6h0.1c-0.9,6.7-1.8,13.4-2.8,20.2
	c-3-3.4-5.9-6.7-8.8-10.1c-0.8,4.4-1.6,8.6-2.4,12.9c-0.7-0.8-1.3-1.5-2-2.2c-3.4-3.8-6.7-7.6-10.2-11.4
	c1.5,11.5,11.3,20.3,23.3,20.3c13,0,23.5-10.5,23.5-23.5S307.6,851.5,294.8,851.5z M311,875.8c-0.9,2.1-2.5,3.4-4.6,4.1
	c-2.6,0.9-4.9,0.3-6.9-1.5c-0.7-0.7-1.3-1.4-1.8-2.2c-0.1-0.2-0.1-0.3,0.1-0.4c1.2-0.5,2.4-0.9,3.6-1.3c0.3-0.1,0.4,0,0.5,0.2
	c0.7,1.1,1.8,1.4,3,1.2c1.1-0.1,2-0.8,2.4-1.9c0.7-1.8-0.6-3.6-2.6-3.6c-0.6,0-1.2,0.1-1.8,0.3c-1.3,0.5-2.4,0.9-3.7,1.5
	c0.3-2,0.5-3.8,0.8-5.8c-2.3,0.9-4.6,1.6-7,2.5c0.2-1.2,0.4-2.3,0.5-3.4c0.1-0.5,0.1-0.9,0.2-1.4c0-0.2,0.1-0.3,0.3-0.3
	c3.8-1.1,7.6-2.2,11.5-3.3c0,0,0,0,0.1,0c-0.3,1.7-0.7,3.4-1,5.1c-0.1,0.3-0.1,0.5,0.3,0.5c3.3-0.2,5.6,1.6,6.3,4.9
	C311.6,872.5,311.8,874.2,311,875.8z"/>
<g>
	<g>
		<path fill="#010101" d="M295,784.1l-5.7,43.9h8.6l0.7-6.9h5.4l0.7,6.9h8.6l-5.7-43.9L295,784.1L295,784.1z M299.4,813.5l1.9-18.9
			l2,18.9H299.4z M280.2,784.1h-12.6V828h8.6v-11.5h4c5.4,0,8-2.6,8-8v-16.2C288.3,786.7,285.7,784.1,280.2,784.1z M279.7,807.5
			c0,1.1-0.5,1.6-1.6,1.6h-1.8v-17.6h1.8c1,0,1.6,0.5,1.6,1.6V807.5z M316.6,781.7c-2.8,0-5.2,2.3-5.2,5.2c0,2.9,2.3,5.2,5.2,5.2
			c2.8,0,5.2-2.3,5.2-5.2C321.9,784.1,319.6,781.7,316.6,781.7z"/>
	</g>
</g>
<g>
	<path d="M268.6,746.3c0.2,0,0.4,0.1,0.5,0.3c0.1,0.2-0.1,0.3-0.3,0.5c-0.7,0.6-1.1,1.3-1.3,2.1c0,0.1-0.1,0.3-0.2,0.4
		c-0.7,0.7-1,1.6-1.7,2.3c-1.1,1-1.6,2.3-2.4,3.5c-0.3,0.5-0.7,1.1-1,1.6c-0.2,0.3-0.4,0.6-0.8,0.4c-0.3-0.1-0.5-0.7-0.3-1.1
		c0.1-0.3,0.4-0.5,0.6-0.8c1.1-1.1,1.9-2.2,2-3.8c0-0.3,0.2-0.7,0.5-0.9c0.3-0.3,0.6-0.6,0.9-0.9c0.6-0.5,0.9-1.2,1-2
		c0-0.4,0.1-0.8,0.1-1.1c0.1-0.5,0.3-1.1,0.7-1.5c0.5-0.5,0.8-1,1.1-1.6c1.1-2.6,2.4-5.1,4.2-7.5c0.5-0.7,1.1-1.3,1.8-1.7
		c0.5-0.3,1.1-0.5,1.6-0.3c1.5,0.3,2.9,0.5,4.4,0.8c0.6,0.1,1-0.1,1-0.7c0.1-0.7-0.1-1.5-0.4-2.2c-0.1-0.3-0.3-0.5-0.7-0.7
		c-0.3-0.1-0.6-0.3-0.5-0.7c0-0.3,0.3-0.7,0.7-0.7c0.5-0.1,0.9-0.5,1.3-0.7c0.5-0.1,0.5,0,0.4,0.4c0,0.1,0,0.1,0,0.2
		c-0.3,1.3,0.5,2.2,1.5,2.9c0.7,0.5,1.3,1,1.7,1.6c0.6,0.8,1.3,1.6,2.1,2.1c0.3,0.1,0.5,0.4,0.5,0.7c0.2,0.9,0.3,1.8,0.1,2.8
		c-0.1,0.9-0.3,1.8,0.2,2.6c0,0.1,0.1,0.1,0.1,0.1c0.3,2.2,0.3,4.5-0.9,6.5c-0.2,0.3-0.4,0.7-0.6,1.1c-0.1,0.2-0.2,0.4-0.1,0.7
		c0.1,0.4-0.1,0.7-0.2,1.1c0,0.1-0.1,0.1-0.3,0.1c-0.7,0.1-1-0.2-1-0.9c-0.3,0-0.3,0.3-0.6,0.3c-0.1,0-0.3,0-0.4-0.1
		c-0.1-0.1,0-0.2,0.1-0.3c0.1-0.1,0.1-0.1,0.1-0.2c0.3-0.3,0.3-0.4-0.1-0.5c-0.3,0-0.3-0.2-0.1-0.4c0.2-0.3,0.5-0.5,0.8-0.7
		c0.1-0.1,0.3-0.2,0.2-0.3c-0.1-0.2-0.2-0.1-0.3-0.1c-0.2-0.1-0.5-0.1-0.5-0.3c-0.1-0.2,0.1-0.4,0.3-0.5c0.2-0.2,0.5-0.4,0.7-0.6
		c0.2-0.3,0.3-0.6,0.1-0.9c-0.3-0.5-0.5-1-0.9-1.4c-0.1-0.1-0.2-0.3-0.4-0.3s-0.3-0.2-0.2-0.4c0-0.2,0.2-0.2,0.3-0.3
		c0.1,0,0.3-0.1,0.5-0.1c0-0.2-0.2-0.2-0.3-0.2c-0.5-0.2-0.5-0.6-0.2-1c0.2-0.2,0.3-0.3,0.5-0.5c0.1-0.2,0-0.3-0.1-0.5
		s-0.2,0-0.3,0.1c-0.1,0-0.1,0.1-0.1,0.1c-0.5,0.5-0.6,0.5-0.7-0.2c-0.1-0.3-0.3-0.2-0.4-0.1c-0.1,0.1-0.1,0.2-0.2,0.3
		c-0.1,0.1-0.3,0.3-0.4,0.2c-0.1-0.1-0.1-0.2-0.1-0.4c0-0.1,0.1-0.3,0.1-0.4c0-0.1,0-0.3,0-0.3c-0.2,0-0.2,0.1-0.3,0.2
		c-0.5,0.7-1.3,0.9-2,0.4c-0.4-0.3-0.4-0.7-0.6-1.1c-0.1-0.1,0.1-0.3,0.2-0.3c0.2-0.1,0.3-0.3,0.5-0.4c-0.1-0.1-0.3-0.1-0.5-0.1
		c-0.4,0-0.7-0.5-0.4-0.8c0.1-0.2,0.1-0.3-0.1-0.3c-0.7,0-1.3-0.3-1.8-0.7c-0.3-0.2-0.5-0.1-0.7,0.2c-0.3,0.5-0.8,0.8-1.3,0.6
		c-0.5-0.1-1-0.1-1.5,0.1s-1.1,0.3-1.5,0.7c-0.1,0.1-0.3,0.2-0.3,0.3c0,0.3-0.1,0.5-0.2,0.6c-0.4,0.5-0.6,1.1-0.9,1.6
		c-0.1,0.3-0.3,0.4-0.5,0.5c-0.4,0.2-0.7,0.5-0.9,0.9c-0.2,0.3-0.3,0.5,0,0.8s-0.1,0.4-0.2,0.5C269,745.3,268.7,745.7,268.6,746.3z"
		/>
	<path d="M291.4,741.6c0-2.7,0-5.3,0-8c0-0.6,0-0.6,0.6-0.6c1.3,0,2.6,0,3.9,0c0.4,0,0.5,0.1,0.5,0.5c0,3.8,0,7.7,0,11.5
		c0,0.7,0,0.7,0.7,0.7c1.8,0,3.8,0,5.6,0c0.5,0,0.6,0.1,0.5,0.6c0,1.2,0,2.3,0,3.5c0,0.4-0.1,0.5-0.5,0.5c-3.6,0-7.3,0-10.9,0
		c-0.4,0-0.5-0.2-0.5-0.5C291.4,747,291.4,744.3,291.4,741.6z"/>
	<path d="M310,741.7c0,2.7,0,5.3,0,8c0,0.6,0,0.6-0.6,0.6c-1.3,0-2.6,0-4,0c-0.4,0-0.5-0.1-0.5-0.5c0-5.4,0-10.8-0.1-16.2
		c0-0.3,0.1-0.5,0.5-0.5c1.4,0,2.8,0,4.2,0c0.4,0,0.5,0.1,0.5,0.5C309.9,736.2,310,739,310,741.7z"/>
	<path d="M272.2,749.4c-0.3,0.1-0.3,0.3-0.4,0.5c-1.3,2.3-2.6,4.6-4,6.9c-0.1,0.2-0.2,0.4-0.5,0.4c-0.6-0.1-0.7-0.1-0.3-0.7
		c1.5-2.5,2.9-5,4.4-7.5c0.1-0.1,0.2-0.3,0.2-0.5c-0.5,0.3-0.9,0.8-1.3,1.2c-1.7,2.2-3,4.6-4.2,7c-0.1,0.1-0.1,0.5-0.3,0.4
		c-0.3-0.1-0.3-0.4-0.2-0.7c1-2.1,2.1-4.2,3.4-6.1c1.9-2.8,4.1-5.3,6.5-7.8c0.1-0.1,0.2-0.3,0.4-0.3c0.1,0.3,0.1,0.6,0.3,0.8
		c0.1,0.1,0.1,0.3,0,0.4c-1.9,2.4-3.1,5.2-4.3,7.9c-0.8,1.8-1.5,3.6-2.2,5.5c0,0.1,0,0.1-0.1,0.1c-0.1,0.2-0.3,0.3-0.5,0.2
		c-0.3-0.1-0.1-0.3-0.1-0.4c0.5-1.1,1-2.2,1.5-3.4s1-2.4,1.5-3.6C272.1,749.8,272.1,749.6,272.2,749.4z"/>
	<path d="M276.6,721.8c0.3,0.1,0.7,0.1,1.1,0.1c0.6,0.1,1.2,0.3,1.5,0.9c0.2,0.5,0.6,0.7,1.1,0.6c0.1,0,0.3,0,0.4,0
		c0.9,0,0.9,0,1.1,0.9c0,0.2,0.1,0.3,0.3,0.5c0.5,0.5,0.9,1,1.3,1.5c0.3,0.3,0.3,0.5,0.1,0.9c-0.1,0.3-0.4,0.3-0.7,0.3
		c-1.3-0.1-2.5-0.2-3.7-0.3c-0.4,0-0.7-0.2-0.7-0.7c0-0.1,0-0.1,0-0.1c-0.5-0.3-0.3-0.6-0.1-0.9c0.1-0.1,0.1-0.3-0.1-0.3
		c-0.3-0.1-0.4-0.4-0.6-0.7s-0.4-0.3-0.5,0s-0.3,0.3-0.5,0.1c-0.5-0.5-0.5-0.4-0.9,0.1c-0.2,0.3-0.7,0.3-1.1-0.2
		c-0.3-0.4-0.8-0.4-1.1,0.1c-0.1,0.1-0.2,0.2-0.3,0.3c-0.4,0.1-0.7,0.3-1.1,0.5c-0.1,0.1-0.3,0.2-0.4,0c-0.1-0.1-0.1-0.3,0-0.4
		c0.9-1.6,2.2-2.6,4-3C276,721.8,276.3,721.8,276.6,721.8z"/>
	<path d="M293.8,757.5c-0.1,0.1-0.3,0.1-0.4,0.1c-2,0-4,0-6,0c-0.5,0-1-0.1-1.5-0.3c-0.4-0.1-0.8-0.3-1.2-0.3c-0.1,0-0.3,0-0.3-0.2
		c-0.1-0.5-0.6-0.7-1.1-0.8c-0.4-0.1-0.9-0.2-0.5-0.9c0.1-0.1,0-0.2-0.1-0.2c-0.1-0.1-0.3-0.1-0.4-0.1c-0.2-0.1-0.5-0.1-0.5-0.3
		c0-0.4-0.2-0.9,0.5-1.1c0.3-0.1,0.7-0.3,1.1-0.2c2.4,0.1,4.7,0.8,6.8,1.8C291.5,756,292.6,756.7,293.8,757.5z"/>
	<path d="M286.5,723.7c0.1-0.1,0.3-0.2,0.4-0.3c0.1-0.1,0.3-0.2,0.1-0.5c-0.2-0.2,0.1-0.3,0.2-0.4c0.4-0.1,0.8-0.3,1.1-0.4
		c0.6-0.2,0.7-0.6,0.3-1.1c-0.2-0.2-0.1-0.3,0.1-0.5c0.5-0.4,1.1-0.7,1.5-1.2c0.5-0.6,0.9-1.1,1.1-1.8c0.3-0.6,0.6-1.2,1.3-1.5
		c0.3-0.1,0.5-0.3,0.7-0.5c0.1-0.1,0.3-0.3,0.5-0.2c0.2,0.1,0.2,0.3,0.2,0.5c0,3.2-1.5,5.5-4.2,6.9
		C288.8,723.3,287.7,723.5,286.5,723.7z"/>
	<path d="M285.7,725.4c0.7-0.4,1.4-0.5,2.1-0.7s1.3-0.4,1.9-0.6c0.2-0.1,0.4-0.2,0.5-0.3c0.9-1.1,2.1-1.1,3.4-1.1
		c0.3,0,0.4,0.1,0.5,0.4c0.3,0.5,0.4,1.1,0.3,1.7c0,0.1,0,0.2-0.1,0.3c-0.6,0.5-1.1,1.1-1.6,1.5c-0.3,0.2-1.5,0.2-1.5,0
		c-0.1-0.7-0.6-0.3-0.9-0.3s-0.7-0.1-0.9-0.3c-0.5-0.3-1.1-0.5-1.7-0.3C287,725.8,286.4,725.6,285.7,725.4z"/>
	<path d="M290.4,734.2c0,0.8,0,0.8-0.7,0.9c-0.6,0.1-1.1,0.2-1.7,0.3c-0.2,0-0.4,0-0.5-0.2c-0.4-0.4-0.8-0.8-1.1-1.3
		c-0.2-0.5-0.4-0.9-0.8-1.2c-0.2-0.2-0.3-0.5-0.1-0.8c0.3-0.4,0-0.4-0.3-0.5c-0.6-0.1-1.2-0.3-1.5-0.9c-0.1-0.1-0.1-0.2-0.2-0.3
		c-0.1-0.2-0.1-0.4,0.1-0.6c0.1-0.2,0.3,0,0.5,0.1c0.5,0.2,1.1,0.3,1.6,0.3c0.4,0,0.7,0.2,1,0.4c0.7,0.3,1.4,0.7,1.8,1.4
		c0.3,0.4,0.6,0.6,1,0.8C290.3,732.9,290.3,733.5,290.4,734.2z"/>
	<path d="M290.7,731.6c-0.4,0-0.7-0.1-0.9-0.3c-0.6-0.4-1-1.1-1.3-1.7c-0.2-0.5-0.5-0.7-1-0.8c-0.8-0.2-1.6-0.4-2.4-0.6
		c-0.3-0.1-0.5-0.9-0.3-1.1c0.3-0.1,0.6,0,0.9,0.1c0.3,0.1,0.5,0.3,0.8,0.3c1-0.1,1.9,0.1,2.8,0.1c0.2,0,0.4,0,0.6,0.2
		c0.5,0.5,1.1,0.8,1.7,1c0.6,0.1,0.9,0.6,1,1.1c0.1,0.4-0.1,0.8-0.4,1C291.9,731.4,291.2,731.5,290.7,731.6z"/>
	<path d="M282.8,714.1c-0.2,2-0.2,4-0.6,5.9c-0.1,0.5-0.1,0.9-0.1,1.4c0,0.1,0,0.3-0.1,0.3s-0.2-0.1-0.3-0.2
		c-0.3-0.2-0.3-0.4-0.3-0.7c0-0.5-0.1-0.9-0.2-1.3c-0.1-0.4-0.1-0.9-0.1-1.3c0-0.5,0-1-0.2-1.4c-0.1-0.3,0.1-0.4,0.2-0.6
		s0.3-0.3,0.4-0.5c0.1-0.3,0.2-0.5-0.1-0.7c-0.3-0.1-0.6-1.2-0.4-1.5c0.3-0.3,0.2-0.6,0.1-0.9c-0.2-0.7,0-0.9,0.7-0.7
		c0.1,0,0.1,0,0.1,0c1,0.2,1,0.2,1,1.2C282.8,713.6,282.8,713.8,282.8,714.1z"/>
	<path d="M285.5,722.9c-0.1-1.2,0-2.3,0.4-3.5c0.6-1.6,1.6-3.1,2.1-4.8c0.2-0.6,0.3-1.3,0.5-1.8c0.1-0.4,0.3-0.5,0.6-0.4
		c0.4,0.1,0.8,0.1,1.2,0.1c0.3,0,0.3,0.1,0.2,0.4s-0.3,0.6-0.5,0.8c-0.9,1-1.3,2.1-1.6,3.4c-0.2,0.8-0.7,1.5-1,2.2
		c-0.1,0.1-0.2,0.2-0.3,0.3c-0.7,0.3-0.9,0.9-1.1,1.5C285.8,721.5,285.7,722.3,285.5,722.9z"/>
	<path d="M283.7,720.7c-0.1-0.7-0.3-1.5-0.4-2.2c0-0.2,0.1-0.4,0.1-0.6c0.1-0.3,0.2-0.6,0.1-0.9c-0.2-0.7,0-1.3,0.1-1.9
		c0-0.1,0.1-0.3,0.2-0.4c0.2-0.2,0.1-0.3,0.1-0.6c-0.1-0.5,0-1,0.1-1.5c0-0.2,0.4-0.2,0.6-0.2c0.6-0.1,0.7-0.1,0.7,0.5
		c0.1,1.1,0.1,2.1-0.3,3c-0.5,0.9-0.7,1.8-0.8,2.8C284.1,719.4,284,720,283.7,720.7z"/>
	<path d="M274.2,756c0-2.6,0.4-4.8,1.2-7.1c0.1-0.1,0.1-0.3,0.2-0.5c0.1-0.1,0.2-0.1,0.3-0.1c0.1,0.1,0.1,0.1,0.1,0.2
		c-0.7,1.7-0.6,3.5-0.7,5.2c-0.1,1.3,0,2.6-0.1,4c0,0.2,0.1,0.5-0.2,0.5c-0.3,0-0.7,0-0.7-0.5C274.3,757,274.2,756.4,274.2,756z"/>
	<path d="M293.6,713.2c-0.1,0.5-0.1,0.9-0.5,1.2c-0.4,0.3-0.5,0.9-0.9,1.2c-0.3,0.2-0.5,0.4-0.7,0.6c-0.4,0.3-0.7,0.2-1-0.1
		c-0.3-0.3-0.2-0.5,0-0.9c0.3-0.5,0.4-0.9,0.9-1.3c0.1-0.1,0.1-0.3,0.1-0.4c0.1-0.3,0.1-0.7,0.4-0.9c0.4-0.3,1.3-0.2,1.6,0.2
		C293.7,712.9,293.6,713,293.6,713.2z"/>
	<path d="M274.8,747.9c-0.3,0.8-0.5,1.5-0.7,2.2c-0.7,2.1-1.3,4.2-1.7,6.3c0,0.2-0.1,0.3-0.1,0.5c0,0.2-0.1,0.3-0.4,0.3
		c-0.7,0-0.7,0-0.5-0.7c0.7-2.4,1.3-4.7,2.2-7c0.2-0.5,0.5-1,0.7-1.5C274.4,748.1,274.5,747.9,274.8,747.9z"/>
	<path d="M284.5,721.6c-0.1-1.3,0.1-2.5,0.6-3.6c0.2-0.4,0.3-0.7,0.3-1.1c0-0.1,0-0.3,0.1-0.3c0.6-1.1,0.7-2.4,1-3.7
		c0.1-0.4,0.6-0.7,1-0.5c0.1,0.1,0.1,0.2,0.1,0.3c-0.1,0.6-0.1,1.1-0.5,1.6c-0.5,0.8-0.8,1.6-1,2.4s-0.5,1.6-0.7,2.5
		c-0.2,0.5-0.3,1.1-0.4,1.6C284.9,721,284.8,721.3,284.5,721.6z"/>
	<path d="M279.1,750.2c0,0.6,0.1,1.1-0.3,1.5c-0.1,0.1-0.1,0.1-0.1,0.2c-0.2,0.1-0.5,0.4-0.7,0.3c-0.2-0.1-0.1-0.4,0-0.6
		c0.3-0.9,0.1-1.8-0.4-2.6c-0.1-0.1-0.1-0.2-0.1-0.3c0-0.3-0.1-0.5-0.3-0.7c-0.5-0.5-0.4-0.9-0.1-1.3c0.1-0.2,0.3-0.3,0.5-0.3
		s0.3,0.2,0.4,0.4c0.3,0.6,0.5,1.3,0.4,1.9c0,0.1,0,0.2,0.1,0.3C279.1,749.2,279.1,749.8,279.1,750.2z"/>
	<path d="M272.2,745.2c0.5-0.9,1.1-1.7,1.7-2.5c0.3-0.4,0.7-0.8,1.1-1.1c0.1-0.1,0.3-0.3,0.4-0.1s0.1,0.4,0,0.5
		c-0.5,0.6-1.1,1.1-1.6,1.6C273.4,744.4,272.9,744.8,272.2,745.2z"/>
	<path d="M264.4,757c-0.1-0.1-0.4,0.1-0.5-0.2c-0.1-0.3,0.1-0.5,0.3-0.6c0.5-0.3,0.8-0.8,1.1-1.3c0.1-0.2,0.3-0.3,0.5-0.2
		c0.2,0.1,0.1,0.3,0,0.5c-0.4,0.5-0.5,1-0.8,1.5C264.7,757,264.7,757.1,264.4,757z"/>
	<path d="M277.9,732.8c0,0.2-0.1,0.3-0.3,0.4c-0.2,0.1-0.4,0.1-0.5-0.1c-0.2-0.3-0.4-0.7-0.6-1c-0.1-0.1-0.1-0.3,0-0.3
		s0.3-0.2,0.5-0.1C277.6,731.8,277.6,732.4,277.9,732.8z"/>
	<path d="M290.4,716.8c0,0.3-0.2,0.5-0.5,0.5c-0.4,0-0.2-0.4-0.3-0.6c-0.1-0.3,0.1-0.3,0.3-0.3C290.4,716.3,290.3,716.7,290.4,716.8
		z"/>
	<path d="M289.1,718.8c-0.1,0.3-0.2,0.6-0.6,0.7c-0.1,0-0.2,0-0.3-0.1c-0.1-0.1,0-0.2,0.1-0.3c0.1-0.2,0.3-0.4,0.4-0.6
		c0.1-0.1,0.1-0.3,0.3-0.1C289.1,718.5,289.1,718.6,289.1,718.8z"/>
	<path d="M274.8,728.3c0.5,0,0.9,0,1.5,0C275.8,728.8,275.2,728.8,274.8,728.3z"/>
	<path d="M328.3,749.8c-1.6-5.5-3.3-10.9-4.9-16.3c-0.1-0.3-0.3-0.5-0.6-0.5c-1.1,0-2,0-3.1,0s-2.2,0-3.2,0c-0.3,0-0.5,0.1-0.5,0.4
		c-0.1,0.6-0.3,1.1-0.5,1.6c-1.5,4.9-3,9.8-4.5,14.6c-0.1,0.3-0.1,0.5,0.3,0.5c1.5,0,3.1,0,4.6,0c0.3,0,0.5-0.1,0.5-0.4
		c0.2-0.7,0.4-1.3,0.6-2c0.1-0.3,0.2-0.4,0.5-0.4c1.5,0,3.1,0,4.6,0c0.3,0,0.4,0.1,0.5,0.4c0.2,0.7,0.4,1.3,0.6,2
		c0.1,0.3,0.3,0.5,0.6,0.5c1.5,0,2.8,0,4.3,0C328.4,750.2,328.5,750.2,328.3,749.8z M321,743.5c-0.9,0-1.6,0-2.5,0
		c-0.2,0-0.4,0-0.3-0.3c0.5-1.7,1-3.5,1.5-5.2c0.1,0,0.1,0,0.1,0c0.3,1.1,0.7,2.3,1,3.4c0.1,0.5,0.3,1.1,0.5,1.6
		C321.3,743.4,321.3,743.5,321,743.5z"/>
</g>
<g>
	<g>
		<path fill="#010101" d="M280.5,249.7h1c0.8,0,1.4-0.6,1.4-1.4v-5.7c0-0.8-0.6-1.4-1.4-1.4h-1c-0.8,0-1.4,0.7-1.4,1.4v5.7
			C279.2,249,279.8,249.7,280.5,249.7z M315.6,238.3v-16.2c0-0.3-0.3-0.6-0.6-0.6h-16.1c-0.3,0-0.7,0.1-1,0.4L280.8,239h0.7
			c2.2,0,3.6,1.4,3.6,3.4v5.7c0,2-1.5,3.4-3.6,3.4h-1c-2.2,0-3.6-1.4-3.6-3.4v-5.3l-7.8,8c-0.3,0.3-0.3,0.7-0.3,1v16.1
			c0,0.3,0.1,0.5,0.4,0.6h16.5c0.3-0.1,0.6-0.1,0.7-0.4l16.7-16.7h-4.9c-0.1,0-0.1-0.1-0.1-0.1v-11.8c0-0.1,0.1-0.1,0.1-0.1h6.8
			c0.1,0,0.1,0.1,0.1,0.1v1.6c0,0.1-0.1,0.1-0.1,0.1h-4.6c-0.1,0-0.1,0.1-0.1,0.1v2.6c0,0.1,0.1,0.1,0.1,0.1h3.8
			c0.1,0,0.1,0.1,0.1,0.1v1.6c0,0.1-0.1,0.1-0.1,0.1h-3.8c-0.1,0-0.1,0.1-0.1,0.1v2.8c0,0.1,0.1,0.1,0.1,0.1h4.6h0.1l10.1-10
			C315.4,239.1,315.6,238.7,315.6,238.3z M295.3,251.3c0,0.1-0.1,0.1-0.1,0.1h-1.6h-0.3l-4-7.8l0.1,7.7c0,0.1-0.1,0.1-0.1,0.1h-1.8
			c-0.1,0-0.1-0.1-0.1-0.1v-11.8c0-0.1,0.1-0.1,0.1-0.1h1.6l0.1,0.1l4,7.8l-0.1-7.8c0-0.1,0.1-0.1,0.1-0.1h1.8
			c0.1,0,0.1,0.1,0.1,0.1L295.3,251.3L295.3,251.3z M266.2,239.4h-2.6c-0.1,0-0.1,0-0.1,0.1v0.7c0,0.1,0,0.1,0.1,0.1h0.8
			c0.1,0,0.1,0,0.1,0.1v3.9c0,0.1,0,0.1,0.1,0.1h0.7c0.1,0,0.1,0,0.1-0.1v-3.9c0-0.1,0-0.1,0.1-0.1h0.8c0.1,0,0.1,0,0.1-0.1
			L266.2,239.4C266.3,239.4,266.3,239.4,266.2,239.4z M269.4,242.2v1.9c0,0.1,0,0.1,0.1,0.1h0.7c0.1,0,0.1,0,0.1-0.1v-4.7
			c0-0.1,0-0.1-0.1-0.1h-0.7c-0.1,0-0.1,0-0.1,0.1v1.8c0,0.1,0,0.1-0.1,0.1h-1.5c-0.1,0-0.1,0-0.1-0.1v-1.8c0-0.1,0-0.1-0.1-0.1
			h-0.7c-0.1,0-0.1,0-0.1,0.1v4.7c0,0.1,0,0.1,0.1,0.1h0.7c0.1,0,0.1,0,0.1-0.1v-1.8c0-0.1,0-0.1,0.1-0.1H269.4L269.4,242.2z
			 M273.9,244.3L273.9,244.3l0.1-0.7c0-0.1,0-0.1-0.1-0.1h-1.8c-0.1,0-0.1,0-0.1-0.1v-1.1c0-0.1,0-0.1,0.1-0.1h1.5
			c0.1,0,0.1,0,0.1-0.1v-0.7c0-0.1,0-0.1-0.1-0.1h-1.5c-0.1,0-0.1,0-0.1-0.1v-1.1c0-0.1,0-0.1,0.1-0.1h1.8c0.1,0,0.1,0,0.1-0.1v-0.7
			c0-0.1,0-0.1-0.1-0.1h-2.8c-0.1,0-0.1,0-0.1,0.1v4.7c0,0.1,0,0.1,0.1,0.1L273.9,244.3L273.9,244.3z M311.3,248.7
			c-0.6-0.3-0.9-0.3-0.9-0.7c0-0.3,0.3-0.6,0.6-0.6h0.1c0.3,0,0.4,0.1,0.5,0.4c0.1,0.1,0.1,0.1,0.1,0.1l0,0l0.7-0.3
			c0,0,0.1,0,0.1-0.1s-0.1-0.4-0.5-0.7c-0.3-0.1-0.5-0.3-0.9-0.3H311c-0.9,0-1.5,0.5-1.5,1.4c0,0.7,0.4,1.1,1.3,1.5
			c0.5,0.3,0.8,0.4,0.8,0.7c0,0.3-0.3,0.6-0.6,0.6h-0.3c-0.1,0-0.4-0.1-0.5-0.3c-0.1-0.1-0.1-0.3-0.1-0.3l0,0l-0.7,0.3h-0.6
			c0,0.1,0.7,0.4,0.9,0.7c0.3,0.3,0.6,0.3,1,0.3h0.3c0.9,0,1.5-0.6,1.5-1.4C312.5,249.5,312.1,249,311.3,248.7z M315.6,246.7
			C315.6,246.7,315.5,246.7,315.6,246.7l-0.1,1.9c0,0.1,0,0.1-0.1,0.1h-1.5c-0.1,0-0.1,0-0.1-0.1v-1.8c0-0.1,0-0.1-0.1-0.1H313
			c-0.1,0-0.1,0-0.1,0.1v4.7c0,0.1,0,0.1,0.1,0.1h0.7c0.1,0,0.1,0,0.1-0.1v-1.8c0-0.1,0-0.1,0.1-0.1h1.5c0.1,0,0.1,0,0.1,0.1v1.8
			c0,0.1,0,0.1,0.1,0.1h0.7c0.1,0,0.1,0,0.1-0.1v-4.7c0-0.1,0-0.1-0.1-0.1H315.6L315.6,246.7z M319,246.6h-0.4
			c-0.9,0-1.5,0.6-1.5,1.4v2.2c0,0.8,0.6,1.4,1.5,1.4h0.4c0.9,0,1.5-0.6,1.5-1.4V248C320.4,247.2,319.8,246.6,319,246.6z
			 M319.5,250.3c0,0.3-0.3,0.6-0.6,0.6h-0.4c-0.3,0-0.6-0.3-0.6-0.6v-2.2c0-0.3,0.3-0.6,0.6-0.6h0.4c0.3,0,0.6,0.3,0.6,0.6V250.3z
			 M325.7,246.7h-0.8c0,0-0.1,0-0.1,0.1l-0.5,3.1l-0.7-3.2c0,0,0-0.1-0.1-0.1h-0.4c-0.1,0-0.1,0-0.1,0.1l-0.7,3.2l-0.6-3.2
			c0,0,0-0.1-0.1-0.1h-0.8c-0.1,0-0.1,0-0.1,0.1l0,0l1.1,4.7c0,0,0,0.1,0.1,0.1h0.6c0.1,0,0.1,0,0.1-0.1l0.7-3.1l0.8,3.1
			c0,0,0,0.1,0.1,0.1h0.6c0,0,0.1,0,0.1-0.1l1.1-4.7l0,0C325.8,246.7,325.8,246.7,325.7,246.7z"/>
	</g>
</g>
<g>
	<path fill="#1D1B1B" d="M339.8,382.1c-1.1-2.3-3-3.4-5.7-3.4c-1.1,0-1.1-0.1-1.2-1.1c-0.1-3.8-2.8-6.5-6.6-6.5
		c-6.1,0-12.2-0.1-18.4,0c-2.7,0-4.8,1.2-6.1,3.8c-0.4,0.8-0.8,1.7-1.3,2.5c-0.1,0.2-0.2,0.7-0.5,0.7c-0.4,0-0.4-0.4-0.5-0.7
		c-0.4-0.8-0.8-1.7-1.3-2.5c-1.2-2.4-3.2-3.7-5.9-3.6c-2.6,0-4.6,1.3-5.8,3.8c-0.4,0.8-0.8,1.7-1.3,2.5c-0.1,0.2-0.2,0.7-0.5,0.6
		c-0.3,0-0.3-0.4-0.4-0.5c-0.4-0.8-0.8-1.6-1.2-2.5c-1.3-2.6-3.5-3.9-6.4-3.9c-4.7,0-9.5,0-14.2,0c-4.1,0-6.7,2.6-6.9,6.6
		c-0.1,1-0.1,1-1.1,1c-1,0-1.9,0.1-2.7,0.5c-2.1,1-3.3,2.6-3.5,5c0,0.1,0,0.1,0,0.2c0.3,0.4,0.3,0.9,0,1.3c0,0.1,0,0.1,0,0.2
		c0.2,0.7,0.2,1.4,0.5,2c1.3,2.3,3.3,3.4,5.9,3.5c0.8,0,1.1,0.3,1,1c-0.1,1.2,0.2,2.3,0.9,3.4c1.1,1.8,2.6,2.7,4.7,3
		c0.4,0,0.9,0,1.3,0c0.1-0.1,0.3-0.1,0.4-0.1c1.9-0.1,3.3-1,4.3-2.5c0.8-1.1,1.3-2.5,1.2-3.9c-0.1-0.7,0.2-1,1-1c0.7,0.1,1.4,0,2,0
		c1.4,0,2.9,0.1,4.2-0.4c0.8-0.4,1.1-0.1,1.4,0.7c0.7,1.3,1.2,2.6,1.9,3.8c1.1,1.9,2.6,3.3,5,3.3c0.4,0,0.9,0,1.3,0
		c1.4,0.1,2.6-0.5,3.6-1.5c1.6-1.6,2.3-3.7,3.3-5.7c-0.1,0.1,0,0.3,0.1,0.4c0.7,1.4,1.3,2.9,2.3,4.3c1.1,1.6,2.5,2.7,4.5,2.5
		c0.4,0,0.9,0,1.3,0c2.4,0.1,3.8-1.4,5-3.2c1.2,2.2,2.9,3.3,5.3,3.2c5.3,0,10.5,0,15.7,0c1.5,0.1,2.8-0.3,4-1.3
		c1.4-1.3,2.2-2.8,2.2-4.7c0.1-1.2,0.1-1.2,1.3-1.3c2.2-0.1,3.9-1,5.1-2.7C340.8,386.6,341,384.3,339.8,382.1z M335.3,386.5
		c-0.4,0.3-0.9,0.4-1.4,0.4c-1.5,0-3,0.1-4.5,0c-0.8-0.1-0.9,0.2-0.9,0.9c0.1,1.4,0,2.9,0,4.4c0,1.6-0.8,2.3-2.3,2.3
		c-4.8,0-9.6,0-14.4,0c-1.6,0-2.3-0.7-2.3-2.3c0-2.3,0-4.5,0-6.8c0-1.6,0.8-2.3,2.3-2.3c4,0,8,0,12,0c0.7,0,1-0.1,0.9-0.8
		s-0.1-1.4,0-2.2s-0.2-0.8-0.8-0.8c-4.7,0-9.5,0-14.2,0c-0.7,0-0.9,0.2-1.2,0.8c-2.2,4.4-4.3,8.6-6.4,12.9c-0.4,0.8-0.9,1.5-1.9,1.5
		s-1.5-0.7-1.9-1.5c-1.9-3.7-3.7-7.5-5.6-11.3c-1.9,3.7-3.6,7.4-5.5,10.9c-0.1,0.1-0.2,0.3-0.2,0.4c-0.4,0.8-0.9,1.4-1.9,1.4
		c-1,0-1.5-0.6-1.9-1.4c-2.2-4.3-4.4-8.6-6.4-12.9c-0.3-0.7-0.7-0.8-1.3-0.8c-3.4,0.1-6.8,0.1-10.2,0c-0.9,0-1.1,0.3-1,1
		c0.1,0.7,0.1,1.4,0,2c-0.1,0.6,0.2,0.7,0.8,0.7c2.8,0,5.7,0,8.5,0c1,0,1.8,0.5,2,1.3c0.2,0.8-0.1,1.7-0.9,2.2
		c-0.4,0.3-1,0.3-1.4,0.3c-2.7,0-5.4,0-8.1,0c-0.7,0-0.9,0.2-0.8,0.8c0.1,1.5,0,3,0,4.5c0,1.4-0.8,2.3-1.9,2.3s-1.9-0.9-1.9-2.3
		c0-1.4-0.1-2.9,0-4.4c0-0.7-0.1-1-0.9-0.9c-1.5,0.1-3,0.1-4.5,0c-1.4,0-2.2-0.8-2.2-1.9c0-1.2,0.9-1.9,2.3-1.9c1.6,0,3-0.1,4.5,0
		c0.6,0,0.8-0.2,0.7-0.8c-0.1-1.6,0-3,0-4.5s0.8-2.2,2.3-2.2c4.8,0,9.7,0,14.5,0c1.1,0,1.7,0.4,2.2,1.4c1.9,3.8,3.8,7.5,5.6,11.2
		c0.4-0.1,0.4-0.4,0.5-0.7c1.7-3.4,3.5-6.9,5.1-10.3c0.4-0.9,0.9-1.7,2-1.6c1.1,0,1.6,0.8,2,1.6c1.8,3.6,3.6,7.4,5.5,11
		c0.4-0.1,0.4-0.4,0.5-0.7c1.8-3.5,3.5-7,5.3-10.5c0.5-1.1,1.2-1.5,2.4-1.5c6,0.1,12,0,18.1,0c1.6,0,2.3,0.7,2.3,2.3
		c0,1.5,0,3,0,4.5c0,0.5,0.1,0.8,0.7,0.8c1.6-0.1,3.2-0.1,4.8,0c1,0,1.6,0.5,1.9,1.4C336.2,385.2,336,386,335.3,386.5z"/>
	<path d="M248.5,384.4c0,0.4,0,0.9,0,1.3C248.8,385.2,248.8,384.8,248.5,384.4z"/>
	<path fill="#FFFFFD" d="M334.1,383.1c-1.6,0-3.2-0.1-4.8,0c-0.6,0-0.8-0.2-0.7-0.8c0.1-1.5,0-3,0-4.5c0-1.6-0.7-2.3-2.3-2.3
		c-6,0-12,0-18.1,0c-1.2,0-1.9,0.4-2.4,1.5c-1.7,3.5-3.5,7-5.3,10.5c-0.1,0.2-0.1,0.5-0.5,0.7c-1.9-3.6-3.6-7.4-5.5-11
		c-0.4-0.8-0.9-1.6-2-1.6c-1.1,0-1.6,0.8-2,1.6c-1.7,3.4-3.4,6.9-5.1,10.3c-0.1,0.2-0.1,0.5-0.5,0.7c-1.9-3.8-3.8-7.5-5.6-11.2
		c-0.5-1-1.1-1.4-2.2-1.4c-4.8,0.1-9.7,0-14.5,0c-1.5,0-2.2,0.7-2.3,2.2c0,1.6,0,3,0,4.5c0,0.5-0.1,0.8-0.7,0.8c-1.6-0.1-3,0-4.5,0
		c-1.4,0-2.3,0.8-2.3,1.9c0,1.1,0.8,1.9,2.2,1.9c1.5,0,3,0.1,4.5,0c0.8-0.1,0.9,0.2,0.9,0.9c-0.1,1.4,0,2.9,0,4.4
		c0,1.4,0.8,2.3,1.9,2.3s1.9-0.9,1.9-2.3c0-1.5,0.1-3,0-4.5c0-0.7,0.2-0.8,0.8-0.8c2.7,0.1,5.4,0,8.1,0c0.5,0,1,0,1.4-0.3
		c0.8-0.4,1.1-1.3,0.9-2.2c-0.2-0.8-1-1.3-2-1.3c-2.8,0-5.7,0-8.5,0c-0.5,0-0.8-0.1-0.8-0.7c0.1-0.7,0.1-1.4,0-2
		c-0.1-0.8,0.1-1.1,1-1c3.4,0.1,6.8,0.1,10.2,0c0.7,0,1,0.2,1.3,0.8c2.2,4.4,4.3,8.6,6.4,12.9c0.4,0.8,1,1.4,1.9,1.4
		c1,0,1.5-0.6,1.9-1.4c0.1-0.2,0.1-0.3,0.2-0.4c1.8-3.6,3.6-7.2,5.5-10.9c1.9,3.9,3.8,7.6,5.6,11.3c0.4,0.8,0.9,1.5,1.9,1.5
		c1,0,1.5-0.7,1.9-1.5c2.2-4.3,4.4-8.6,6.4-12.9c0.3-0.5,0.6-0.8,1.2-0.8c4.7,0,9.5,0,14.2,0c0.7,0,0.9,0.1,0.8,0.8
		c-0.1,0.7-0.1,1.4,0,2.2c0.1,0.8-0.2,0.9-0.9,0.8c-4-0.1-8,0-12,0c-1.6,0-2.3,0.7-2.3,2.3c0,2.3,0,4.5,0,6.8c0,1.6,0.7,2.3,2.3,2.3
		c4.8,0,9.6,0,14.4,0c1.6,0,2.3-0.8,2.3-2.3c0-1.4,0.1-2.9,0-4.4c0-0.7,0.1-1,0.9-0.9c1.5,0.1,3,0,4.5,0c0.5,0,1-0.1,1.4-0.4
		c0.7-0.5,1-1.3,0.7-2.1C335.7,383.6,335,383.1,334.1,383.1z M323.9,390.7c-1.6-0.1-3.2,0-4.8,0s-3.2-0.1-4.8,0
		c-0.7,0-0.8-0.2-0.8-0.8c0.1-0.8,0.1-1.6,0-2.3c0-0.5,0.1-0.7,0.7-0.7c3.3,0,6.8,0,10.1,0c0.5,0,0.7,0.2,0.7,0.7
		c-0.1,0.8-0.1,1.6,0,2.3C324.8,390.5,324.6,390.7,323.9,390.7z"/>
	<path fill="#1E1C1C" d="M324.7,387.5c0-0.5-0.1-0.7-0.7-0.7c-3.3,0-6.8,0-10.1,0c-0.5,0-0.7,0.2-0.7,0.7c0.1,0.8,0.1,1.6,0,2.3
		c-0.1,0.7,0.1,0.9,0.8,0.8c1.6-0.1,3.2,0,4.8,0c1.6,0,3.2-0.1,4.8,0c0.7,0,0.9-0.2,0.8-0.8C324.6,389.1,324.6,388.3,324.7,387.5z"
		/>
</g>
<g>
	<path d="M292,641.8c0.4,0,0.8-0.1,1.2-0.1c1-0.1,2-0.1,3,0c1.5,0.1,3,0.3,4.5,0.7c1.3,0.3,2.4,0.7,3.6,1.3c0.1,0,0.1,0,0.1,0.1
		c0.9,0.5,1.8,0.9,2.7,1.5c0.9,0.6,1.8,1.3,2.7,1.9c0.7,0.6,1.4,1.3,2,1.8c1,1.1,1.9,2.2,2.7,3.5c0.9,1.3,1.5,2.7,2.1,4.2
		c0.4,1,0.7,1.9,0.9,3c0.1,0.6,0.3,1.3,0.3,1.8c0.1,0.6,0.1,1.2,0.3,1.8c0,0.1,0,0.1,0,0.1v0.3v0.1c0,0.3,0,0.5,0,0.8
		c0,0.4,0,0.9,0,1.3c0,0.1,0,0.1,0,0.1c-0.1,0.7-0.1,1.5-0.3,2.2c-0.1,1-0.4,2.1-0.6,3.1c-0.4,1.5-0.9,2.8-1.6,4.2
		c-0.7,1.3-1.5,2.6-2.4,3.7c-0.7,0.9-1.5,1.8-2.4,2.6c-1.3,1.3-2.8,2.3-4.4,3.2c-0.5,0.3-1,0.5-1.5,0.9c-0.8,0.4-1.5,0.7-2.3,0.9
		c-0.8,0.3-1.5,0.5-2.4,0.7c-0.8,0.1-1.5,0.3-2.3,0.5c-0.6,0.1-1.3,0.1-1.9,0.1c-0.1,0-0.1,0-0.1,0c-0.3,0-0.6,0-0.9,0
		c-0.4,0-0.7,0-1.1,0c-0.1,0-0.1,0-0.1,0c-0.4,0-0.8,0-1.1-0.1c-0.3,0-0.7-0.1-1-0.1c-0.5-0.1-0.9-0.1-1.4-0.3
		c-0.5-0.1-0.9-0.1-1.3-0.3c-0.5-0.1-1.1-0.3-1.7-0.5c-0.6-0.3-1.3-0.5-1.9-0.8c-0.9-0.4-1.7-0.9-2.4-1.3c-0.5-0.3-1.1-0.7-1.6-1.1
		c-0.3-0.3-0.6-0.5-0.9-0.7c-0.3-0.1-0.5-0.4-0.6-0.5c-0.5-0.5-1.1-1-1.6-1.5c-1.3-1.3-2.3-2.8-3.2-4.4c-0.5-0.8-0.9-1.5-1.3-2.4
		c-0.3-0.5-0.4-0.9-0.5-1.5c-0.3-0.6-0.4-1.3-0.5-1.8c-0.3-0.8-0.4-1.6-0.5-2.4c-0.1-0.4-0.1-0.8-0.1-1.2c0-0.3-0.1-0.5-0.1-0.8
		c0-0.1,0-0.1,0-0.1v-0.3V666c0-0.3,0-0.7,0-1s0-0.5,0-0.9c0-0.1,0-0.1,0-0.1v-0.1c0-0.1,0-0.3,0-0.3v-0.1c0-0.4,0.1-0.8,0.1-1.2
		c0.1-0.4,0.1-0.9,0.3-1.3c0.1-0.6,0.3-1.2,0.4-1.8c0.1-0.7,0.4-1.4,0.6-2c0.5-1.5,1.3-3,2-4.2c0.4-0.7,0.9-1.4,1.4-2
		c0.3-0.4,0.6-0.9,1-1.3c0.3-0.3,0.4-0.5,0.6-0.7c0.3-0.3,0.5-0.5,0.7-0.8c0.4-0.3,0.7-0.7,1.1-1c0.3-0.3,0.5-0.5,0.9-0.7
		c0.6-0.5,1.2-0.9,1.8-1.3c0.7-0.5,1.5-0.9,2.2-1.3c1.3-0.6,2.4-1.1,3.7-1.4c1.3-0.3,2.4-0.6,3.6-0.8
		C291.9,641.8,291.9,641.8,292,641.8z"/>
	<path fill="#FAF9F9" d="M271.3,663.7c0,0.1,0,0.1,0,0.1S271.3,663.8,271.3,663.7z"/>
	<path fill="#FAF9F9" d="M318,663.9C317.9,663.8,318,663.8,318,663.9L318,663.9z"/>
	<path fill="#FAF9F9" d="M271.3,665.9C271.3,666,271.3,666,271.3,665.9C271.3,666,271.3,666.1,271.3,665.9z"/>
	<path fill="#FAF9F9" d="M318,666.1C318,666,318,666,318,666.1C318,666.1,318,666.1,318,666.1z"/>
	<path fill="#FAF9F9" d="M293.5,688.2c0.1,0,0.1,0,0.1,0C293.6,688.3,293.5,688.3,293.5,688.2z"/>
	<path fill="#FAF9F9" d="M295.6,688.3c0.1-0.1,0.1,0,0.1,0S295.7,688.3,295.6,688.3z"/>
	<path fill="#FAF9F9" d="M271.4,663.2c0,0.1,0,0.1,0,0.1C271.4,663.4,271.3,663.4,271.4,663.2z"/>
	<path fill="#FAF9F9" d="M318,663.4C318,663.3,318,663.3,318,663.4C318,663.4,318,663.4,318,663.4z"/>
	<path fill="#FAF9F9" d="M271.4,666.5C271.4,666.6,271.4,666.6,271.4,666.5C271.3,666.6,271.4,666.5,271.4,666.5z"/>
	<path fill="#FFFFFE" d="M288.1,663.4c-0.5,0-1,0-1.5,0c-0.1,0-0.1,0-0.1,0.1c-0.1,0.9-0.3,1.9-0.5,2.8c-0.1,0.7-0.1,1.4-0.4,2.1
		c-0.8,2.4-2.4,3.9-4.9,4.2c-1.9,0.3-3.8-0.5-4.6-2.7c-0.3-0.8-0.3-1.5-0.3-2.3c0-0.3,0.1-0.4,0.1-0.6c0.1-0.4,0.5-0.6,0.9-0.6
		c0.5,0,1.2,0,1.7,0c0.4,0,0.8,0.3,0.6,0.8c-0.1,0.4-0.1,0.8-0.1,1.3c0.1,0.6,0.5,0.9,1.2,1c1.1,0.1,1.9-0.6,2.1-1.7
		c0.3-1.4,0.5-2.8,0.7-4.2c0-0.3,0-0.3-0.1-0.3c-0.9,0-1.8,0-2.6,0c-0.5,0-0.8-0.3-0.7-0.8c0-0.1,0-0.1,0.1-0.3
		c0.1-0.5,0.1-0.9,0.3-1.4c0.1-0.5,0.5-0.8,0.9-0.8c0.9,0,1.8,0,2.7,0c0.1,0,0.1,0,0.1-0.1c0.1-0.9,0.3-1.9,0.5-2.8
		c0.4-1.7,1.3-3.2,2.8-4s3-1,4.6-0.4c1.4,0.5,2.2,1.5,2.6,3c0.1,0.4,0.1,0.9,0.1,1.3c0,0.3-0.1,0.6-0.1,1c-0.1,0.5-0.5,0.8-0.9,0.8
		c-0.7,0-1.3,0-2,0c-0.5,0-0.7-0.4-0.7-0.8c0.1-0.3,0.1-0.7,0.1-1.1c0-0.3-0.1-0.4-0.1-0.6c-0.3-0.5-0.6-0.6-1.1-0.6
		c-1,0-1.8,0.7-1.9,1.7c-0.1,0.9-0.3,1.8-0.4,2.6c0,0.1,0,0.1,0.1,0.1c1.5,0,3.1,0,4.6,0c0.9,0,1.5,0.5,1.7,1.5
		c0,0.3-0.1,0.6-0.1,0.9c-0.1,1.3-0.4,2.6-0.5,3.9c-0.3,1.3-0.4,2.6-0.6,3.9c-0.1,0.5-0.1,1.1-0.3,1.5c-0.1,0.5-0.4,0.8-0.9,0.8
		c-0.6,0-1.3,0-1.9,0c-0.5,0-0.7-0.3-0.6-0.7c0.1-0.9,0.3-1.7,0.4-2.6c0.1-1.1,0.3-2.2,0.5-3.3c0.1-0.8,0.3-1.6,0.4-2.4
		c0-0.1,0-0.1-0.1-0.1C289,663.4,288.5,663.4,288.1,663.4z"/>
	<path fill="#FFFFFF" d="M303.6,662.1c-0.5,0.3-0.9,0.5-1.3,0.8c-0.4,0.3-0.9,0.5-1.4,0.5s-0.9,0-1.4,0c-0.1,0-0.1,0-0.1,0.1
		c-0.3,1.3-0.4,2.7-0.6,4c-0.3,1.4-0.4,2.8-0.6,4.2c-0.1,0.3-0.1,0.6-0.4,0.8c-0.1,0.1-0.3,0.1-0.5,0.1c-0.6,0-1.3,0-1.9,0
		c-0.4,0-0.7-0.3-0.6-0.7c0.1-0.9,0.3-1.8,0.4-2.6c0.1-1.1,0.3-2.1,0.5-3.2c0.1-0.8,0.3-1.6,0.4-2.4c0-0.3,0-0.3-0.1-0.3
		c-0.4,0-0.9,0-1.3,0c-0.5,0-0.7-0.3-0.6-0.8c0-0.1,0.1-0.3,0.1-0.5c0.1-0.4,0.1-0.8,0.3-1.2c0.1-0.5,0.5-0.9,0.9-0.9s0.9,0,1.3,0
		c0.1,0,0.1,0,0.1-0.1c0.1-1.3,0.4-2.6,0.5-3.8c0.1-0.5,0.4-0.8,0.9-0.8c0.6,0,1.3,0,1.8,0s0.7,0.3,0.6,0.8
		c-0.1,1.3-0.4,2.6-0.5,3.8c0,0.1,0,0.1,0.1,0.1c2.8,0,5.5,0,8.4,0c0.8,0,1.5,0,2.4,0c0.5,0,0.8,0.3,0.7,0.8
		c-0.1,0.5-0.1,1.1-0.3,1.7c-0.1,0.4-0.4,0.7-0.8,0.8c-0.3,0-0.6,0-0.9,0c-0.5,0-1.1,0-1.6,0c-0.8,0.1-1.5,0.4-2.1,0.9
		c-0.6,0.6-1.1,1.3-1.2,2.2c-0.1,1.5,0.9,2.8,2.3,3c1.3,0.1,2.3-0.4,3.1-1.4c0.1-0.1,0.3-0.3,0.3-0.5c0.1-0.3,0.4-0.5,0.8-0.5
		c0.6,0,1.3,0,1.8,0s0.7,0.3,0.6,0.8c-0.1,0.6-0.5,1.2-0.9,1.6c-0.9,1.3-2.1,2.2-3.6,2.8c-1.5,0.5-3.1,0.6-4.6-0.1
		c-1.8-0.8-2.8-2.2-3.2-4c-0.3-1.8,0.3-3.6,1.3-5C302.9,662.8,303.3,662.4,303.6,662.1L303.6,662.1L303.6,662.1z"/>
	<path fill="#CF5D53" d="M303.6,662.1c0-0.1,0.1-0.1,0.1-0.1C303.7,662,303.7,662.1,303.6,662.1L303.6,662.1z"/>
</g>
<g>
	<path fill="#010101" d="M294.2,547.7c-0.3-0.2-0.7-0.4-0.9-0.7c-0.2-0.2-0.3-0.3-0.3-0.6c0-0.2,0-0.5,0-0.7c0-0.1,0-0.1,0.1-0.1
		c0.1,0,0.1,0,0.1,0.1c0.9,0.8,2,1.1,3.1,1.2c1.3,0.1,2.5,0.1,3.7-0.3c0.3-0.1,0.7-0.3,0.9-0.5c0.5-0.4,0.5-0.9,0-1.2
		c-0.5-0.5-1.2-0.6-1.8-0.7c-0.5-0.1-1.1-0.2-1.6-0.2c-0.1,0-0.2,0-0.2-0.1c0-0.1,0.1-0.1,0.2-0.1c0.9,0.1,1.8,0.1,2.6,0.5
		c0.4,0.1,0.7,0.3,1.1,0.6c0.3,0.2,0.4,0.5,0.4,0.8s0,0.6,0,0.9c0,0.2-0.1,0.3-0.2,0.5c-0.3,0.3-0.6,0.4-0.9,0.7
		C298.4,548.7,296.1,548.7,294.2,547.7z"/>
	<path fill="#040404" d="M296.8,501.6C296.8,501.7,296.8,501.7,296.8,501.6c-0.7,0.1-1,0.5-1.3,0.9c-0.4,0.6-0.6,1.3-0.7,2
		c-0.1,0.8,0,1.5,0.3,2.2c0,0.1,0,0.1-0.1,0.1c-0.6-1-0.9-2-0.6-3.2c0.3-1,0.8-1.7,1.8-2.1C296.3,501.6,296.5,501.6,296.8,501.6z"/>
	<path fill="#010101" d="M297.3,535.2c0.5-1.5,1-3,1-4.6c-0.1-0.9-0.3-1.7-0.7-2.5c-0.5-1-1-2-1.6-2.9c0-0.1-0.1-0.1-0.1-0.1
		c0-0.1-0.1-0.1,0-0.1c0.1-0.1,0.1,0,0.1,0.1c0.1,0.1,0.2,0.2,0.3,0.3c0.8,1,1.4,2.1,1.9,3.2c0.5,1.2,0.6,2.4,0.5,3.7
		c-0.2,2.1-0.9,4.1-1.6,6.1c-0.4,1.2-0.8,2.4-1.1,3.6c-0.1,0.9-0.2,1.6,0.2,2.4c0.2,0.4,0.5,0.7,0.8,0.9c0.2,0.1,0.4,0.2,0.7,0.1
		c0.1,0,0.1-0.1,0.2,0.1c0.1,0.1-0.1,0.1-0.1,0.1c-0.2,0.1-0.3,0.1-0.5,0.1c-0.6-0.2-0.9-0.7-1.2-1.2c-0.4-0.9-0.5-1.8-0.5-2.7
		c0.1-1.9,0.7-3.8,1.3-5.6c0.1-0.3,0.1-0.6-0.1-0.9c-0.7-1.4-1.5-2.7-2.1-4c-0.6-1.1-1.3-2.2-1.8-3.4c-0.5-1.3-0.9-2.5-0.8-3.8
		c0.1-0.7,0.3-1.4,0.7-2c0.3-0.3,0.6-0.4,0.9-0.3c0.1,0,0.1,0.1,0.1,0.1c0,0.1-0.1,0.1-0.2,0.1c-0.4,0-0.7,0.2-0.9,0.5
		c-0.5,0.7-0.6,1.5-0.3,2.4c0.3,1.2,0.9,2.2,1.5,3.4c0.9,1.5,1.8,3,2.6,4.7c0.3,0.7,0.5,1.3,0.7,2
		C297.2,535.1,297.3,535.1,297.3,535.2z"/>
	<path fill="#010101" d="M298.8,512.5c-0.5-0.2-1.1-0.5-1.6-0.6c-0.6-0.1-1,0-1.3,0.5c-0.2,0.3-0.3,0.5-0.5,0.8
		c-0.4,0.5-1,0.7-1.6,0.5c-0.7-0.3-1.2-0.9-1.3-1.6c-0.1-0.3,0.1-0.6,0.3-0.8c0.5-0.3,1.3-0.3,1.8-0.1c0.3,0.2,0.4,0.5,0.3,0.7
		c-0.1,0.2-0.5,0.2-0.7-0.1c-0.2-0.1-0.3-0.3-0.5-0.5c-0.5-0.3-1,0-1.1,0.5c-0.1,0.3,0.1,0.6,0.4,0.8c0.6,0.4,1.8,0.7,2.6-0.1
		c0.2-0.2,0.4-0.4,0.6-0.6c0.4-0.4,0.9-0.5,1.4-0.3c0.6,0.3,1.2,0.5,1.8,0.8c0.3,0.1,0.7,0.3,1.1,0.2c0.3-0.1,0.3-0.2,0.2-0.4
		c-0.1-0.2-0.3-0.3-0.4-0.4c-0.7-0.4-1.5-0.6-2.2-0.8c-1.5-0.3-2.8-0.5-4.3-0.7c-1.6-0.3-3.1-0.6-4.5-1.5c-0.7-0.4-1.3-0.9-1.6-1.5
		c-0.2-0.3-0.3-0.7-0.4-1c0-0.1,0-0.1,0.1-0.2c0.1-0.1,0.1,0.1,0.1,0.1c0.1,0.9,0.7,1.5,1.5,2c0.9,0.5,1.8,0.7,2.8,0.9
		c1.8,0.3,3.6,0.5,5.4,1c1.2,0.3,2.4,0.7,3.4,1.5c0.1,0.1,0.3,0.2,0.3,0.4c0.2,0.3,0.1,0.5-0.3,0.7c-0.4,0.1-0.7,0.1-1.1,0
		c-0.5-0.1-0.5-0.1-0.7,0.3c-1.7,2.5-1.8,5.1-0.6,7.8c0.3,0.7,0.8,1.5,1.1,2.2c0.5,0.9,0.5,1.8,0.1,2.7c0,0.1-0.1,0.1-0.1,0.1
		c0,0.1-0.1,0.1-0.1,0.1c-0.1,0-0.1-0.1-0.1-0.1c0.1-0.3,0.1-0.7,0.1-0.9c0-0.9-0.2-1.6-0.6-2.3c-0.3-0.5-0.6-1.1-0.9-1.6
		c-1.4-2.1-1.4-4.3-0.1-6.5C297.9,513.8,298.3,513.2,298.8,512.5z"/>
	<path fill="#020202" d="M295.2,507.2c0.1,0.1,0.1,0.1,0.1,0.1c1-0.9,1.7-1.9,1.8-3.3c0.1-0.6,0-0.7-0.3-1.3c0.1,0,0.2,0.1,0.2,0.1
		c0.5,0.6,0.5,1.3,0.4,2c-0.3,2.2-2.2,3.6-4.1,4c-0.4,0.1-0.9,0.1-1.3,0.2c-0.1,0-0.1,0-0.1-0.1c0.2-0.1,0.4-0.1,0.7-0.1
		c0.9-0.1,1.7-0.6,2.4-1.2C295.2,507.4,295.1,507.3,295.2,507.2C295.1,507.2,295.1,507.2,295.2,507.2z"/>
	<path fill="#464343" d="M295.2,507.2C295.1,507.2,295.1,507.3,295.2,507.2c-0.1-0.1-0.2-0.1-0.3-0.3l0.1-0.1
		C295.1,507,295.1,507.1,295.2,507.2z"/>
</g>
<g>
	<path fill="#010101" d="M309.1,97.7h-4.2v14.8h4.2V97.7z M300.3,111.5h-16V97.7h-4.2v14.8h20.1v-1L300.3,111.5L300.3,111.5z
		 M273.9,106.8l-4.2-0.1c-1.1,3.1-5,4.9-10.6,4.9c-6.9,0-10.9-2.5-10.9-6.6c0-4.5,5.6-6.6,10.9-6.6c4.5,0,9.5,1.6,10.6,5.1l4.2-0.1
		c-1.2-3.7-6.9-5.9-14.8-5.9c-9.2,0-15.1,3-15.1,7.5c0,6.2,8.2,7.5,15.1,7.5C262.9,112.7,272.2,112.1,273.9,106.8 M330.4,98.5
		c-5.2,0-10.9,2.1-10.9,6.6c0,4.2,3.9,6.6,10.9,6.6c6.6,0,10.9-2.6,10.9-6.6C341.3,100.6,335.7,98.5,330.4,98.5 M330.4,112.7
		c-6.9,0-15.1-1.3-15.1-7.5c0-4.5,5.9-7.5,15.1-7.5c9.2,0,15.1,3,15.1,7.5C345.5,111.9,335,112.7,330.4,112.7"/>
</g>
<g>
	<g>
		<path fill="#171617" d="M300.2,13.8c1.6,3-1.5,3.4-1.9,6c0.1,0,0.1,0,0.3,0c0-0.1,0.3-0.3,0.5-0.4c0.6,0,1.1-0.7,1.4-1.5
			c0.4-0.3,0.7-0.5,0.9-0.4c0.1-0.1,0.1-0.3,0.1-0.3c0.1-0.3,0.1-0.5,0.3-0.7c0.9-2.5-0.9-3.5-2.8-3.5c-0.1,0-0.1,0.1-0.4,0.1
			c-0.5,0-1.1,0-1.7-0.1C297.1,14.4,299.4,13.8,300.2,13.8z M303.1,18.5c0.3-0.8,0.7-2.4-0.1-2.8c-0.5,1.4-1,2.8-2.2,3.7
			c-1.1,0.6-2.6,1.2-3.1,2.3C299.4,21.3,301.8,19.9,303.1,18.5z M282.7,32.4c-0.3-0.9-0.8-1.7-1.3-2.6c-0.7-1.3-1.2-2.4-1.3-3.5
			c-0.1-1.3-0.1-2.2,1.9-3.6c2-2.7,1.1-5.4,2.9-6.9c0.6-0.5,1.6-0.9,3-1.1c0,0.1,0.1,0.1,0,0.1c-0.3,0.9-0.1-0.5-1.3,3.1
			c-1.1,2.8-4.7,5.2-4,8.5c0.4,1,1,2.2,1.5,3.4c0.3,1.4-0.4,2.2-0.1,3.6c0.1,0.8,0.8,1.8,1.7,3.2h0.1c-0.9-1.6-0.4-2.4,0.1-4.1
			c0.3-0.6,0.1-1.4,0.1-2.2c-2.5-6.3-1.1-4.2,1.5-10.4c0.1-0.9,0.1-1.8,0.3-2.5c0.1-0.5,0.4-0.9,0.5-1.3c1.5-3.2,4.4-3.6,8.2-0.3
			c2,1.8,0.1,3.2-0.3,5.5c0.1,0,0.1,0.1,0.3,0.1c0.1-0.7,0.5-1.3,1.1-1.8c0.6-0.6,0.9-1.8,1.2-2.6c0.1-0.3-0.1-0.5-0.3-0.9
			c-0.5-0.5-2.2-1.7-3.1-1.4c-1.6-0.9-2.3-1.4-4.2-1.4c0-0.1,0-0.3,0-0.3c2.1-1.1,3-1.2,4.9-0.1c0-0.1,0-0.1,0-0.3
			c-0.7-0.3-1.9-0.9-2.8-1.2c-0.7-0.1-1.5-0.1-3.1,0.9c-1.2,0.8-2.6,1.1-4,1.5s-2.5,0.9-3.1,1.3c-1,0.7-1.4,1.6-1.6,2.8
			c-0.3,1.7-0.9,3.6-2.6,5.7c-0.5,1.5-0.1,3.4,0.9,5C280.9,30.3,281.8,31.7,282.7,32.4z M304.6,15.4c1.4,2.2-1.2,4.7-3.2,5.5
			c0,0.1,0,0.1,0,0.1c1.5,0,3.8-0.9,4.9-2c0.8-0.6,0.9-1.6,0.3-2.7c-0.8-0.9-2.9-3.6-4.2-4c-0.1-0.1-0.3,0-0.5,0
			C302.5,13.7,303.5,14.4,304.6,15.4z M292.2,30.4c0.6-1.1,1.4-2.2,2.1-3.4c0.5-0.8,0.9-1.6,1.2-2.3c0.3-0.5,0.5-0.9,0.7-1.3
			c0-0.1-0.1-0.3,0-0.4h-0.3c-0.5,1-1.5,1.6-2.5,1.7c-1.5,2-2.8,1.8-3.7,1.8c0,0.9,0,1.5,0,1.9c0.1,0.5,0.5,0.6,0.7,1.5
			c0.1,0,0.3,0.1,0.3,0.1c0.1-0.6,0-1.7,0-2c0-0.9-1.2-0.1,2.2-2.1c0.1,0.3,0.1,0.4,0.1,0.6c-0.3,0.6-1.3,1.1-1.8,1.3v0.1
			c0.4,0,0.9-0.1,1.3,0.1C292.6,28.8,292.5,29.5,292.2,30.4C292.1,30.4,292.1,30.4,292.2,30.4z M308.5,22c1,0.4,1.7,1,2.3,1.8
			c0.3,0.3,0.6,0.5,1,0.7c0.3,1,0.3,2,0.1,3.1c0.5,0.1,0.8,0,1.1-0.1c0.8-0.4,1.2-1.1,1.1-1.6c0-0.1-0.1-0.4-0.1-0.5
			c-0.3-0.4-2.3-1.8-2.9-2.2C309.8,22.1,309.7,22,308.5,22L308.5,22L308.5,22z M307.4,34.2v0.3c2.2-0.4,4.7-2.5,4.8-4.8
			c0.1-0.9-0.1-1.8-0.9-2.6c-2-1.5-1.9-1.6-2.7-4c-0.3-0.6-0.9-1.3-2.2-1.3c-0.5,0.4-1.6,0.4-3,0.1c-0.8,0.1-1.5,0.1-1.9,0.3
			c0.1,0.6,2.6,1.3,3.4,1.4c0.6-0.1,1.5-0.7,2,0.5c0.9,2,2.6,2.2,3.7,4.5c0.4,0.8,0,1.6-0.3,2.2c-0.6,1.2-1.3,2.4-2.6,2.9
			C307.7,34,307.7,34,307.4,34.2z M307.1,15.4c1.9,0.9,2.3,1.4,2,1.8c-1.5,1-2.1,0.9-2.4,2.7c-2,0.3-1.9,0.3-3.4,1.7l-0.1,0.1
			c0.1,0.1,0.5,0.3,0.6,0.3c1.5-0.3,1.4-1.1,4.5-0.8c0.5-0.6,0.5-0.7,0.5-1.9c1.3-0.9,1.8-1.3,1.6-3c-0.3-0.1-1.5-0.9-2.1-0.6
			c-0.7-0.5-1.4-0.8-1.7-0.9C306.8,15,306.8,15.1,307.1,15.4z M296.7,18.5c-0.5-1-0.5-1.2-1.8-1.3c-0.4,0-1.4-0.1-1.7-0.5
			c-0.5-0.3-0.7-0.5-1.1-0.6s-0.7-0.1-0.9-0.1c-0.3,0.1-0.5,0.3-0.7,0.5c-0.3,0.4-0.5,1.2-0.6,2c-0.1,0.7-0.8,1.1-1.3,1.6
			c0.1,0,0,0.3,0.1,0.1c1.8-0.6,1.4-4,3.2-3.9c1.1,1.4,0.9,1.7,2.6,1.9c1,0.3,0.7,1.8,0.3,2.2c0.1-0.1-0.1,0.1,0.1,0.3
			c0.1,0,0.5-0.1,0.7-0.3c0.1-0.7,0.3-1.2,0.6-1.4C296.5,18.9,296.7,18.6,296.7,18.5z M287.5,32.4c0.3-1.7,0.7-3.4,0.9-4.9h-0.3
			c-0.4,1.6-0.5,3.2-0.8,4.9C287.5,32.3,287.5,32.3,287.5,32.4z M287.5,24c-0.1,1.2-0.3,1.9,0.3,3h0.3c-0.3-1.2-0.3-1.9-0.3-3H287.5
			z M318.1,35.6c-0.7,0.1-1.3,0.5-2,0.8c-2.4,1.3-4.3,3.7-5.7,5.8c-0.1,0.1-0.3,0.4-0.6,0.5c-0.3,0.1-0.6,0-0.9,0.1
			c-1.8,0.3-4.4,0-5.7,0.5c-1.8,0.6-2.6,1.3-3,2.3c-0.3,0.5-0.3,1-0.5,1.7c-0.1,0.3-0.1,0.5-0.4,0.7c-0.3,0.3-0.7,0.3-1.2,0.5
			c-3.4,0.5-5.8,0.9-7.8,1.8c-0.9,0.5-1.7,1.1-2.6,1.7c-1.3,1-2.6,2.2-4.2,4c-0.9,0.7-2.6,1.3-5.4,0.5c-0.6-0.1-1.1,0.1-1.3-0.1
			c-0.1-0.1,0-0.5,0.1-0.8c1.5-0.3,2.8-0.8,4.2-1.3c0-0.1,0-0.1,0-0.1c-0.6,0.1-1.1,0.4-1.6,0.5c-0.8,0.1-1.6,0.1-2.5,0.1
			c-0.3,0.1-0.7,0.1-0.9,0.3c-0.5,0.9-0.4,2-1,1.9c-0.4-0.6-0.5-1.1-0.4-1.5c0.3-0.5,0.9-1,1.8-1.3c2.3-0.4,4.3-1.1,6.1-2
			c3.4-1.7,6.3-4.3,9.6-7.5c1.9-1.6,4.2-3.1,6.6-4.5c1.7-1,3.4-2,5.2-2.7c2-0.8,4.1-1.6,6.2-2.2c1.3-0.3,2.6-0.5,3.8-0.7v-0.1
			c-2.6-0.1-4-0.3-5.6,0.3c-0.9,0.4-2,0.7-3.5,1c-0.1-0.5,0.6-1.8,0.9-2.8c0.1-0.3,0-0.5,0-0.7c0.1-0.1,0.1-0.4,0.3-0.5
			c1.2-1.2,2.6-2.5,0.3-4.4c-2.9-1.3-3.9-1.1-5.6-3.9h-0.5c0,0.1,0,0.3-0.1,0.4c-0.5,0-0.5-1.2-0.5-1.4h-0.3
			c-0.1,0.1-0.1,0.1-0.1,0.3c-0.8,0.5-1.4,1.5-2.2,2.5c-1,1.5-2.1,3.4-3,4.9c-0.9,1.7-1.6,3.2-2.4,3.4c0,0.1,0,0.1-0.1,0.3
			c0.9,0,1.8-0.6,2.5-0.9c0.5,0.1,0.7,0.5,0.5,1.3c-1.7,1.3-3,1.3-5.1-0.3c0-0.1,0-0.3,0-0.3c0.3-0.3,0.6-0.5,1-0.7
			c0-0.1,0-0.3,0.1-0.4c-0.3,0-0.5,0.1-0.9,0.1c-0.5-0.3-1-0.4-1.1-0.1c-0.3,0.5-0.5,0.6-1.3,0.6c0.5,1.3,1.6,1.2,2.5,1.6
			c0.7,0.1,1.1,0.5,0.8,1.9c-0.3,0.1-0.3,0.3-0.5,0.4c-1.7,0.5-3,1.7-3.4,3.4c0.1,0,0.1,0,0.3-0.1c0.9-1.5,2.8-1.9,4.5-2.1
			c-0.3,0.6-1.6,1.3-2.8,2.2c-0.7,0.9-1.6,1.8-2.2,2.8c-0.1,0.1,0.1,0.1,0.1,0.3c0.1-0.1,0.3-0.1,0.3-0.3c0.1-0.1,0.3-0.3,0.4-0.5
			c1.1-0.7,1.8-0.9,3.6-1c0.6-0.1,1.3-0.3,1.4-0.6c0.5-1.4,1.3-2.4,3.2-3l0.1,0.1c-0.3,0.3-0.9,0.5-1.4,0.9
			c-0.5,0.7-0.8,1.1-1.1,1.4c0,0.1,0,0.1,0,0.3c0.1,0.1,0.1,0,0.1,0c0.5-1.3,4.7-2.2,6-2.6c0,0.1,0,0.1,0.1,0.1
			c-0.6,0.3-1.2,0.7-1.8,0.9c-1.1,0.5-2.2,1.2-3.4,1.8c-0.3,0.3-0.6,0.6-0.9,0.9c-0.5,0.4-1.3,0.8-1.8,1.2c-1,0.6-1.8,1.4-2.7,2.2
			c-2.6,2.2-4.9,4.5-7.5,6.3c-0.7,0.3-2.5,1-3,1.1c-0.3-0.1-0.5,0-0.7-0.1c-1.3-0.5-2.2-1-4.4,0V53c0.5-0.1,0.9-0.1,1.3-0.1
			c0,0.3-0.3,0.4-0.5,0.4c-0.7,0-1.4,0.4-1.8,0.9c-1,1.3-0.9,2.2-0.3,3c0.3,0.3,0.9,0.5,1.4,0.7c0.5,0.1,0.9,0.5,1.3,0.7
			c1.2-0.3,2.1-0.5,3.4-0.5c1.3,0.3,2.3,0.6,3.9,0.4c0.5-0.1,1,0.1,1.6-0.1c0.3-0.1,1.6-0.3,3.2-0.1h0.1c1-0.5,0.7-2,0.7-2.2
			c0,0,0,0,0-0.1l0,0l0,0v-0.1c0-0.1,0-0.1,0.1-0.3v-0.1l0,0c0-0.1,0.1-0.1,0.1-0.1l0,0c0.3-0.6,1.1-1.3,2-1.8
			c1.9-1.1,4.6-2,5.3-2.1c1.3,0,3,0.1,4.4-0.1c0.9-0.1,1.6-0.5,2.3-0.9c0.6-0.3,1.2-0.6,1.6-1.2c0.3-0.4,0.4-1.4,0.5-1.8
			c0.1-0.3,0.3-0.7,0.7-0.9c1-0.5,2.7-0.5,4.4-0.3c3,0.4,5.5-0.6,6.6-2.5c0-0.9,0.5-2.2,1.3-2.5c0.1-0.1,0.1-0.3,0.1-0.3
			c-0.9-1.4,0-3,0.9-4c0.1-0.3,0.4-0.4,0.5-0.5C318.1,35.7,318,35.7,318.1,35.6z M298.4,33.6v-4.9c-0.1,0-0.1,0-0.3,0
			c-1.1,1.3-1.9,1.9-2.2,4c-0.5-0.1-0.9-0.3-1.3-0.4c-0.1-0.9,0.6-1.3,1.3-2.1c0.6-0.6,1.2-1.3,1.8-2c1-1,1.6-2.1,1.8-2.6
			c0.1,0,0.3,0,0.3,0.1c0.1,2.2,1.2,3.4,1.3,3.8c0,0.1-0.1,0.3-0.3,0.5c-0.1,0.3-0.7,0.5-1.2,0.9C299,32.4,299,32.4,298.4,33.6
			C298.6,33.6,298.6,33.6,298.4,33.6z M299.5,35.8c0.4-0.7,1.1-0.8,1.3-1.8c0.1-0.9,0.5-1.3,1.3-1.5c0.3-0.1,0.6-0.3,1-0.4
			c0.4-0.3,0.6-0.6,0.6-0.9c0-0.4,0-0.9,0-1.3c-0.7-0.9-2.3-2.3-2.2-3.6c0.5,0.4,0.7,0.9,3,1.6c0.9,0.5,1.6,1.3,1.1,2.2
			c-1.3,0.8-1.6,1.3-1.7,2.3c-0.1,0.5-0.3,1.3-0.5,1.7c-0.6,1.1-1.8,1.8-3.4,1.8C299.8,36,299.6,35.8,299.5,35.8z M273.9,54.7
			c-0.1,0.3-0.3,0.5-0.5,0.7c-0.3,0.1-0.5,0.3-0.5,0.3c-0.8-0.9,0-1.8,1-2c0.8-0.1,1.5-0.5,1.7-0.3c-0.1,0.1-0.1,0.1-0.3,0.3
			C274.8,53.8,274.2,54,273.9,54.7z"/>
	</g>
</g>
<g>
	<g>
		<g>
			<path fill="#2E2D2D" d="M302.1,457.6h-3.9l-0.9,2.8h-2l3.9-11.1h2.1l3.9,11.1h-2L302.1,457.6z M300.2,451.4c0,0-0.2,1.1-0.5,1.7
				l-1,3h2.9l-1-3C300.5,452.5,300.2,451.4,300.2,451.4L300.2,451.4z"/>
		</g>
		<g>
			<path fill="#2E2D2D" d="M308.1,449.4h3.5c1.2,0,1.8,0.1,2.2,0.3c1.1,0.5,1.8,1.5,1.8,3c0,1.3-0.7,2.6-1.9,3v0.1
				c0,0,0.2,0.2,0.4,0.6l2.3,4.1h-2.2l-2.1-4.1h-1.9v4.1h-2L308.1,449.4L308.1,449.4z M311.9,454.6c1.1,0,1.8-0.6,1.8-1.8
				c0-1.1-0.5-1.7-2-1.7h-1.5v3.5H311.9L311.9,454.6z"/>
		</g>
		<g>
			<path fill="#2E2D2D" d="M319.9,449.4h3.8c3.4,0,5.6,2,5.6,5.5s-2.2,5.5-5.6,5.5h-3.8V449.4z M323.5,458.7c2.2,0,3.6-1.3,3.6-3.8
				c0-2.5-1.5-3.8-3.6-3.8h-1.7v7.6H323.5L323.5,458.7z"/>
		</g>
		<g>
			<path fill="#2E2D2D" d="M332.8,457.6c0,0,1.2,1.2,2.7,1.2c0.9,0,1.6-0.5,1.6-1.3c0-2-5.2-1.7-5.2-5c0-1.8,1.6-3.2,3.7-3.2
				c2.1,0,3.3,1.2,3.3,1.2l-0.9,1.7c0,0-1.1-1-2.5-1c-0.9,0-1.7,0.6-1.7,1.3c0,1.9,5.2,1.5,5.2,5c0,1.8-1.3,3.2-3.6,3.2
				c-2.5,0-3.8-1.5-3.8-1.5L332.8,457.6z"/>
		</g>
		<g>
			<path fill="#231F20" d="M279.6,449.4l-1.8,7.6c-0.1,0.6-0.2,1.2-0.2,1.2h-0.1c0,0-0.1-0.5-0.2-1.2l-1.9-7.6h-1.8l-2,7.6
				c-0.2,0.6-0.2,1.2-0.2,1.2h-0.1c0,0-0.1-0.6-0.2-1.2l-1.3-5.7l-1,4.2l1.3,5h2.3l1.7-6.5c0.2-0.7,0.3-1.4,0.3-1.4h0.1
				c0,0,0.1,0.7,0.3,1.4l1.7,6.5h2.3l2.8-11.1H279.6L279.6,449.4z"/>
		</g>
		<g>
			<path fill="#231F20" d="M292,449.4l-1.8,7.6c-0.1,0.6-0.2,1.2-0.2,1.2h-0.1c0,0-0.1-0.5-0.2-1.2l-1.9-7.6h-1.7l-2,7.6
				c-0.2,0.6-0.2,1.2-0.2,1.2h-0.1c0,0-0.1-0.6-0.2-1.2l-1.3-5.8l-1,4.2l1.3,5h2.3l1.7-6.5c0.2-0.7,0.3-1.4,0.3-1.4h0.1
				c0,0,0.1,0.7,0.3,1.4l1.7,6.5h2.3l2.8-11.1L292,449.4L292,449.4L292,449.4z"/>
		</g>
		<g>
			<path fill="#2E2D2D" d="M250.9,457.6h-3.9l-0.9,2.8h-2l3.9-11.1h2.1l3.9,11.1h-2L250.9,457.6z M248.9,451.4c0,0-0.2,1.1-0.5,1.7
				l-1,3h2.9l-1-3C249.2,452.5,249,451.4,248.9,451.4L248.9,451.4z"/>
		</g>
		<g>
			<path fill="#2E2D2D" d="M264.8,457.1c0.2,0.6,0.2,1.2,0.2,1.2h0.1c0,0,0.1-0.6,0.2-1.2l1.8-7.6h2l-2.8,11.1H264l-1.7-6.5
				c-0.2-0.7-0.3-1.4-0.3-1.4h-0.1c0,0-0.1,0.7-0.3,1.4l-1.7,6.5h-2.3l-2.7-11.1h2l1.8,7.6c0.1,0.6,0.2,1.2,0.2,1.2h0.1
				c0,0,0.1-0.5,0.2-1.2l2-7.6h1.7L264.8,457.1z"/>
		</g>
	</g>
	<g>
		<path fill="#2E2D2D" d="M343.5,449.4c1.1,0,1.9,0.9,1.9,1.9c0,1.1-0.9,1.9-1.9,1.9c-1,0-1.9-0.9-1.9-1.9
			C341.7,450.3,342.5,449.4,343.5,449.4z M343.5,453c0.9,0,1.7-0.7,1.7-1.7c0-1-0.7-1.7-1.7-1.7c-0.9,0-1.7,0.7-1.7,1.7
			C341.9,452.3,342.6,453,343.5,453z M342.9,450.3h0.7c0.3,0,0.6,0.2,0.6,0.6c0,0.3-0.2,0.5-0.4,0.6l0,0c0,0,0,0,0.1,0.1l0.4,0.8
			H344l-0.5-0.9h-0.5v0.9h-0.2L342.9,450.3L342.9,450.3z M343.6,451.3c0.2,0,0.4-0.2,0.4-0.4s-0.2-0.4-0.4-0.4h-0.5v0.8L343.6,451.3
			L343.6,451.3z"/>
	</g>
</g>
<g>
	<path fill="#010101" d="M318.3,177.8h-1.1c-0.2,0-0.3,0.1-0.5,0.3c0,0.1-0.1,0.1-0.1,0.2c-1.5,10.7-10.8,18.9-21.8,18.9
		c-5.9,0-11.5-2.3-15.6-6.5c-4.2-4.2-6.5-9.7-6.5-15.6c0-12.2,10-22,22.2-22c10.9,0,20.4,8.2,21.8,18.9l0,0c0,0.3,0.2,0.5,0.5,0.5
		l0,0l0,0l0,0h1.1l0,0l0,0l0,0c0.3,0,0.5-0.3,0.5-0.5l0,0c0,0,0,0,0-0.1c-0.7-5.3-3-10-6.9-13.8c-4.6-4.6-10.6-7-17.1-7
		s-12.5,2.5-17.1,7c-4.6,4.6-7,10.6-7,16.9s2.5,12.5,7,16.9c4.6,4.6,10.6,7,17.1,7c6.4,0,12.5-2.5,17.1-7c3.8-3.8,6.1-8.5,6.9-13.8
		c0,0,0,0,0-0.1l0,0C318.8,178,318.6,177.8,318.3,177.8z"/>
	<path fill="#010101" d="M305.6,189.5h2.3l-7.1-28.9l0.1-0.1h3v-1.7c0-0.2-0.2-0.3-0.3-0.3h-17.5c-0.2,0-0.3,0.2-0.3,0.3v1.7h3
		l0.1,0.1l-7.2,28.9h2.3l4.1-16.4h0.2v16.4h6.6c4.7,0,8.5-3.8,8.5-8.5c0-0.3,0-0.5,0-0.7h0.1L305.6,189.5z M291,161.2
		c0.1-0.3,0.5-0.6,0.9-0.6h5.8c0.3,0,0.7,0.3,0.9,0.6l1.1,4.3l-0.1,0.1h-9.5l-0.1-0.1L291,161.2z M294.7,187.4L294.7,187.4h-3.8
		c-0.3,0-0.5-0.2-0.5-0.5v-11.7c0-0.3,0.2-0.5,0.5-0.5l0,0h3.8c3.5,0,6.4,2.8,6.4,6.3C301.1,184.5,298.2,187.4,294.7,187.4z
		 M302.5,177.8c-1.3-3.1-4.4-5.1-7.8-5.1h-6.4l-0.1-0.1l1-4.1c0.1-0.3,0.5-0.6,0.9-0.6h9.3c0.3,0,0.7,0.3,0.9,0.6L302.5,177.8
		L302.5,177.8z"/>
</g>
<g>
	<path fill="#231F20" d="M322.3,607.9c-0.5-0.3-1.1-0.5-1.6-0.8c-0.7-0.3-1.3-0.5-2-0.8c-0.5-0.2-0.9-0.5-0.8-1.1
		c0.1-0.5,0.5-0.8,1-0.9c1.2-0.4,2.4-0.1,3.5,0.3c0.4,0.2,0.7,0.2,0.9-0.3c0.7-1.1,1.5-2.2,2.2-3.3c-2.5-1.1-5-1.3-7.6-0.9
		c-1.8,0.3-3.5,1.1-4.7,2.6c-2.2,2.6-1.6,5.7,1.6,7.1c0.7,0.3,1.5,0.5,2.2,0.9c0.7,0.3,1.5,0.5,1.4,1.4c-0.1,0.9-0.9,1.1-1.7,1.3
		c-0.3,0.1-0.6,0-0.9-0.1c-1.2-0.2-2.2-0.6-3.2-1.3c-0.5-0.3-0.7-0.3-0.9,0.2c-0.6,1-1.3,2-2,2.9c-0.5,0.7-0.3,0.9,0.3,1.3
		c2.6,1.4,5.2,1.8,8,1.2c2.7-0.6,4.9-1.8,6.1-4.6C325,610.8,324.3,609,322.3,607.9z"/>
	<path fill="#231F20" d="M271,608.4c-0.3,0-0.5,0.1-0.7,0.3c-2,3-4.2,5.9-6.3,9.1c2.2,0,4.4,0,6.4,0c0.5,0,0.9-0.2,1.2-0.6
		c1.8-2.7,3.7-5.3,5.5-8c0.1-0.2,0.4-0.4,0.3-0.7C275.3,608.4,273.2,608.4,271,608.4z"/>
	<path d="M309.2,600.5c-1.1,0-2.4-0.3-3.4,0.1c-0.9,0.5-1.5,1.8-2.1,2.7c-0.7,0.9-1.3,1.8-2,2.8c0-1.8,0-3.4,0-5
		c0-0.5-0.1-0.7-0.7-0.7c-1.3,0.1-2.7-0.1-4,0.1c-0.9,0.1-1.1-0.2-1.1-1.1c0.1-8.8,0-17.5,0-26.3c0-0.3,0.1-0.7-0.1-1
		c-8,11.3-15.9,22.6-23.9,34.1c6,0,11.8,0,17.6,0c0.7,0,0.9,0.2,0.9,0.9c-0.1,3.3,0,6.6-0.1,9.9c0,0.5,0.1,0.8,0.7,0.8
		c1.4-0.1,2.8-0.1,4.2,0c0.7,0,0.8-0.2,0.8-0.8c-0.1-3.2,0-6.3,0-9.4c0-1.5-0.1-1.2,1.3-1.3c3.4,0,6.9,0,10.3,0
		c0.3,0,0.7,0.1,0.9-0.2c1.3-1.8,2.5-3.6,3.8-5.6C311.2,600.5,310.2,600.5,309.2,600.5z M290.3,591.1c0,2.9-0.1,5.7-0.1,8.6
		c0,0.6-0.1,0.8-0.7,0.7c-2-0.1-4.2,0-6.4,0c2.4-3.4,4.7-6.8,7.1-10.2C290.5,590.6,290.3,590.8,290.3,591.1z"/>
</g>
<rect x="224.5" fill="none" stroke="#010101" stroke-miterlimit="10" width="140" height="70"/>
<rect x="224.5" y="70" fill="none" stroke="#010101" stroke-miterlimit="10" width="140" height="70"/>
<rect x="224.5" y="140" fill="none" stroke="#010101" stroke-miterlimit="10" width="140" height="70"/>
<rect x="224.5" y="210" fill="none" stroke="#010101" stroke-miterlimit="10" width="140" height="70"/>
<rect x="224.5" y="280" fill="none" stroke="#010101" stroke-miterlimit="10" width="140" height="70"/>
<rect x="224.5" y="350" fill="none" stroke="#010101" stroke-miterlimit="10" width="140" height="70"/>
<rect x="224.5" y="420" fill="none" stroke="#010101" stroke-miterlimit="10" width="140" height="70"/>
<rect x="224.5" y="490" fill="none" stroke="#010101" stroke-miterlimit="10" width="140" height="70"/>
<rect x="224.5" y="560" fill="none" stroke="#010101" stroke-miterlimit="10" width="140" height="70"/>
<rect x="224.5" y="630" fill="none" stroke="#010101" stroke-miterlimit="10" width="140" height="70"/>
<rect x="224.5" y="700" fill="none" stroke="#010101" stroke-miterlimit="10" width="140" height="70"/>
<rect x="224.5" y="769.9" fill="none" stroke="#010101" stroke-miterlimit="10" width="140" height="70"/>
<rect x="224.5" y="840" fill="none" stroke="#010101" stroke-miterlimit="10" width="140" height="70"/>
<g>
	<path d="M299.6,927.6c2.9,0,5.8,0,8.7,0c0.6,0,0.6,0.5,0.7,0.8c1,3.7,2,7.5,3,11.2c0,0.1,0.1,0.2,0.2,0.4c0.6-2.4,1.2-4.5,1.8-6.7
		c0.5-1.7,0.9-3.4,1.4-5.1c0.1-0.4,0.2-0.6,0.7-0.6c2.8,0,5.6,0,8.6,0c-0.7,1.7-1.3,3.3-1.9,4.9c-1.5,3.9-3.1,7.8-4.7,11.7
		c-0.2,0.6-0.2,1,0,1.6c2.1,5.3,4.1,10.5,6.2,15.8c0.3,0.9,0.2,1-0.7,1c-2.4-0.1-4.8-0.1-7.1,0c-0.8,0-1.1-0.2-1.3-0.9
		c-0.9-3.5-1.8-7.1-2.8-10.6c-0.1-0.2-0.2-0.5-0.3-0.8c-1.1,4-2.2,7.8-3.2,11.7c-0.1,0.5-0.2,0.7-0.8,0.7c-2.8,0-5.6,0-8.5,0
		c0.4-1.1,0.8-2.1,1.2-3.1c1.8-4.5,3.6-9,5.4-13.5c0.3-0.6,0.2-1.2,0-1.8c-2.1-5.2-4.1-10.5-6.2-15.7
		C299.8,928.2,299.7,928,299.6,927.6z"/>
	<path d="M268,948.6c0,4.3,0,8.7,0,13c0,0.8-0.2,1-1,1c-2.1,0-4.2-0.1-6.3,0c-0.8,0-1-0.2-1-1c0.1-8.6,0-17.2,0.1-25.8
		c0-1-0.3-1.2-1.2-1.2c-1.6,0.1-3.3,0-5,0c-0.6,0-0.7-0.1-0.7-0.7c0-1.9,0-3.8,0-5.8c0-0.6,0.2-0.7,0.7-0.7c6.9,0,13.8,0,20.6,0
		c0.6,0,0.8,0.1,0.8,0.8c0,1.9,0,3.8,0,5.7c0,0.6-0.2,0.8-0.8,0.8c-1.8,0-3.6,0-5.5,0c-0.7,0-0.9,0.2-0.9,0.9
		C268,939.9,268,944.3,268,948.6z"/>
	<path d="M327.8,945c0-5.5,0-11,0-16.6c0-0.7,0.2-0.9,0.9-0.9c2.2,0,4.4,0,6.6,0c0.6,0,0.8,0.1,0.8,0.8c0,11.2-0.1,22.3-0.1,33.5
		c0,0.6-0.1,0.7-0.7,0.7c-2.2,0-4.5,0-6.7,0c-0.7,0-0.8-0.2-0.8-0.9C327.7,956.1,327.7,950.6,327.8,945
		C327.7,945,327.7,945,327.8,945z"/>
	<g>
		<path d="M298.4,960.2c-2.8-10.6-5.6-21.3-8.4-32c-0.2-0.6-0.4-0.8-1.1-0.8c-2.1,0-4.3,0.1-6.4,0c-0.8,0-1,0.3-1.2,0.9
			c-1.9,7.3-3.8,14.6-5.7,21.9c-1.1,4.1-2.1,8.2-3.2,12.3c2.7,0,5.3,0,7.9,0c0.5,0,0.6-0.2,0.7-0.6c0.3-1.8,0.7-3.6,1-5.5
			c0.1-0.7,0.4-0.9,1.1-0.9c1.7,0.1,3.4,0,5.1,0c0.5,0,0.8,0.1,0.9,0.7c0.3,1.8,0.6,3.6,1,5.5c0.1,0.4,0,0.8,0.6,0.8
			c2.8,0,5.6,0,8.5,0C298.8,961.7,298.6,961,298.4,960.2z M283.7,949.3c-0.3,0-0.4-0.1-0.3-0.4c0.7-3.7,1.4-7.4,2.1-11
			c0.1,0,0.1,0,0.2,0c0.7,3.8,1.4,7.6,2.1,11.4C286.3,949.3,285,949.2,283.7,949.3z"/>
	</g>
</g>
<rect x="224.5" y="910" fill="none" stroke="#010101" stroke-miterlimit="10" width="140" height="70"/>
</svg>
