<?xml version="1.0" encoding="utf-8"?>
<!-- Generator: Adobe Illustrator 18.1.1, SVG Export Plug-In . SVG Version: 6.00 Build 0)  -->
<svg version="1.1" id="Layer_1" xmlns="http://www.w3.org/2000/svg" xmlns:xlink="http://www.w3.org/1999/xlink" x="0px" y="0px"
	 viewBox="-219.5 383.4 186.2 26.8" enable-background="new -219.5 383.4 186.2 26.8" xml:space="preserve">
<g>
	<g>
		<g>
			<path fill="#2E2D2D" d="M-113.6,401.6h-6.8l-1.6,5h-3.6l6.8-19.4h3.7l6.8,19.4h-3.6L-113.6,401.6z M-117,390.6c0,0-0.4,1.9-0.8,3
				l-1.7,5.2h5.1l-1.7-5.2C-116.5,392.5-116.9,390.6-117,390.6L-117,390.6z"/>
		</g>
		<g>
			<path fill="#2E2D2D" d="M-103.1,387.2h6.2c2.1,0,3.1,0.2,3.9,0.5c1.9,0.9,3.2,2.7,3.2,5.3c0,2.3-1.2,4.5-3.3,5.3v0.1
				c0,0,0.3,0.3,0.7,1l4,7.2h-3.9l-3.8-7.2h-3.4v7.2h-3.5L-103.1,387.2L-103.1,387.2z M-96.4,396.3c1.9,0,3.1-1.1,3.1-3.1
				c0-1.9-0.8-3-3.5-3h-2.7v6.1L-96.4,396.3L-96.4,396.3z"/>
		</g>
		<g>
			<path fill="#2E2D2D" d="M-82.4,387.2h6.6c6,0,9.9,3.5,9.9,9.6c0,6.1-3.9,9.7-9.9,9.7h-6.6V387.2z M-76,403.5
				c3.9,0,6.4-2.3,6.4-6.7c0-4.3-2.6-6.6-6.4-6.6h-2.9v13.3H-76z"/>
		</g>
		<g>
			<path fill="#2E2D2D" d="M-59.7,401.6c0,0,2.1,2,4.8,2c1.5,0,2.8-0.8,2.8-2.3c0-3.5-9.1-2.9-9.1-8.8c0-3.2,2.8-5.6,6.5-5.6
				c3.8,0,5.8,2.1,5.8,2.1l-1.5,2.9c0,0-1.9-1.7-4.3-1.7c-1.6,0-2.9,1-2.9,2.3c0,3.4,9.1,2.6,9.1,8.8c0,3.1-2.3,5.7-6.4,5.7
				c-4.3,0-6.7-2.6-6.7-2.6L-59.7,401.6z"/>
		</g>
		<g>
			<path fill="#3C948B" d="M-153.2,387.2l-3.2,13.4c-0.2,1.1-0.3,2-0.3,2h-0.1c0,0-0.1-0.9-0.4-2l-3.4-13.4h-3.1l-3.5,13.4
				c-0.3,1.1-0.3,2-0.4,2h-0.1c0,0-0.1-1-0.3-2l-2.3-10l-1.7,7.3l2.2,8.7h4.1l3-11.4c0.3-1.3,0.5-2.5,0.5-2.5h0.1
				c0,0,0.2,1.3,0.5,2.5l3,11.4h4.1l5-19.4L-153.2,387.2L-153.2,387.2z"/>
		</g>
		<g>
			<path fill="#3C948B" d="M-131.4,387.2l-3.2,13.4c-0.2,1.1-0.3,2-0.3,2h-0.1c0,0-0.1-0.9-0.4-2l-3.4-13.4h-3l-3.5,13.4
				c-0.3,1.1-0.3,2-0.4,2h-0.1c0,0-0.1-1-0.3-2l-2.3-10.1l-1.7,7.3l2.2,8.7h4.1l3-11.4c0.3-1.3,0.5-2.5,0.5-2.5h0.1
				c0,0,0.2,1.3,0.5,2.5l3,11.4h4.1l5-19.4H-131.4L-131.4,387.2z"/>
		</g>
		<g>
			<path fill="#2E2D2D" d="M-203.4,401.6h-6.8l-1.6,5h-3.6l6.8-19.4h3.7l6.8,19.4h-3.6L-203.4,401.6z M-206.9,390.6
				c0,0-0.4,1.9-0.8,3l-1.7,5.2h5.1l-1.7-5.2C-206.4,392.5-206.8,390.6-206.9,390.6L-206.9,390.6z"/>
		</g>
		<g>
			<path fill="#2E2D2D" d="M-179,400.6c0.3,1.1,0.3,2,0.4,2h0.1c0,0,0.1-1,0.3-2l3.2-13.4h3.6l-5,19.4h-4.1l-3-11.4
				c-0.3-1.3-0.5-2.5-0.5-2.5h-0.1c0,0-0.2,1.3-0.5,2.5l-3,11.4h-4.1l-4.8-19.4h3.6l3.1,13.4c0.2,1.1,0.3,2,0.3,2h0.1
				c0,0,0.1-0.9,0.4-2l3.5-13.4h3L-179,400.6z"/>
		</g>
	</g>
	<g>
		<path fill="#2E2D2D" d="M-40.9,387.2c1.9,0,3.3,1.5,3.3,3.4c0,1.9-1.5,3.4-3.3,3.4c-1.8,0-3.3-1.5-3.3-3.4
			C-44.2,388.7-42.7,387.2-40.9,387.2z M-40.9,393.5c1.6,0,2.9-1.3,2.9-3c0-1.7-1.3-3-2.9-3c-1.6,0-2.9,1.3-2.9,3
			C-43.8,392.2-42.5,393.5-40.9,393.5z M-42,388.7h1.2c0.6,0,1.1,0.4,1.1,1.1c0,0.6-0.3,0.9-0.7,1v0c0,0,0,0,0.1,0.2l0.7,1.4H-40
			l-0.8-1.6h-0.8v1.6H-42L-42,388.7L-42,388.7z M-40.8,390.5c0.4,0,0.7-0.3,0.7-0.7c0-0.4-0.3-0.7-0.7-0.7h-0.8v1.4H-40.8z"/>
	</g>
</g>
</svg>
