<?xml version="1.0" encoding="utf-8"?>
<!-- Generator: Adobe Illustrator 18.1.1, SVG Export Plug-In . SVG Version: 6.00 Build 0)  -->
<svg version="1.1" id="Layer_1" xmlns="http://www.w3.org/2000/svg" xmlns:xlink="http://www.w3.org/1999/xlink" x="0px" y="0px"
	 viewBox="0 0 82 82.8" enable-background="new 0 0 82 82.8" xml:space="preserve">
<g>
	<g>
		<path fill="#171617" d="M47.9,14.2c2.1,3.8-1.9,4.3-2.5,7.7c0.1,0,0.2,0,0.3,0c0-0.1,0.3-0.3,0.7-0.5c0.8,0,1.4-0.9,1.8-1.9
			c0.5-0.3,0.9-0.6,1.2-0.5c0.2-0.1,0.1-0.3,0.2-0.3c0.1-0.3,0.2-0.7,0.3-0.9c1.2-3.2-1.1-4.5-3.6-4.5c-0.2,0-0.2,0.2-0.5,0.2
			c-0.7,0-1.4,0-2.2-0.1C43.8,14.9,46.9,14.2,47.9,14.2z M51.6,20.2c0.4-1,0.9-3.1-0.2-3.6c-0.6,1.8-1.3,3.6-2.9,4.8
			c-1.4,0.8-3.3,1.5-4,3C46.8,23.9,50,22.1,51.6,20.2z M25.3,38.2C25,37,24.3,36,23.7,34.9c-0.9-1.6-1.5-3.1-1.7-4.5
			c-0.2-1.6-0.1-2.8,2.5-4.6c2.6-3.5,1.4-7,3.7-8.9c0.8-0.7,2-1.1,3.9-1.4c0,0.1,0.1,0.1,0,0.2c-0.4,1.1-0.2-0.6-1.6,4
			c-1.4,3.6-6,6.7-5.2,11c0.5,1.3,1.3,2.9,1.9,4.4c0.3,1.8-0.5,2.9-0.1,4.6c0.2,1,1,2.4,2.2,4.2h0.2c-1.1-2-0.5-3.1,0.1-5.3
			c0.3-0.8,0.2-1.8,0.1-2.9c-3.2-8.1-1.4-5.4,1.9-13.4c0.1-1.1,0.2-2.3,0.4-3.2c0.1-0.6,0.5-1.1,0.7-1.6c1.9-4.1,5.7-4.6,10.6-0.4
			c2.6,2.4,0.1,4.2-0.3,7.1c0.1,0,0.2,0.1,0.3,0.1c0.1-0.9,0.6-1.6,1.4-2.4c0.8-0.8,1.1-2.4,1.5-3.4c0.2-0.4-0.2-0.7-0.3-1.1
			c-0.6-0.6-2.9-2.2-4-1.8c-2.1-1.2-3-1.8-5.4-1.8c0-0.1,0-0.3,0-0.4c2.7-1.4,3.8-1.5,6.4-0.1c0-0.1,0-0.2,0-0.3
			c-0.9-0.4-2.5-1.2-3.6-1.5c-0.9-0.1-1.9-0.2-4,1.1c-1.5,1-3.4,1.4-5.1,1.9c-1.8,0.5-3.2,1.1-4,1.6c-1.3,0.9-1.8,2.1-2.1,3.6
			c-0.4,2.2-1.2,4.7-3.3,7.3c-0.6,1.9-0.1,4.3,1.2,6.5C23,35.5,24.2,37.3,25.3,38.2z M53.5,16.3c1.8,2.9-1.5,6-4.1,7.1
			c0,0.1,0,0.1,0,0.2c1.9,0,4.9-1.2,6.4-2.6c1-0.8,1.2-2.1,0.3-3.5c-1-1.1-3.7-4.7-5.4-5.2c-0.2-0.1-0.4,0-0.6,0
			C50.8,14.1,52.2,14.9,53.5,16.3z M37.6,35.6c0.8-1.4,1.8-2.9,2.7-4.4c0.6-1,1.1-2.1,1.5-3c0.3-0.7,0.7-1.2,0.9-1.6
			c0-0.2-0.1-0.3,0-0.5h-0.3c-0.6,1.3-1.9,2-3.2,2.2c-1.9,2.6-3.6,2.4-4.8,2.4c0,1.1,0,1.9,0,2.5c0.2,0.6,0.7,0.8,0.9,1.9
			c0.1,0,0.3,0.1,0.4,0.1c0.2-0.8,0-2.2,0-2.6c0-1.1-1.5-0.2,2.9-2.7c0.1,0.3,0.2,0.5,0.1,0.8c-0.3,0.8-1.6,1.4-2.3,1.6v0.2
			c0.5,0,1.1-0.2,1.6,0.1c0,1.1-0.2,2-0.6,3.2C37.4,35.6,37.5,35.6,37.6,35.6z M58.6,24.8c1.3,0.5,2.2,1.3,3,2.4
			c0.3,0.4,0.8,0.6,1.3,0.9c0.4,1.3,0.3,2.6,0.2,4c0.6,0.1,1,0,1.4-0.2c1-0.5,1.5-1.4,1.4-2.1c0-0.2-0.1-0.5-0.2-0.7
			c-0.3-0.5-3-2.3-3.7-2.9c-1.6-1.4-1.8-1.5-3.4-1.6V24.8z M57.1,40.5v0.3c2.8-0.5,6-3.2,6.2-6.2c0.1-1.1-0.2-2.3-1.2-3.3
			c-2.6-1.9-2.5-2.1-3.5-5.2c-0.4-0.8-1.1-1.6-2.8-1.6c-0.6,0.5-2.1,0.5-3.9,0.2c-1,0.1-1.9,0.2-2.5,0.3c0.2,0.8,3.4,1.7,4.3,1.8
			c0.8-0.2,1.9-0.9,2.6,0.6c1.2,2.6,3.4,2.9,4.8,5.8c0.5,1,0,2.1-0.3,2.8c-0.8,1.5-1.7,3.1-3.4,3.7C57.5,40.2,57.5,40.3,57.1,40.5z
			 M56.8,16.2c2.5,1.1,3,1.8,2.6,2.4c-1.9,1.3-2.7,1.1-3.1,3.5c-2.6,0.4-2.5,0.4-4.4,2.2c0,0-0.1,0.1-0.1,0.1
			c0.1,0.1,0.7,0.3,0.8,0.3c1.9-0.3,1.8-1.4,5.8-1c0.6-0.8,0.7-0.9,0.6-2.5c1.6-1.1,2.3-1.7,2.1-3.9c-0.4-0.2-1.9-1.2-2.7-0.8
			c-0.9-0.7-1.8-1-2.2-1.1C56.4,15.8,56.4,15.9,56.8,16.2z M43.3,20.2c-0.6-1.3-0.7-1.5-2.3-1.7c-0.5,0-1.8-0.2-2.2-0.6
			c-0.6-0.4-0.9-0.6-1.4-0.8c-0.5-0.2-0.9-0.2-1.2-0.1c-0.4,0.1-0.7,0.3-0.9,0.6c-0.3,0.5-0.6,1.5-0.8,2.6c-0.2,0.9-1,1.4-1.6,2.1
			c0.1,0,0,0.3,0.1,0.2c2.4-0.8,1.8-5.2,4.2-5c1.4,1.8,1.1,2.2,3.4,2.5c1.3,0.3,0.9,2.4,0.4,2.9c0.1-0.1-0.1,0.2,0.1,0.3
			c0.2,0,0.7-0.2,0.9-0.3c0.1-0.9,0.4-1.5,0.8-1.8C43.1,20.8,43.3,20.4,43.3,20.2z M31.5,38.2c0.4-2.2,0.9-4.4,1.2-6.4h-0.3
			c-0.5,2-0.7,4.1-1,6.3C31.5,38.1,31.5,38.1,31.5,38.2z M31.5,27.4c-0.1,1.5-0.3,2.5,0.3,3.9h0.3c-0.3-1.5-0.4-2.5-0.3-3.9H31.5z
			 M71,42.3c-0.9,0.2-1.7,0.6-2.6,1c-3.1,1.6-5.5,4.8-7.4,7.5c-0.2,0.2-0.4,0.5-0.8,0.6c-0.3,0.1-0.8,0-1.2,0.1
			c-2.3,0.3-5.7,0-7.4,0.6c-2.3,0.8-3.3,1.7-3.9,3c-0.3,0.7-0.4,1.3-0.7,2.2c-0.1,0.3-0.2,0.7-0.5,0.9c-0.4,0.4-0.9,0.4-1.5,0.6
			c-4.3,0.6-7.5,1.1-10,2.4c-1.2,0.6-2.2,1.4-3.3,2.2c-1.7,1.3-3.4,2.8-5.4,5.1c-1.1,0.9-3.4,1.7-7,0.7c-0.8-0.1-1.4,0.2-1.7-0.1
			c-0.2-0.2,0-0.6,0.1-1c1.9-0.4,3.6-1,5.4-1.7c0-0.1,0-0.1,0-0.2c-0.8,0.1-1.4,0.5-2,0.6c-1,0.2-2,0.1-3.2,0.1
			c-0.4,0.1-0.9,0.2-1.1,0.4c-0.6,1.1-0.5,2.6-1.3,2.5C15,69,14.8,68.4,15,67.9c0.3-0.7,1.2-1.3,2.3-1.7c3-0.5,5.5-1.4,7.9-2.6
			c4.4-2.2,8.1-5.5,12.4-9.7c2.5-2,5.4-4,8.5-5.8c2.2-1.3,4.4-2.6,6.7-3.5c2.6-1,5.3-2.1,8-2.8c1.7-0.4,3.3-0.7,4.9-0.9v-0.2
			c-3.3-0.1-5.2-0.4-7.2,0.3c-1.2,0.5-2.6,0.9-4.5,1.3c-0.1-0.6,0.8-2.3,1.1-3.6c0.1-0.3,0-0.7,0-0.9c0.1-0.2,0.2-0.5,0.4-0.7
			c1.5-1.5,3.3-3.2,0.3-5.6c-3.7-1.6-5-1.4-7.2-5h-0.7c0,0.2,0,0.3-0.1,0.5c-0.7,0-0.6-1.5-0.6-1.8h-0.3c-0.1,0.1-0.1,0.2-0.2,0.3
			c-1,0.7-1.8,1.9-2.8,3.2c-1.3,1.9-2.7,4.3-3.8,6.4c-1.1,2.2-2,4.1-3.1,4.3c0,0.1,0,0.2-0.1,0.3c1.1,0,2.4-0.8,3.2-1.1
			c0.7,0.1,0.9,0.6,0.7,1.6c-2.2,1.7-3.8,1.6-6.6-0.3c0-0.1,0-0.3,0-0.4c0.4-0.3,0.8-0.7,1.3-0.9c0-0.2,0-0.3,0.1-0.5
			c-0.4,0-0.7,0.1-1.1,0.1c-0.7-0.3-1.3-0.5-1.4-0.2c-0.4,0.7-0.7,0.8-1.7,0.8c0.6,1.6,2,1.5,3.2,2c0.9,0.1,1.4,0.7,1,2.5
			c-0.3,0.1-0.4,0.3-0.7,0.5c-2.2,0.6-3.8,2.2-4.3,4.3c0.1,0,0.2,0,0.3-0.1c1.2-1.9,3.6-2.5,5.8-2.7c-0.3,0.8-2.1,1.6-3.6,2.8
			c-0.9,1.1-2,2.3-2.8,3.6c-0.1,0.1,0.1,0.2,0.1,0.3c0.1-0.1,0.3-0.2,0.4-0.3c0.2-0.1,0.3-0.4,0.5-0.6c1.4-0.9,2.3-1.1,4.7-1.3
			c0.8-0.1,1.6-0.3,1.8-0.8c0.6-1.8,1.6-3.1,4.2-3.9c0,0,0.1,0.1,0.1,0.2c-0.4,0.3-1.2,0.7-1.8,1.2c-0.6,0.9-1,1.4-1.4,1.8
			c0,0.1,0,0.2,0,0.3c0.1,0.1,0.1,0,0.2,0c0.7-1.7,6-2.9,7.7-3.3c0,0.1,0,0.2,0.1,0.2c-0.8,0.3-1.5,0.9-2.3,1.2
			c-1.4,0.7-2.9,1.5-4.3,2.4c-0.4,0.3-0.8,0.8-1.2,1.1c-0.7,0.5-1.6,1-2.4,1.5c-1.3,0.8-2.4,1.8-3.5,2.8c-3.3,2.8-6.4,5.8-9.7,8.1
			c-0.9,0.4-3.2,1.3-3.9,1.4c-0.3-0.1-0.6,0-0.9-0.1c-1.7-0.7-2.8-1.3-5.7,0v0.3c0.6-0.1,1.2-0.1,1.7-0.1c0,0.3-0.3,0.5-0.7,0.5
			c-0.9,0-1.8,0.5-2.3,1.1c-1.3,1.7-1.2,2.9-0.3,3.8c0.4,0.4,1.1,0.6,1.8,0.9c0.6,0.2,1.1,0.6,1.7,0.9c1.5-0.4,2.7-0.7,4.3-0.7
			c1.7,0.4,3,0.8,5,0.5c0.7-0.1,1.3,0.1,2.1-0.1c0.4-0.2,2.1-0.4,4.2-0.2c0,0,0.1,0,0.1,0c1.3-0.7,0.9-2.6,0.9-2.9c0,0,0,0,0-0.1
			c0,0,0,0,0,0c0,0,0,0,0,0c0,0,0-0.1,0-0.1c0-0.1,0-0.2,0.1-0.3c0,0,0-0.1,0-0.1c0,0,0,0,0,0c0-0.1,0.1-0.2,0.1-0.2l0,0
			c0.4-0.8,1.4-1.7,2.6-2.4c2.5-1.4,5.9-2.6,6.8-2.7c1.7,0,3.8,0.2,5.6-0.1c1.2-0.2,2.1-0.7,3-1.1c0.8-0.4,1.5-0.8,2-1.5
			c0.3-0.5,0.5-1.8,0.6-2.4c0.2-0.4,0.3-0.9,0.9-1.1c1.3-0.6,3.5-0.6,5.7-0.3c3.9,0.5,7.1-0.8,8.5-3.2c0-1.2,0.7-2.9,1.6-3.2
			c0.2-0.1,0.2-0.4,0.2-0.4c-1.2-1.8,0-3.9,1.1-5.2c0.2-0.3,0.5-0.5,0.6-0.7C71,42.4,70.9,42.4,71,42.3z M45.6,39.8v-6.3
			c-0.1,0-0.2,0-0.3,0c-1.4,1.6-2.5,2.5-2.9,5.2c-0.6-0.1-1.2-0.3-1.7-0.5c-0.2-1.2,0.8-1.7,1.7-2.7c0.8-0.8,1.5-1.7,2.3-2.6
			c1.3-1.3,2.1-2.7,2.4-3.3c0.1,0,0.3,0,0.4,0.1c0.1,2.9,1.5,4.4,1.7,4.9c0,0.2-0.1,0.3-0.3,0.6c-0.2,0.4-0.9,0.7-1.5,1.2
			c-1,1.9-1,1.9-1.7,3.4C45.9,39.8,45.8,39.8,45.6,39.8z M47,42.6c0.5-0.9,1.4-1,1.6-2.4c0.2-1.1,0.7-1.6,1.7-1.9
			c0.4-0.1,0.8-0.3,1.3-0.5c0.5-0.4,0.8-0.8,0.8-1.2c0-0.5,0-1.1,0-1.6c-0.9-1.2-3-3-2.9-4.7c0.6,0.5,0.9,1.1,3.9,2
			c1.2,0.7,2.1,1.7,1.4,2.8c-1.7,1-2,1.6-2.2,3c-0.1,0.7-0.3,1.6-0.6,2.2c-0.8,1.4-2.4,2.4-4.4,2.4C47.3,42.8,47.1,42.6,47,42.6z
			 M14,66.9c-0.2,0.3-0.4,0.7-0.6,0.9c-0.3,0.2-0.6,0.3-0.7,0.3c-1-1.2,0-2.4,1.3-2.6c1-0.1,1.9-0.7,2.2-0.4
			c-0.1,0.1-0.2,0.2-0.4,0.3C15.2,65.7,14.4,66.1,14,66.9z"/>
	</g>
</g>
</svg>
