<?xml version="1.0" encoding="utf-8"?>
<!-- Generator: Adobe Illustrator 18.1.1, SVG Export Plug-In . SVG Version: 6.00 Build 0)  -->
<svg version="1.1" id="Layer_1" xmlns="http://www.w3.org/2000/svg" xmlns:xlink="http://www.w3.org/1999/xlink" x="0px" y="0px"
	 viewBox="0 0 166.7 57.7" enable-background="new 0 0 166.7 57.7" xml:space="preserve">
<path fill="#010101" d="M100.7,21.3H96v16.9h4.8V21.3z M90.7,37.2H72.5V21.3h-4.8v16.9h23V37.2z M60.6,31.8l-4.8-0.1
	c-1.2,3.5-5.7,5.6-12.1,5.6c-7.9,0-12.4-2.8-12.4-7.6c0-5.2,6.4-7.6,12.4-7.6c5.1,0,10.8,1.8,12.1,5.8l4.8-0.1
	c-1.4-4.2-7.9-6.8-16.9-6.8c-10.5,0-17.2,3.4-17.2,8.6c0,7.1,9.4,8.6,17.2,8.6C48.1,38.4,58.6,37.8,60.6,31.8 M125.1,22.2
	c-6,0-12.4,2.4-12.4,7.6c0,4.8,4.5,7.6,12.4,7.6c7.6,0,12.4-3,12.4-7.6C137.6,24.6,131.1,22.2,125.1,22.2 M125.1,38.4
	c-7.9,0-17.2-1.5-17.2-8.6c0-5.2,6.8-8.6,17.2-8.6c10.5,0,17.2,3.4,17.2,8.6C142.4,37.6,130.3,38.4,125.1,38.4"/>
<g>
	<path fill="#010101" d="M99.7,20.4h-4.8v16.9h4.8V20.4z M89.7,36.2H71.4V20.4h-4.8v16.9h23V36.2z M59.5,30.8l-4.8-0.1
		c-1.2,3.5-5.7,5.6-12.1,5.6c-7.9,0-12.4-2.8-12.4-7.6c0-5.2,6.4-7.6,12.4-7.6c5.1,0,10.8,1.8,12.1,5.8l4.8-0.1
		c-1.4-4.2-7.9-6.8-16.9-6.8c-10.5,0-17.2,3.4-17.2,8.6c0,7.1,9.4,8.6,17.2,8.6C47,37.5,57.6,36.8,59.5,30.8 M124.1,21.3
		c-6,0-12.4,2.4-12.4,7.6c0,4.8,4.5,7.6,12.4,7.6c7.6,0,12.4-3,12.4-7.6C136.5,23.7,130.1,21.3,124.1,21.3 M124.1,37.5
		c-7.9,0-17.2-1.5-17.2-8.6c0-5.2,6.8-8.6,17.2-8.6c10.5,0,17.2,3.4,17.2,8.6C141.3,36.6,129.3,37.5,124.1,37.5"/>
</g>
</svg>
