<?xml version="1.0" encoding="utf-8"?>
<!-- Generator: Adobe Illustrator 18.1.1, SVG Export Plug-In . SVG Version: 6.00 Build 0)  -->
<svg version="1.1" id="Layer_1" xmlns="http://www.w3.org/2000/svg" xmlns:xlink="http://www.w3.org/1999/xlink" x="0px" y="0px"
	 viewBox="0 0 612 792" enable-background="new 0 0 612 792" xml:space="preserve">
<g>
	<path fill="#010101" d="M304.4,654.2c-3.5-2.6-7.5-4.3-10.7-7.4c-1.9-1.9-2.9-3.8-2.7-6.5c0.2-2.4,0-4.9,0-7.4c0-0.5,0-1.1,0.5-1.3
		c0.5-0.3,0.8,0.3,1.2,0.6c10.1,9.1,22.4,12.4,35.5,13.7c14.4,1.5,28.6,0.6,42.3-4.1c3.8-1.3,7.5-3,10.5-5.7c5-4.4,5-9.5-0.2-13.6
		c-6.1-4.9-13.5-6.9-21-8.5c-6-1.3-12.2-2-18.4-1.9c-1,0-2.2,0.1-2.1-1.3c0-1.4,1.2-1.4,2.2-1.3c10.3,0.4,20.5,1.4,30.2,5.2
		c4.3,1.7,8.3,3.8,12,6.7c3,2.3,4.5,5.3,4.4,9.1c-0.1,3.5-0.1,7.1,0,10.6c0.1,2.4-0.8,4-2.3,5.7c-2.9,3.1-6.8,4.7-10,7.3
		C351.9,665.7,325.8,664.5,304.4,654.2z"/>
	<path fill="#040404" d="M332.6,129.6c-0.1,0.4-0.3,0.7-0.7,0.7c-6.8,0.3-10.9,4.7-14.5,9.8c-4.8,6.9-6.9,14.8-7.8,23
		c-0.9,8.9,0,17.5,3.7,25.8c0.3,0.6-0.1,0.7-0.6,0.7c-6.9-11.2-9.8-23.1-6.6-36.1c2.8-11.2,9.1-19.5,20.1-24
		C328.3,129.6,330.5,129.6,332.6,129.6z"/>
	<path fill="#010101" d="M339.4,511.9c5.8-17.5,11.6-34.5,10.9-52.9c-0.4-10-4-19.3-7.9-28.4c-5-11.5-11.3-22.3-18.2-32.8
		c-0.3-0.5-0.7-1-1-1.5c-0.2-0.4-0.6-0.8-0.1-1.3c0.5-0.4,0.9,0,1.2,0.4c0.9,1.1,1.9,2.3,2.7,3.5c8.7,11.6,16.1,23.8,22.1,36.9
		c6.2,13.6,7,27.7,5.6,42.2c-2.3,24.1-10.5,46.6-17.7,69.4c-4.3,13.7-9.2,27.2-11.9,41.4c-1.8,9.5-2,18.9,2.1,27.9
		c2,4.5,5,8.2,9.2,10.7c2.3,1.4,4.7,2.5,7.5,1.4c0.7-0.3,1.6-0.5,2,0.5c0.4,1-0.5,1.4-1.1,1.8c-2,1.2-4,1.3-6.2,0.5
		c-6.5-2.5-10.4-7.5-13.2-13.5c-4.6-9.8-5.2-20.2-4.9-30.7c0.6-22.1,7.2-42.9,14.5-63.5c1.3-3.5,1.2-6.4-0.4-9.7
		c-7.5-15.7-16.2-30.8-24.4-46.1c-6.8-12.9-14.6-25.3-20.1-38.8c-5.8-14.1-9.7-28.5-9-43.9c0.4-8.2,2.7-15.8,8.2-22.2
		c2.9-3.4,6.5-4.7,9.6-3.5c0.8,0.3,1.8,0.6,1.6,1.7c-0.2,1-1.1,0.8-1.9,0.8c-4.7,0-7.9,2.4-10.4,6.1c-5.4,8.3-6.5,17.2-4.1,26.7
		c3.4,13.6,9.8,25.9,16.7,38c10,17.6,20.8,34.7,29,53.3c3.3,7.5,6.2,15.2,8.5,23.1C338.7,510.3,339,510.9,339.4,511.9z"/>
	<path fill="#010101" d="M356.6,253.6c-6.3-2-11.7-5.1-17.8-6.8c-6.5-1.8-11.5,0.1-15.3,5.6c-2.1,3.1-4,6.3-6.3,9.2
		c-4.8,6.2-11,7.9-18.3,4.9c-8.3-3.5-13.3-9.8-14.9-18.6c-0.7-3.8,1-6.9,4.1-9.1c5.5-3.9,14.9-4.1,20.7-0.5c3.2,2.1,4.6,5.8,3,7.9
		c-1.8,2.4-5.1,2.1-8.3-0.6c-2-1.7-3.5-4-5.9-5.3c-5.1-2.9-11.2-0.3-11.9,5.4c-0.5,3.7,1.4,6.7,4.4,8.7c7,4.8,21.2,7.2,30.3-1.5
		c2.2-2.1,4.3-4.3,6.5-6.4c4.5-4.3,9.7-5.8,15.6-3.3c6.8,2.9,13.6,5.9,20.5,8.7c4,1.6,8.1,2.9,12.6,2.1c3-0.6,3.6-1.9,2.1-4.5
		c-1.1-2-2.9-3.2-4.8-4.3c-7.9-4.7-16.7-6.9-25.6-9c-16.2-3.7-32.6-5.4-48.9-8.2c-17.8-3.1-35.3-7.1-51-16.5
		c-7.3-4.4-14-9.4-18.7-16.6c-2.3-3.5-4-7.2-4.6-11.3c-0.1-0.8-0.2-1.8,0.8-1.9c1-0.1,1.1,0.9,1.2,1.7c1.2,10.7,8,17.3,16.8,22.3
		c9.9,5.7,20.8,8.1,31.9,10.2c20.4,3.8,41.1,5.9,61.2,11.2c13.8,3.6,27.1,8.3,38.6,17.1c1.6,1.2,3,2.6,4,4.2
		c2.3,3.6,1.4,6.1-2.7,7.3c-4.2,1.2-8.4,0.8-12.5-0.1c-5.4-1.2-5.5-1.3-8.6,3.2c-19.3,28.3-21.2,57.9-6.5,88.6
		c4.1,8.5,8.9,16.5,13.1,24.9c5.1,10,5.3,20.3,1.3,30.7c-0.2,0.5-0.4,0.9-0.5,1.4c-0.2,0.6-0.5,1.3-1.2,1.1
		c-0.9-0.3-0.5-1.1-0.4-1.7c0.7-3.6,1-7.2,1-10.8c0-9.4-2.6-18.2-7.1-26.4c-3.3-6-6.8-11.9-10.5-17.7c-15.5-24.2-15.4-48.7-1.8-73.6
		C346.4,267.7,351,260.6,356.6,253.6z"/>
	<path fill="#020202" d="M315.5,192.7c0.5,0.4,0.6,1.5,1.7,0.5c11.1-10.3,19.7-22.1,21.3-37.7c0.7-6.4,0.2-7.2-3.9-15.2
		c1.4-0.2,1.9,1,2.5,1.7c5.1,6.7,5.9,14.1,4.8,22.3c-3.6,25-25.1,41.2-46.4,44.9c-4.7,0.8-9.4,1.7-14.3,1.9c-0.5,0-0.9-0.1-1.5-0.8
		c2.4-0.4,4.8-0.7,7.2-1.1c10.7-1.8,19.6-7.1,27.8-13.8c1-0.8,0.7-1.4,0.2-2.2C314.7,192.7,315,192.6,315.5,192.7z"/>
	<path fill="#464343" d="M315.5,192.7c-0.2,0.2-0.4,0.4-0.6,0.6c-1-1-1.7-2.3-2.2-3.6c0.2-0.2,0.4-0.5,0.6-0.7
		C314.1,190.2,314.8,191.5,315.5,192.7z"/>
</g>
</svg>
