<?xml version="1.0" encoding="utf-8"?>
<!-- Generator: Adobe Illustrator 18.1.1, SVG Export Plug-In . SVG Version: 6.00 Build 0)  -->
<svg version="1.1" id="Layer_1" xmlns="http://www.w3.org/2000/svg" xmlns:xlink="http://www.w3.org/1999/xlink" x="0px" y="0px"
	 viewBox="0 0 524.4 183.3" enable-background="new 0 0 524.4 183.3" xml:space="preserve">
<g>
	<path fill="#1D1B1B" d="M499.8,73.9c-6.1-12-16.5-18.4-30.4-18.4c-5.9,0-6.2-0.3-6.3-6.2c-0.5-20.2-15-34.5-35.6-34.6
		c-32.7-0.1-65.3-0.2-98,0c-14.7,0.1-25.9,6.6-32.6,20.1c-2.2,4.5-4.4,9-6.7,13.4c-0.7,1.3-0.9,3.4-2.5,3.4c-1.9,0-2.2-2.2-2.9-3.6
		c-2.3-4.4-4.5-8.9-6.7-13.4c-6.5-12.7-17.2-19.8-31.3-19.7c-14.1,0.1-24.6,7.2-30.9,20.1c-2.2,4.5-4.4,9-6.7,13.4
		c-0.6,1.2-0.8,3.3-2.7,3.2c-1.4-0.1-1.7-1.9-2.3-3c-2.2-4.3-4.4-8.6-6.5-13c-7-14.2-18.5-21-34.1-21c-25.3-0.1-50.7-0.1-76,0
		C66,14.6,51.8,28.4,51,49.9c-0.2,5.2-0.4,5.5-5.9,5.5c-5.1,0-9.9,0.7-14.6,2.9c-11.1,5.5-17.8,14.1-18.9,26.7c0,0.3,0,0.7,0,1
		c1.6,2.3,1.7,4.7,0,7c0,0.3,0,0.7,0,1c1.1,3.6,0.8,7.5,2.8,10.9c6.8,12.4,17.4,18.3,31.3,18.5c4.1,0,5.7,1.4,5.5,5.5
		c-0.3,6.4,1.3,12.4,4.6,18.1c5.6,9.6,13.9,14.8,24.9,16c2.3,0,4.7,0,7,0c0.7-0.6,1.5-0.5,2.4-0.5c9.9-0.3,17.4-5,22.9-13.1
		c4.3-6.2,6.7-13,6.3-20.6c-0.2-3.8,1.3-5.5,5.2-5.3c3.6,0.2,7.3,0,11,0c7.6,0,15.4,0.7,22.7-2.4c4.2-1.8,6-0.3,7.7,3.3
		c3.3,6.9,6.4,13.9,10.3,20.5c6.1,10.1,13.8,18,26.9,17.5c2.4,0,4.7,0,7.1,0c7.8,0.3,14.2-2.7,19.7-8c8.7-8.5,12.4-19.9,17.7-30.4
		c-0.2,0.7,0,1.4,0.3,2c3.8,7.7,6.9,15.9,12,22.9c6,8.2,13.5,14.3,24.5,13.5c2.3,0,4.6,0,6.9,0c12.6,0.3,20.4-7.3,26.9-17.1
		c6.5,11.4,15.4,17.8,28.5,17.1c28,0,55.9,0,83.9,0c8,0.5,15.1-1.5,21.2-6.9c7.5-6.7,11.3-15.1,11.5-25.1c0.2-6.6,0.2-6.6,6.7-6.9
		c11.3-0.5,20.7-5,27.3-14.3C505.1,98.2,506,85.8,499.8,73.9z M475.5,97.6c-2.2,1.7-4.9,1.9-7.6,1.9c-8,0-16,0.2-24-0.1
		c-3.9-0.2-4.7,1.2-4.6,4.8c0.3,7.8,0.1,15.7,0.1,23.5c0,8.4-3.9,12.3-12.2,12.3c-25.7,0-51.3,0-77,0c-8.4,0-12.2-3.7-12.2-12.2
		c-0.1-12.2-0.1-24.3,0-36.5c0.1-8.4,3.9-12.2,12.3-12.2c21.3,0,42.7-0.1,64,0.1c3.5,0,5.1-0.6,4.7-4.5c-0.4-3.8-0.4-7.7,0-11.5
		c0.3-3.7-1.1-4.3-4.5-4.3c-25.3,0.1-50.7,0.1-76,0c-3.3,0-4.9,0.9-6.4,3.9c-11.3,23.1-23,46-34.4,69c-2.2,4.5-4.9,8.1-10.3,8.1
		c-5.4,0-8.1-3.5-10.3-8c-9.8-19.9-19.9-39.8-30.2-60.4c-10,19.9-19.6,39.2-29.3,58.5c-0.4,0.7-0.8,1.5-1.1,2.2
		c-1.9,4.4-4.9,7.6-10.1,7.6c-5.1,0-8-3.2-10.1-7.5c-11.4-23-23.1-46-34.4-69c-1.6-3.3-3.4-4.5-7.1-4.5c-18.2,0.2-36.3,0.3-54.5,0
		c-4.6-0.1-5.6,1.4-5.2,5.5c0.3,3.6,0.3,7.3,0,11c-0.3,3.2,0.9,3.8,3.9,3.8c15.2-0.1,30.3-0.1,45.5,0c5.4,0,9.6,2.9,10.8,7.2
		c1.3,4.5-0.6,9.3-4.6,11.7c-2.4,1.5-5.1,1.4-7.7,1.4c-14.5,0-29,0.1-43.5-0.1c-3.5,0-4.6,0.9-4.5,4.4c0.3,8,0.1,16,0.1,24
		c-0.1,7.4-4.2,12.2-10.3,12.2c-6.1-0.1-10.1-4.9-10.2-12.3c0-7.8-0.2-15.7,0.1-23.5c0.1-3.6-0.7-5-4.6-4.8c-8,0.3-16,0.2-24,0.1
		c-7.3-0.1-11.7-3.9-11.8-10c-0.1-6.3,4.6-10.3,12-10.3c8.2,0,16.3-0.2,24.5,0.1c3.2,0.1,3.9-0.9,3.8-3.9
		c-0.2-8.2-0.1-16.3-0.1-24.5c0.1-8.1,3.9-11.9,12-11.9c25.8,0,51.7,0.1,77.5-0.1c5.8,0,9.3,2.3,11.8,7.4c9.9,20.1,20,40,30,60
		c1.9-0.5,2-2.2,2.6-3.5c9.2-18.4,18.5-36.7,27.6-55.1c2.3-4.7,4.8-8.8,10.8-8.7c5.8,0.1,8.2,4,10.5,8.5
		c9.7,19.6,19.6,39.2,29.4,58.8c1.9-0.3,2-2.1,2.6-3.3c9.4-18.7,18.8-37.3,28-56.1c2.7-5.6,6.5-8.1,12.9-8
		c32.2,0.2,64.3,0.1,96.5,0.1c8.7,0,12.4,3.7,12.4,12.4c0,8,0.1,16-0.1,24c-0.1,3,0.6,4,3.8,3.9c8.7-0.2,17.3-0.2,26,0
		c5,0.1,8.7,2.5,10.2,7.3C480.6,90.9,479.2,94.8,475.5,97.6z"/>
	<path d="M11.6,86.1c0,2.3,0,4.7,0,7C13.3,90.7,13.2,88.4,11.6,86.1z"/>
	<path fill="#FFFFFD" d="M469.1,79.2c-8.7-0.1-17.3-0.2-26,0c-3.2,0.1-3.9-0.9-3.8-3.9c0.2-8,0.1-16,0.1-24
		c0-8.7-3.7-12.4-12.4-12.4c-32.2,0-64.3,0.1-96.5-0.1c-6.4,0-10.2,2.4-12.9,8c-9.2,18.8-18.6,37.4-28,56.1c-0.6,1.2-0.7,3-2.6,3.3
		c-9.8-19.6-19.6-39.2-29.4-58.8c-2.2-4.5-4.7-8.5-10.5-8.5c-6.1-0.1-8.5,4.1-10.8,8.7c-9.1,18.4-18.4,36.8-27.6,55.1
		c-0.6,1.2-0.7,3-2.6,3.5c-10-20-20.1-40-30-60c-2.5-5-6-7.4-11.8-7.4c-25.8,0.2-51.7,0.1-77.5,0.1c-8,0-11.9,3.8-12,11.9
		c-0.1,8.2-0.1,16.3,0.1,24.5c0.1,3-0.6,4-3.8,3.9c-8.2-0.2-16.3-0.1-24.5-0.1c-7.5,0-12.1,4-12,10.3c0,6.1,4.4,9.9,11.8,10
		c8,0.1,16,0.2,24-0.1c3.9-0.2,4.7,1.2,4.6,4.8c-0.3,7.8-0.1,15.7-0.1,23.5c0,7.4,4.1,12.3,10.2,12.3c6.1,0.1,10.2-4.7,10.3-12.2
		c0.1-8,0.2-16-0.1-24c-0.1-3.5,1-4.5,4.5-4.4c14.5,0.2,29,0.1,43.5,0.1c2.7,0,5.3,0,7.7-1.4c4-2.4,5.9-7.2,4.6-11.7
		c-1.2-4.3-5.4-7.2-10.8-7.2c-15.2-0.1-30.3-0.1-45.5,0c-3,0-4.2-0.6-3.9-3.8c0.3-3.6,0.3-7.4,0-11c-0.4-4.2,0.6-5.6,5.2-5.5
		c18.2,0.3,36.3,0.3,54.5,0c3.7,0,5.5,1.1,7.1,4.5c11.3,23.1,23,46,34.4,69c2.2,4.4,5,7.5,10.1,7.5c5.2,0,8.1-3.2,10.1-7.6
		c0.3-0.8,0.7-1.5,1.1-2.2c9.7-19.3,19.3-38.6,29.3-58.5c10.3,20.6,20.3,40.5,30.2,60.4c2.2,4.5,4.9,8,10.3,8
		c5.4,0,8.1-3.6,10.3-8.1c11.4-23,23.1-46,34.4-69c1.5-3,3.1-3.9,6.4-3.9c25.3,0.1,50.7,0.1,76,0c3.3,0,4.8,0.5,4.5,4.3
		c-0.4,3.8-0.4,7.7,0,11.5c0.4,4-1.2,4.6-4.7,4.5c-21.3-0.2-42.7-0.1-64-0.1c-8.3,0-12.2,3.8-12.3,12.2c-0.1,12.2-0.1,24.3,0,36.5
		c0.1,8.5,3.8,12.2,12.2,12.2c25.7,0,51.3,0,77,0c8.2,0,12.1-3.9,12.2-12.3c0-7.8,0.2-15.7-0.1-23.5c-0.1-3.6,0.7-5,4.6-4.8
		c8,0.3,16,0.1,24,0.1c2.7,0,5.4-0.2,7.6-1.9c3.7-2.8,5.1-6.7,3.8-11.1C477.8,81.8,474.1,79.3,469.1,79.2z M414.6,120
		c-8.7-0.3-17.3-0.1-26-0.1c-8.7,0-17.3-0.2-26,0.1c-3.6,0.1-4.5-1.1-4.3-4.5c0.3-4.1,0.2-8.3,0-12.5c-0.1-2.5,0.5-3.5,3.3-3.5
		c18,0.1,36,0.1,54,0c2.7,0,3.5,0.9,3.4,3.5c-0.2,4.2-0.2,8.3,0,12.5C419.2,118.9,418.3,120.1,414.6,120z"/>
	<path fill="#1E1C1C" d="M419,103c0.1-2.6-0.7-3.5-3.4-3.5c-18,0.1-36,0.1-54,0c-2.8,0-3.4,1-3.3,3.5c0.2,4.2,0.3,8.3,0,12.5
		c-0.2,3.4,0.7,4.6,4.3,4.5c8.7-0.3,17.3-0.1,26-0.1c8.7,0,17.3-0.2,26,0.1c3.6,0.1,4.6-1.1,4.4-4.5
		C418.8,111.3,418.8,107.1,419,103z"/>
</g>
</svg>
