<?xml version="1.0" encoding="utf-8"?>
<!-- Generator: Adobe Illustrator 18.1.1, SVG Export Plug-In . SVG Version: 6.00 Build 0)  -->
<svg version="1.1" id="Layer_1" xmlns="http://www.w3.org/2000/svg" xmlns:xlink="http://www.w3.org/1999/xlink" x="0px" y="0px"
	 viewBox="0 0 612 792" enable-background="new 0 0 612 792" xml:space="preserve">
<g>
	<path fill="#7C7C7C" d="M47.8,157.3c0.9-0.1,1.7,0.3,2,1.2c0.3,0.9-0.5,1.4-1,1.8c-2.7,2.3-4.5,5.1-5.2,8.6
		c-0.1,0.6-0.3,1.3-0.8,1.6c-3,2.6-4.1,6.6-6.9,9.4c-4.3,4.1-6.7,9.4-9.8,14.3c-1.4,2.1-2.6,4.3-3.9,6.4c-0.7,1.2-1.6,2.3-3.3,1.6
		c-1.2-0.5-2-2.8-1.4-4.2c0.5-1.3,1.5-2.2,2.5-3.1c4.5-4.2,7.9-9.1,8.3-15.6c0.1-1.4,0.8-2.7,1.8-3.7c1.2-1.3,2.3-2.5,3.6-3.6
		c2.5-2.2,3.8-4.9,3.9-8.2c0-1.6,0.2-3.2,0.4-4.7c0.3-2.2,1-4.3,2.7-5.8c2-1.8,3.3-4,4.4-6.4c4.7-10.6,9.9-21,17.1-30.3
		c2.1-2.7,4.4-5.2,7.4-7.1c2.1-1.3,4.3-1.9,6.8-1.4c5.9,1.1,11.8,2.1,17.7,3.1c2.3,0.4,3.9-0.6,4.1-3c0.2-3-0.3-6-1.5-8.8
		c-0.5-1.2-1.3-2.1-2.6-2.7c-1.1-0.5-2.4-1.2-2.2-2.6c0.1-1.4,1-2.6,2.7-2.8c2.1-0.2,3.4-2,5.4-2.6c1.8-0.5,2.1,0.1,1.7,1.6
		c-0.1,0.3,0,0.6-0.1,0.9c-1,5.4,1.8,8.9,6,11.7c2.7,1.8,5,4.1,7.1,6.8c2.4,3.2,5,6.5,8.6,8.6c1.1,0.6,1.8,1.6,2.1,2.9
		c0.7,3.8,1.1,7.6,0.3,11.6c-0.6,3.4-1,7.2,0.9,10.6c0.1,0.2,0.2,0.3,0.2,0.5c1.3,9.2,1.4,18.2-3.6,26.5c-0.8,1.4-1.6,2.8-2.3,4.2
		c-0.5,0.8-0.7,1.7-0.5,2.6c0.4,1.6-0.5,2.8-0.8,4.2c-0.1,0.5-0.5,0.6-1,0.6c-2.9,0.2-3.9-0.7-4-3.6c-1,0-1.4,1.2-2.4,1.1
		c-0.5,0-1.1,0.1-1.5-0.5c-0.3-0.5,0.1-0.9,0.4-1.3c0.2-0.2,0.4-0.5,0.6-0.7c1.3-1,1.4-1.6-0.4-1.8c-1.3-0.1-1.1-0.8-0.6-1.6
		c0.8-1.3,2.2-1.9,3.2-3c0.4-0.4,1-0.8,0.8-1.3c-0.2-0.7-0.9-0.3-1.4-0.5c-0.8-0.2-1.8-0.2-2.1-1.2c-0.3-1,0.6-1.5,1.3-2.1
		c0.9-0.8,1.9-1.6,2.7-2.5c0.9-1.1,1.1-2.4,0.4-3.4c-1.3-1.8-2-4.1-3.6-5.7c-0.5-0.5-0.9-1.1-1.7-1.4c-0.7-0.3-1-0.8-0.9-1.6
		c0.1-0.8,0.8-0.9,1.3-1c0.6-0.1,1.2-0.2,1.8-0.4c0-0.7-0.7-0.7-1-0.9c-1.8-0.9-2.1-2.5-0.7-4c0.7-0.7,1.4-1.3,2-2.2
		c0.5-0.7,0.1-1.3-0.3-1.8c-0.6-0.7-0.9,0.1-1.3,0.4c-0.2,0.1-0.4,0.3-0.5,0.5c-2.2,2-2.3,2.1-3-0.8c-0.4-1.4-1-0.8-1.7-0.4
		c-0.4,0.2-0.4,0.7-0.7,1.1c-0.4,0.5-1,1-1.5,0.8c-0.5-0.2-0.5-0.9-0.5-1.5c0-0.5,0.2-1.1,0.2-1.6c0-0.5,0-1,0-1.4
		c-0.8-0.1-0.9,0.5-1.2,0.8c-2.1,3-5.3,3.5-8.2,1.5c-1.5-1-1.7-2.8-2.3-4.3c-0.2-0.6,0.4-1,0.8-1.3c0.7-0.6,1.4-1.1,2.2-1.7
		c-0.6-0.5-1.2-0.4-1.8-0.5c-1.7-0.1-2.6-1.8-1.6-3.2c0.6-0.9,0.4-1.3-0.5-1.3c-2.8,0-5-1.4-7.2-2.9c-1.2-0.8-2-0.4-2.7,0.8
		c-1.1,2.1-3.2,3.1-5.4,2.4c-2.1-0.6-4.1-0.5-6.1,0.4c-2,0.9-4.2,1.2-5.8,2.8c-0.4,0.4-1,0.8-1,1.4c0.1,1-0.3,1.8-0.9,2.5
		c-1.7,2-2.5,4.4-3.5,6.8c-0.4,1-1.1,1.7-2,2.1c-1.6,0.8-2.6,2.2-3.6,3.5c-0.7,1-1.2,1.9-0.1,3.1c1.1,1.1-0.3,1.6-0.9,1.8
		C49.2,153.4,48.3,155.1,47.8,157.3z"/>
	<path fill="#7C7C7C" d="M140.6,138.1c0-10.9,0-21.9,0-32.8c0-2.5,0-2.5,2.4-2.5c5.3,0,10.5,0.1,15.8,0c1.7,0,2.2,0.6,2.2,2.2
		c0,15.7,0,31.4,0,47.1c0,2.8,0,2.8,2.7,2.8c7.6,0,15.3,0.1,22.9,0c1.8,0,2.3,0.6,2.2,2.3c-0.1,4.8-0.1,9.5,0,14.3
		c0,1.5-0.5,1.9-1.9,1.9c-14.8,0-29.6,0-44.4,0c-1.6,0-1.9-0.7-1.9-2.1C140.6,160.3,140.6,149.2,140.6,138.1z"/>
	<path fill="#7C7C7C" d="M216.4,138.3c0,10.9,0,21.8,0,32.6c0,2.5,0,2.5-2.4,2.5c-5.3,0-10.6-0.1-16,0c-1.6,0-2.1-0.5-2.1-2.1
		c0-22.1-0.1-44.1-0.2-66.2c0-1.4,0.4-1.9,1.9-1.9c5.6,0.1,11.2,0.1,16.9,0c1.6,0,1.9,0.6,1.9,2
		C216.3,116.3,216.4,127.3,216.4,138.3z"/>
	<path fill="#7D7D7D" d="M62.6,170.2c-1,0.5-1.2,1.3-1.6,2c-5.4,9.4-10.7,18.8-16.1,28.2c-0.4,0.8-0.7,1.6-2,1.5
		c-2.5-0.3-2.6-0.5-1.3-2.6c5.9-10.2,11.8-20.4,17.8-30.6c0.4-0.6,0.7-1.3,0.9-2c-2.1,1.3-3.7,3.1-5.2,4.9
		c-7,8.8-12.1,18.6-17.1,28.6c-0.3,0.6-0.2,1.9-1.3,1.5c-1.1-0.5-1.4-1.5-0.8-2.7c3.9-8.7,8.7-17,14.1-24.9
		c7.8-11.4,16.7-21.9,26.4-31.6c0.4-0.4,0.7-1,1.5-1.1c0.2,1.1,0.4,2.3,1.2,3.2c0.5,0.5,0.3,1-0.1,1.5c-7.8,9.7-12.5,21.1-17.5,32.3
		c-3.3,7.4-6.2,14.9-9.1,22.4c-0.1,0.2-0.1,0.3-0.2,0.5c-0.3,0.9-1,1-1.8,0.8c-1-0.3-0.6-1-0.4-1.6c1.9-4.6,3.9-9.2,5.8-13.9
		c2-4.8,4.1-9.7,6.1-14.5C62.2,171.6,62.3,171,62.6,170.2z"/>
	<path fill="#7D7D7D" d="M80.4,57.4c1.4,0.2,2.9,0.4,4.5,0.6c2.5,0.4,4.8,1.1,6,3.8c0.8,1.9,2.5,2.8,4.6,2.4c0.5-0.1,1.1,0,1.6,0
		c3.6,0,3.6,0,4.2,3.4c0.1,0.8,0.6,1.3,1.1,1.9c1.8,2,3.6,4,5.5,5.9c1,1,1.2,2.2,0.6,3.4c-0.5,1.2-1.6,1.4-2.8,1.3
		c-5.1-0.4-10.1-0.8-15.1-1.3c-1.6-0.1-3-0.7-2.8-2.8c0-0.2,0-0.5-0.1-0.5c-2.1-1-1.2-2.4-0.6-3.8c0.3-0.6,0.2-1.2-0.4-1.4
		c-1.2-0.6-1.7-1.7-2.3-2.7c-0.8-1.2-1.5-1.1-2.2,0.1c-0.6,1.1-1.2,1.2-2.1,0.3c-1.8-1.8-2.2-1.7-3.4,0.5c-0.8,1.4-3,1.1-4.3-0.7
		c-1.2-1.6-3.3-1.5-4.3,0.3c-0.3,0.6-0.9,0.8-1.4,1c-1.5,0.6-3,1.1-4.3,2c-0.5,0.3-1.1,0.7-1.7,0.1c-0.6-0.5-0.2-1.2,0.1-1.7
		c3.6-6.5,8.8-10.8,16.3-12C78.1,57.6,79.1,57.5,80.4,57.4z"/>
	<path fill="#7D7D7D" d="M150.7,203.2c-0.6,0.5-1,0.4-1.5,0.4c-8.1,0-16.3,0-24.4,0c-2.1,0-4.1-0.5-6.1-1.2
		c-1.6-0.6-3.2-1.3-4.9-1.1c-0.5,0-1-0.1-1.2-0.7c-0.6-2-2.4-2.6-4.2-3.2c-1.6-0.5-3.6-0.9-2.2-3.4c0.2-0.4-0.1-0.7-0.5-0.8
		c-0.5-0.2-1.1-0.3-1.6-0.5c-0.7-0.3-2.1-0.2-2.1-1.1c-0.1-1.5-0.8-3.4,1.8-4.2c1.4-0.4,2.7-1,4.2-0.9c9.9,0.3,19,3.3,27.7,7.5
		C141,196.6,145.9,199.6,150.7,203.2z"/>
	<path fill="#7D7D7D" d="M120.9,65.1c0.6-0.4,1.2-0.9,1.7-1.3c0.6-0.5,1.2-0.9,0.3-1.9c-0.8-0.9,0.2-1.4,0.9-1.6
		c1.6-0.5,3.2-1,4.7-1.5c2.5-0.9,3-2.5,1.4-4.6c-0.7-0.9-0.3-1.4,0.3-2c2-1.6,4.4-2.7,6-4.8c1.8-2.3,3.5-4.6,4.6-7.4
		c1-2.4,2.3-4.9,5-6c1.1-0.5,1.9-1.4,2.7-2.2c0.6-0.6,1.2-1,2.1-0.7c0.9,0.4,0.7,1.2,0.7,1.9c-0.1,12.8-5.9,22.2-17.2,28.1
		C130,63.3,125.6,64.5,120.9,65.1z"/>
	<path fill="#7C7C7C" d="M117.5,72.1c2.6-1.7,5.7-2.1,8.6-2.9c2.6-0.7,5.2-1.5,7.7-2.3c0.8-0.3,1.6-0.7,2.2-1.3
		c3.7-4.4,8.7-4.6,13.9-4.4c1,0,1.7,0.6,2.2,1.5c1.1,2.2,1.6,4.6,1.2,7.1c-0.1,0.4-0.1,0.9-0.5,1.1c-2.4,1.8-4.2,4.3-6.7,5.9
		c-1.1,0.7-5.8,0.8-6-0.1c-0.6-2.6-2.4-1.2-3.6-1.3c-1.4-0.1-2.6-0.5-3.8-1.2c-2.2-1.4-4.5-1.8-7-1.3
		C122.8,73.5,120.2,72.7,117.5,72.1z"/>
	<path fill="#7C7C7C" d="M136.7,107.9c-0.1,3.2-0.1,3.2-2.8,3.6c-2.3,0.4-4.7,0.7-7.1,1.1c-0.9,0.1-1.6-0.1-2.2-0.7
		c-1.6-1.6-3.2-3.2-4.2-5.3c-0.8-1.8-1.6-3.6-3.1-4.9c-0.9-0.9-1.3-2.1-0.6-3.2c1-1.5,0-1.7-1-2c-2.4-0.6-4.8-1.1-6.3-3.4
		c-0.3-0.4-0.6-0.8-0.7-1.2c-0.2-0.8-0.3-1.7,0.2-2.3c0.6-0.8,1.4,0,2,0.2c2.1,0.7,4.2,1.2,6.4,1.2c1.5,0,2.6,0.9,3.9,1.5
		c2.9,1.4,5.6,2.9,7.5,5.7c1,1.5,2.5,2.5,4,3.1C136,102.7,136.5,105.4,136.7,107.9z"/>
	<path fill="#7C7C7C" d="M138.1,97.5c-1.7-0.1-2.8-0.5-3.8-1.2c-2.5-1.7-4-4.2-5.1-6.9c-0.8-2-2.2-2.7-4.1-3.1
		c-3.3-0.7-6.5-1.6-9.7-2.5c-1.3-0.4-2-3.6-1-4.2c1.2-0.6,2.5,0,3.6,0.6c1.1,0.6,2.1,1,3.3,1c3.9-0.2,7.7,0.6,11.5,0.6
		c0.9,0,1.7,0,2.4,0.7c1.9,2.1,4.3,3.3,7.1,3.9c2.4,0.5,3.5,2.3,3.9,4.6c0.3,1.7-0.4,3.1-1.6,4C142.5,96.5,140,96.9,138.1,97.5z"/>
	<path fill="#7D7D7D" d="M105.8,26c-0.7,8-0.7,16.1-2.4,24c-0.4,1.8-0.2,3.8-0.3,5.7c0,0.5,0.1,1.2-0.6,1.4
		c-0.5,0.1-0.8-0.4-1.2-0.7c-1-0.7-1.4-1.6-1.3-2.8c0.1-1.9-0.3-3.6-0.9-5.4c-0.6-1.6-0.2-3.4-0.3-5.1c0-2,0.1-3.9-0.9-5.7
		c-0.5-1,0.2-1.6,0.7-2.3c0.5-0.7,1.2-1.3,1.6-2c0.6-1,0.7-1.9-0.6-2.6c-1.3-0.6-2.5-4.8-1.6-5.9c1-1.2,0.9-2.4,0.5-3.7
		c-0.7-2.7,0-3.4,2.8-3c0.2,0,0.4,0.1,0.5,0.1c3.9,0.8,4,0.9,4,4.8C105.8,23.8,105.8,24.9,105.8,26z"/>
	<path fill="#7D7D7D" d="M116.4,61.9c-0.5-4.9-0.1-9.5,1.6-14.2c2.5-6.7,6.4-12.7,8.6-19.6c0.8-2.5,1.4-5.1,1.9-7.6
		c0.3-1.5,1-1.9,2.4-1.7c1.6,0.2,3.2,0.3,4.8,0.4c1.1,0.1,1.4,0.5,0.9,1.5c-0.6,1.1-1,2.4-1.9,3.3c-3.5,3.9-5.3,8.7-6.6,13.7
		c-0.8,3.2-2.6,6.1-3.9,9.1c-0.2,0.5-0.7,0.9-1.2,1.1c-2.6,1.3-3.6,3.7-4.3,6.3C118,56.8,117.2,59.4,116.4,61.9z"/>
	<path fill="#7D7D7D" d="M109.2,52.8c-0.5-2.9-1-5.9-1.5-8.8c-0.1-0.9,0.3-1.7,0.5-2.5c0.4-1.2,0.8-2.5,0.5-3.8
		c-0.8-2.7,0.1-5.3,0.4-7.9c0.1-0.6,0.3-1.2,0.7-1.7c0.7-0.7,0.6-1.4,0.3-2.3c-0.6-1.9,0.1-3.9,0.3-5.8c0.1-0.9,1.5-0.7,2.4-0.9
		c2.5-0.5,2.7-0.5,3,2.1c0.5,4.2,0.6,8.5-1.4,12.2c-2,3.7-2.7,7.5-3.1,11.5C111,47.6,110.5,50.3,109.2,52.8z"/>
	<path fill="#7D7D7D" d="M70.6,196.6c0.1-10.4,1.6-19.7,4.9-28.7c0.2-0.6,0.5-1.3,0.8-1.9c0.2-0.4,0.7-0.5,1.1-0.4
		c0.5,0.2,0.3,0.6,0.2,0.9c-2.6,6.9-2.5,14.2-2.9,21.3c-0.3,5.3-0.1,10.6-0.2,16c0,0.7,0.5,2-0.9,1.9c-1.2-0.1-2.6-0.1-2.6-1.9
		C71,201.1,70.5,198.5,70.6,196.6z"/>
	<path fill="#7D7D7D" d="M149.9,22.3c-0.2,1.8-0.6,3.4-2,4.8c-1.5,1.4-1.8,3.6-3.5,4.8c-1,0.8-2,1.6-3,2.4c-1.5,1-2.7,0.8-3.9-0.5
		c-1.2-1.2-0.8-2.2,0-3.5c1-1.8,1.5-3.8,3.5-5c0.5-0.3,0.3-1,0.5-1.5c0.3-1.3,0.4-2.7,1.5-3.6c1.6-1.4,5.5-0.9,6.7,0.8
		C150,21.3,149.9,21.8,149.9,22.3z"/>
	<path fill="#7D7D7D" d="M72.9,163.7c-1,3.1-1.9,6.2-2.8,9.2c-2.6,8.5-5.2,17.1-6.9,25.8c-0.1,0.7-0.2,1.4-0.3,2.2
		c-0.1,0.9-0.5,1.4-1.5,1.4c-2.8,0.1-2.9,0.1-2.2-2.7c2.6-9.7,5.3-19.3,9.2-28.6c0.8-2,1.8-4,2.9-5.9
		C71.6,164.6,71.8,163.9,72.9,163.7z"/>
	<path fill="#7D7D7D" d="M112.8,56.7c-0.3-5.4,0.3-10.3,2.4-14.9c0.7-1.5,1.3-3,1.2-4.7c0-0.5,0-1,0.2-1.4c2.3-4.7,2.8-10,4.1-15
		c0.4-1.6,2.4-2.6,3.9-1.8c0.5,0.3,0.5,0.7,0.4,1.1c-0.2,2.3-0.6,4.6-1.9,6.6c-1.9,3.1-3.1,6.5-3.9,10c-0.7,3.5-1.9,6.8-3,10.2
		c-0.7,2.1-1.1,4.2-1.7,6.4C114.2,54.3,113.8,55.4,112.8,56.7z"/>
	<path fill="#7D7D7D" d="M90.5,173.3c-0.1,2.5,0.3,4.5-1.1,6.1c-0.2,0.2-0.3,0.6-0.5,0.7c-0.9,0.6-1.9,1.7-2.8,1.3
		c-0.8-0.4-0.3-1.7-0.1-2.5c1-3.8,0.6-7.3-1.6-10.7c-0.2-0.4-0.2-0.9-0.2-1.4c-0.1-1.1-0.3-2.2-1-2.9c-1.9-1.8-1.7-3.5-0.4-5.5
		c0.5-0.8,1.1-1.4,2.2-1.3c1,0.1,1.2,0.8,1.6,1.7c1.2,2.5,2.1,5,1.7,7.9c0,0.3,0.1,0.8,0.3,1C90.5,169.4,90.7,171.6,90.5,173.3z"/>
	<path fill="#7E7E7E" d="M62.6,152.9c1.9-3.7,4.2-7.1,6.9-10.2c1.4-1.6,2.8-3.1,4.5-4.2c0.5-0.3,1.1-1.1,1.7-0.3
		c0.5,0.7,0.5,1.5-0.1,2.2c-2.1,2.3-4.2,4.6-6.4,6.8C67.2,149.3,65.2,151.4,62.6,152.9z"/>
	<path fill="#7E7E7E" d="M30.4,201.1c-0.5-0.2-1.6,0.2-2-0.9c-0.3-1,0.4-1.8,1.2-2.3c2.1-1.2,3.3-3.2,4.5-5.2
		c0.4-0.8,1.2-1.3,1.9-0.9c0.9,0.5,0.4,1.4-0.1,2c-1.5,1.8-2.2,4.1-3.3,6.1C32.2,200.7,31.8,201.4,30.4,201.1z"/>
	<path fill="#7E7E7E" d="M85.5,102.3c0,0.9-0.4,1.3-1,1.5c-0.8,0.2-1.5,0.5-2.1-0.5c-0.8-1.4-1.5-2.8-2.3-4.1
		c-0.3-0.5-0.5-1,0.1-1.4c0.6-0.4,1-0.7,1.8-0.4C84.4,98.3,84.6,100.6,85.5,102.3z"/>
	<path fill="#808080" d="M136.6,37.2c-0.1,1.4-0.8,2.2-1.8,2.1c-1.5-0.1-0.9-1.6-1.1-2.5c-0.3-1.2,0.6-1.3,1.4-1.4
		C136.6,35.3,136.2,36.6,136.6,37.2z"/>
	<path fill="#858585" d="M131.5,45.3c-0.4,1.1-0.7,2.5-2.3,2.9c-0.3,0.1-0.8,0-1-0.2c-0.3-0.3,0-0.7,0.2-1c0.5-0.8,1.1-1.6,1.7-2.4
		c0.3-0.3,0.6-1,1.1-0.6C131.6,44.1,131.5,44.7,131.5,45.3z"/>
	<path fill="#868686" d="M72.9,83.8c1.9,0,3.8,0,5.8,0C77,86.1,74.5,86,72.9,83.8z"/>
	<path fill="#7C7C7C" d="M291.3,171.4c-6.7-22.2-13.5-44.3-20.1-66.5c-0.4-1.4-1.1-1.8-2.5-1.8c-4.2,0.1-8.4,0-12.7,0
		c-4.4,0-8.8,0-13.2,0c-1.3,0-1.9,0.4-2.2,1.6c-0.6,2.3-1.4,4.6-2,6.8c-6.1,19.9-12.1,39.9-18.2,59.8c-0.4,1.4-0.3,2,1.3,2
		c6.2-0.1,12.5-0.1,18.7,0c1.3,0,1.8-0.5,2.2-1.7c0.7-2.8,1.6-5.5,2.3-8.3c0.3-1,0.8-1.5,1.9-1.5c6.3,0,12.6,0,18.9,0
		c1.1,0,1.6,0.4,1.9,1.5c0.8,2.7,1.7,5.4,2.4,8.1c0.4,1.4,1,1.8,2.4,1.8c5.8-0.1,11.6-0.1,17.4,0C291.4,173.3,291.8,173,291.3,171.4
		z M261.3,145.8c-3.4-0.1-6.8,0-10.3,0c-0.7,0-1.5,0-1.2-1.1c2-7.1,4-14.2,6-21.3c0.2,0,0.3,0,0.5,0.1c1.3,4.7,2.7,9.4,4,14.1
		c0.6,2.2,1.3,4.5,1.9,6.7C262.7,145.3,262.6,145.9,261.3,145.8z"/>
</g>
</svg>
