<?xml version="1.0" encoding="utf-8"?>
<!-- Generator: Adobe Illustrator 18.1.1, SVG Export Plug-In . SVG Version: 6.00 Build 0)  -->
<svg version="1.1" id="Layer_1" xmlns="http://www.w3.org/2000/svg" xmlns:xlink="http://www.w3.org/1999/xlink" x="0px" y="0px"
	 viewBox="0 0 119.2 96.2" enable-background="new 0 0 119.2 96.2" xml:space="preserve">
<g>
	<g>
		<path fill="#010101" d="M42.2,53.8h1.2c1,0,1.7-0.7,1.7-1.7V45c0-1-0.7-1.7-1.7-1.7h-1.2c-1,0-1.7,0.8-1.7,1.7v7.1
			C40.5,53,41.3,53.8,42.2,53.8z M85.5,39.8v-20c0-0.4-0.3-0.7-0.7-0.7H64.9c-0.4,0-0.9,0.2-1.2,0.5L42.5,40.8h0.8
			c2.7,0,4.4,1.7,4.4,4.2v7.1c0,2.5-1.8,4.2-4.4,4.2h-1.2c-2.7,0-4.4-1.7-4.4-4.2v-6.5L28,55.5c-0.3,0.3-0.4,0.8-0.4,1.2v19.8
			c0,0.3,0.2,0.6,0.5,0.7h20.4c0.3-0.1,0.7-0.2,0.9-0.5L70,56.1h-6c-0.2,0-0.2-0.1-0.2-0.2V41.3c0-0.2,0.1-0.2,0.2-0.2h8.4
			c0.1,0,0.2,0.1,0.2,0.2v2c0,0.2-0.1,0.2-0.2,0.2h-5.7c-0.2,0-0.2,0.1-0.2,0.2v3.2c0,0.2,0.1,0.2,0.2,0.2h4.7
			c0.2,0,0.2,0.1,0.2,0.2v2c0,0.2-0.1,0.2-0.2,0.2h-4.7c-0.2,0-0.2,0.1-0.2,0.2v3.4c0,0.2,0.1,0.2,0.2,0.2h5.7c0,0,0.1,0,0.1,0
			L85,40.9C85.3,40.7,85.5,40.2,85.5,39.8z M60.5,55.8c0,0.2-0.1,0.2-0.2,0.2h-2L58,56l-4.9-9.6l0.1,9.5c0,0.2-0.1,0.2-0.2,0.2h-2.2
			c-0.2,0-0.2-0.1-0.2-0.2V41.3c0-0.2,0.1-0.2,0.2-0.2h2l0.2,0.1l4.9,9.7l-0.1-9.6c0-0.2,0.1-0.2,0.2-0.2h2.2c0.1,0,0.2,0.1,0.2,0.2
			L60.5,55.8L60.5,55.8z M24.5,41.1h-3.3c-0.1,0-0.1,0-0.1,0.1V42c0,0.1,0,0.1,0.1,0.1h1c0.1,0,0.1,0,0.1,0.1V47
			c0,0.1,0,0.1,0.1,0.1h0.9c0.1,0,0.1,0,0.1-0.1v-4.8c0-0.1,0-0.1,0.1-0.1h1c0.1,0,0.1,0,0.1-0.1L24.5,41.1
			C24.6,41.1,24.6,41.1,24.5,41.1z M28.4,44.6V47c0,0.1,0,0.1,0.1,0.1h0.9c0.1,0,0.1,0,0.1-0.1v-5.8c0-0.1,0-0.1-0.1-0.1h-0.9
			c-0.1,0-0.1,0-0.1,0.1v2.3c0,0.1,0,0.1-0.1,0.1h-1.8c-0.1,0-0.1,0-0.1-0.1v-2.3c0-0.1,0-0.1-0.1-0.1h-0.9c-0.1,0-0.1,0-0.1,0.1V47
			c0,0.1,0,0.1,0.1,0.1h0.9c0.1,0,0.1,0,0.1-0.1v-2.3c0-0.1,0-0.1,0.1-0.1L28.4,44.6C28.4,44.6,28.4,44.6,28.4,44.6z M34,47.1
			C34.1,47.1,34.1,47.1,34,47.1l0.1-0.9c0-0.1,0-0.1-0.1-0.1h-2.3c-0.1,0-0.1,0-0.1-0.1v-1.3c0-0.1,0-0.1,0.1-0.1h1.9
			c0.1,0,0.1,0,0.1-0.1v-0.8c0-0.1,0-0.1-0.1-0.1h-1.9c-0.1,0-0.1,0-0.1-0.1v-1.3c0-0.1,0-0.1,0.1-0.1H34c0.1,0,0.1,0,0.1-0.1v-0.8
			c0-0.1,0-0.1-0.1-0.1h-3.4c-0.1,0-0.1,0-0.1,0.1V47c0,0.1,0,0.1,0.1,0.1L34,47.1L34,47.1z M80.2,52.6c-0.7-0.3-1.1-0.4-1.1-0.9
			c0-0.4,0.3-0.7,0.7-0.7h0.1c0.3,0,0.5,0.2,0.6,0.5c0.1,0.1,0.1,0.1,0.1,0.1c0,0,0,0,0,0l0.8-0.4c0,0,0.1,0,0.1-0.1
			c0-0.1-0.2-0.5-0.6-0.8c-0.3-0.2-0.6-0.3-1.1-0.3h-0.1c-1.1,0-1.8,0.6-1.8,1.7c0,0.9,0.5,1.4,1.6,1.9c0.6,0.3,1,0.5,1,0.9
			c0,0.4-0.3,0.7-0.7,0.7h-0.4c-0.2,0-0.5-0.1-0.6-0.3c-0.1-0.2-0.1-0.3-0.2-0.3c0,0,0,0,0,0l-0.8,0.4c0,0-0.7,0-0.7,0
			c0,0.1,0.8,0.5,1.1,0.8c0.3,0.3,0.7,0.4,1.2,0.4h0.4c1.1,0,1.8-0.7,1.8-1.7C81.7,53.6,81.2,53,80.2,52.6z M85.5,50.1
			C85.5,50.1,85.4,50.1,85.5,50.1l-0.1,2.4c0,0.1,0,0.1-0.1,0.1h-1.8c-0.1,0-0.1,0-0.1-0.1v-2.3c0-0.1,0-0.1-0.1-0.1h-0.9
			c-0.1,0-0.1,0-0.1,0.1V56c0,0.1,0,0.1,0.1,0.1h0.9c0.1,0,0.1,0,0.1-0.1v-2.3c0-0.1,0-0.1,0.1-0.1h1.8c0.1,0,0.1,0,0.1,0.1V56
			c0,0.1,0,0.1,0.1,0.1h0.9c0.1,0,0.1,0,0.1-0.1v-5.8c0-0.1,0-0.1-0.1-0.1H85.5z M89.7,50h-0.5c-1.1,0-1.8,0.7-1.8,1.7v2.8
			c0,1,0.7,1.7,1.8,1.7h0.5c1.1,0,1.8-0.7,1.8-1.7v-2.8C91.4,50.7,90.7,50,89.7,50z M90.3,54.5c0,0.4-0.3,0.7-0.7,0.7h-0.5
			c-0.4,0-0.7-0.3-0.7-0.7v-2.8c0-0.4,0.3-0.7,0.7-0.7h0.5c0.4,0,0.7,0.3,0.7,0.7V54.5z M98,50.1h-1c0,0-0.1,0-0.1,0.1L96.3,54
			l-0.9-3.9c0,0,0-0.1-0.1-0.1h-0.5c-0.1,0-0.1,0-0.1,0.1L93.8,54l-0.7-3.9c0,0,0-0.1-0.1-0.1h-1c-0.1,0-0.1,0-0.1,0.1c0,0,0,0,0,0
			l1.3,5.8c0,0,0,0.1,0.1,0.1H94c0.1,0,0.1,0,0.1-0.1l0.9-3.8l1,3.8c0,0,0,0.1,0.1,0.1h0.7c0,0,0.1,0,0.1-0.1l1.3-5.8c0,0,0,0,0,0
			C98.1,50.1,98.1,50.1,98,50.1z"/>
	</g>
</g>
</svg>
