<?xml version="1.0" encoding="utf-8"?>
<!-- Generator: Adobe Illustrator 18.1.1, SVG Export Plug-In . SVG Version: 6.00 Build 0)  -->
<svg version="1.1" id="Layer_1" xmlns="http://www.w3.org/2000/svg" xmlns:xlink="http://www.w3.org/1999/xlink" x="0px" y="0px"
	 viewBox="0 0 104.5 97.4" enable-background="new 0 0 104.5 97.4" xml:space="preserve">
<g>
	<g>
		<path fill="#010101" d="M52.5,26l-6.2,48h9.4l0.7-7.6h5.9l0.7,7.6h9.4l-6.2-48H52.5z M57.3,58.2l2.1-20.7l2.2,20.7H57.3z M36.4,26
			H22.6v48H32V61.4h4.4c5.9,0,8.8-2.9,8.8-8.8V34.8C45.2,28.9,42.3,26,36.4,26z M35.8,51.6c0,1.2-0.5,1.7-1.7,1.7h-2V34.1h2
			c1.1,0,1.7,0.5,1.7,1.7V51.6z M76.2,23.4c-3.1,0-5.7,2.5-5.7,5.7s2.5,5.7,5.7,5.7c3.1,0,5.7-2.5,5.7-5.7
			C81.9,26,79.4,23.4,76.2,23.4z"/>
	</g>
</g>
</svg>
