<?xml version="1.0" encoding="utf-8"?>
<!-- Generator: Adobe Illustrator 18.1.1, SVG Export Plug-In . SVG Version: 6.00 Build 0)  -->
<svg version="1.1" id="Layer_1" xmlns="http://www.w3.org/2000/svg" xmlns:xlink="http://www.w3.org/1999/xlink" x="0px" y="0px"
	 width="612px" height="792px" viewBox="0 0 612 792" enable-background="new 0 0 612 792" xml:space="preserve">
<g>
	<path d="M338.4,285c18.8,0,37.1,0.1,55.4-0.1c3.9,0,3.6,2.9,4.2,5.1c6.4,23.7,12.7,47.5,19,71.3c0.1,0.5,0.4,1.1,1,2.8
		c4.1-15,7.9-29,11.7-42.9c2.9-10.7,5.9-21.5,8.8-32.2c0.7-2.5,1.4-4,4.5-4c17.9,0.1,35.8,0.1,54.6,0.1
		c-4.3,10.9-8.3,21.3-12.4,31.5c-9.8,24.8-19.6,49.6-29.7,74.3c-1.5,3.6-1.3,6.6,0.1,10.1c13.3,33.6,26.3,67.2,39.7,100.8
		c2.2,5.5,1,6.4-4.6,6.3c-15.2-0.4-30.3-0.4-45.5,0c-4.9,0.1-6.8-1.3-8-6c-5.7-22.6-11.8-45.1-17.8-67.7c-0.4-1.6-1.1-3-1.9-5.3
		c-6.9,25.3-13.7,49.8-20.3,74.3c-0.8,3-1.5,4.7-5.2,4.6c-17.7-0.2-35.4-0.1-54-0.1c2.7-6.8,5.1-13.2,7.6-19.5
		c11.4-28.7,22.7-57.4,34.3-86c1.6-4.1,1.4-7.4-0.2-11.3c-13.2-33.4-26.3-66.8-39.4-100.2C339.7,289.1,339.2,287.3,338.4,285z"/>
	<path d="M137.2,419.1c0,27.6-0.2,55.2,0.1,82.8c0.1,5.2-1.5,6.2-6.3,6.1c-13.5-0.3-27-0.3-40.4,0c-4.9,0.1-6.2-1.2-6.2-6.2
		c0.3-54.8,0.3-109.5,0.7-164.3c0-6.2-1.6-7.8-7.7-7.5c-10.5,0.5-21.1,0-31.6,0.2c-3.5,0.1-4.7-0.8-4.6-4.5
		c0.2-12.2,0.2-24.4,0-36.7c-0.1-3.7,1.1-4.5,4.6-4.5c43.8,0.1,87.7,0.1,131.5,0c3.7,0,5.2,0.7,5.1,4.8c-0.3,12-0.3,24,0,36
		c0.1,4.1-1.3,4.9-5.1,4.9c-11.6-0.2-23.2,0.1-34.8-0.2c-4.5-0.1-5.5,1.3-5.5,5.6C137.3,363.5,137.2,391.3,137.2,419.1z"/>
	<path d="M518,396c0-35.2,0.1-70.4-0.1-105.6c0-4.4,1-5.7,5.5-5.6c14.1,0.3,28.2,0.2,42.4,0c3.7-0.1,5.1,0.7,5.1,4.8
		c-0.3,71.2-0.4,142.5-0.4,213.7c0,3.6-0.9,4.6-4.5,4.5c-14.3-0.2-28.7-0.3-43,0c-4.7,0.1-5.4-1.6-5.4-5.7
		c0.2-35.4,0.1-70.8,0.1-106.2C517.7,396,517.8,396,518,396z"/>
	<g>
		<path d="M330.9,492.9c-17.8-67.9-35.7-135.8-53.5-203.7c-1-3.9-2.7-5.2-6.8-5.1c-13.7,0.3-27.4,0.5-41.1-0.1
			c-5-0.2-6.3,1.7-7.4,5.8c-12.1,46.6-24.4,93.1-36.6,139.7c-6.8,26-13.6,52-20.5,78.5c17.1,0,33.7-0.1,50.4,0.1
			c3.1,0,3.8-1.3,4.2-4c2-11.6,4.4-23.2,6.2-34.8c0.7-4.4,2.2-5.8,6.8-5.6c10.7,0.4,21.5,0.3,32.2,0.1c3.5-0.1,5.1,0.5,5.6,4.5
			c1.7,11.7,4,23.2,6.1,34.8c0.4,2.3,0,5.1,4,5.1c17.9-0.1,35.8-0.1,54.1-0.1C333.5,502.6,332.2,497.7,330.9,492.9z M237.2,423.2
			c-2,0-2.5-0.8-2.2-2.7c4.4-23.4,8.8-46.9,13.2-70.3c0.4,0,0.9,0,1.3,0c4.3,24.1,8.6,48.1,13.1,72.9
			C253.9,423.1,245.5,423.1,237.2,423.2z"/>
	</g>
</g>
</svg>
