<?xml version="1.0" encoding="utf-8"?>
<!-- Generator: Adobe Illustrator 18.1.1, SVG Export Plug-In . SVG Version: 6.00 Build 0)  -->
<svg version="1.1" id="Layer_1" xmlns="http://www.w3.org/2000/svg" xmlns:xlink="http://www.w3.org/1999/xlink" x="0px" y="0px"
	 viewBox="0 0 612 792" enable-background="new 0 0 612 792" xml:space="preserve">
<path d="M305.2,228.9c-83.7,0-153.1,61.6-165.2,141.9c22.3,24.6,44.2,48.8,66.5,73.4c5-31,9.9-61.5,14.9-92.5
	c20.2,21.7,40,43.1,60.2,64.9c1.3-8.1,2.6-15.6,3.8-23.1c1.5-9.3,3-18.6,4.4-27.9c0.2-1.3,0.6-2,1.9-2.4c11-3.7,21.9-7.4,32.9-11.1
	c0.2-0.1,0.4,0.1,0.9,0.1c-6.6,47.6-13.1,95.3-19.8,143.6c-21.1-24.1-41.9-47.9-63.1-72c-5.7,30.8-11.3,61-17,91.7
	c-4.8-5.4-9.3-10.5-13.9-15.6c-24.1-27.1-48.1-54.3-72.2-81.4c11,81.7,80.9,144.6,165.6,144.6c92.3,0,167.1-74.8,167.1-167.1
	S397.5,228.9,305.2,228.9z M422,401.8c-6,15.1-18,23.8-32.8,29.1c-18.7,6.7-34.9,1.8-49.4-10.7c-5.3-4.6-9.5-10-13.2-16
	c-0.9-1.5-0.7-2,0.9-2.6c8.4-3.1,16.9-6.1,25.2-9.5c2.1-0.8,2.8-0.1,3.9,1.4c5.3,7.3,12.8,9.8,21.3,8.6c8.2-1.1,14.5-5.5,17.5-13.6
	c4.8-12.7-4.3-25.3-18.6-26c-4.4-0.2-8.6,0.8-12.7,2.3c-8.7,3.3-17.3,6.6-26.4,10.1c1.9-13.9,3.8-27.4,5.7-41.3
	c-16.6,6-32.8,11.9-49.6,18c1.3-8.5,2.6-16.5,3.8-24.6c0.5-3.3,1.1-6.5,1.5-9.8c0.2-1.2,0.6-1.8,1.8-2.1
	c27.2-7.8,54.4-15.6,81.6-23.4c0.1,0,0.2,0.1,0.5,0.2c-2.3,12.1-4.6,24.2-7.1,36.4c-0.5,2.3-0.6,3.3,2.5,3.1
	c23.5-1.4,39.9,11.4,45,35C426,378.5,426.5,390.3,422,401.8z"/>
</svg>
