<?xml version="1.0" encoding="utf-8"?>
<!-- Generator: Adobe Illustrator 18.1.1, SVG Export Plug-In . SVG Version: 6.00 Build 0)  -->
<svg version="1.1" id="Layer_1" xmlns="http://www.w3.org/2000/svg" xmlns:xlink="http://www.w3.org/1999/xlink" x="0px" y="0px"
	 width="612px" height="792px" viewBox="0 0 612 792" enable-background="new 0 0 612 792" xml:space="preserve">
<g>
	<g>
		<path fill="#171617" d="M34.7,405.4v23.1C215.4,418.2,80.9,412.1,34.7,405.4z M34.7,443.8v23.1l1.2,0.6
			C173.4,454.7,134.4,449.8,34.7,443.8z M34.7,316.6c113.2-3.7,113.8-10.3,54.8-18.3l10.3-12.8c72.4,11,68.1,29.2,15.8,38.3
			c17.6,6.1,79.1,17.6,4.3,40.2c12.2,3,80.9,20.1-4.3,35.3c13.4,6.1,85.2,14.6,3,37.1c21.3,3.7,76,15.2,3.7,38.3
			c27.4,3,30.4,3.7,37.7,16.4v47.5h32.2V240.6H34.1v76H34.7z M34.7,370.1v23.1C68.7,386.6,223.9,384.1,34.7,370.1z M34.7,330v24.9
			C140.5,348.9,176.4,341.6,34.7,330z M234.8,368.9h4.3v-50.5h18.9v-3.7h-42v3.7h18.9L234.8,368.9L234.8,368.9z M272.5,343.4h34.7
			v25.6h4.3v-54.8h-4.3v24.9h-34.7v-24.9h-4.3v54.8h4.3V343.4z M365,365.3h-35.3v-21.9h31v-3.7h-31v-21.3h34.7v-3.7h-38.9v54.8H365
			C365,368.9,365,365.3,365,365.3z M253.7,454.1l12.2-34.1l12.2,34.1h14.6l20.1-60.2H295l-10.3,34.7l-11.6-35.3h-14.6L247,428.5
			l-10.3-34.7H219l20.1,60.2L253.7,454.1L253.7,454.1z M312.7,423.1c0,19.5,14,32.2,33.5,32.2c12.2,0,20.7-4.9,26.8-12.8l-12.2-9.7
			c-4.3,4.3-8.5,6.1-14,6.1c-6.7,0-11.6-3.7-13.4-10.3h41.4c0-1.2,0-3,0-4.3c0-18.3-9.7-34.1-31-34.1
			C325.5,390.2,312.7,404.8,312.7,423.1L312.7,423.1z M344.3,406.6c6.1,0,10.3,4.3,11,11.6h-21.9
			C334.6,410.9,338.2,406.6,344.3,406.6z M441.1,437.1L441.1,437.1c0-8.5-4.9-12.8-12.2-15.2c5.5-2.4,9.1-6.7,9.1-13.4l0,0
			c0-4.3-1.2-7.3-3.7-9.7c-3.7-3.7-9.1-5.5-16.4-5.5h-31v60.2h31C432.5,454.1,441.1,447.4,441.1,437.1z M403.3,406.6h11
			c4.9,0,7.3,1.8,7.3,5.5l0,0c0,3.7-3,5.5-7.9,5.5h-10.3V406.6L403.3,406.6z M403.3,440.1v-11h12.8c5.5,0,7.9,2.4,7.9,5.5l0,0
			c0,3.7-3,5.5-7.9,5.5H403.3L403.3,440.1z M508,437.1L508,437.1c0-8.5-4.9-12.8-12.2-15.2c5.5-2.4,9.1-6.7,9.1-13.4l0,0
			c0-4.3-1.2-7.3-3.7-9.7c-3.7-3.7-9.1-5.5-16.4-5.5h-31v60.2h31C500.1,454.1,508,447.4,508,437.1z M470.3,406.6h11
			c4.9,0,7.3,1.8,7.3,5.5l0,0c0,3.7-3,5.5-7.9,5.5h-10.3V406.6L470.3,406.6z M470.3,440.1v-11H483c5.5,0,7.9,2.4,7.9,5.5l0,0
			c0,3.7-3,5.5-7.9,5.5H470.3L470.3,440.1z M531.1,454.1h17V431l23.1-37.7h-18.9l-12.8,21.9l-12.2-21.9h-18.9l23.1,37.7L531.1,454.1
			L531.1,454.1z M247,477.8L222,532h4.3l6.7-15.2h31.6l6.7,15.2h4.3l-24.9-54.1L247,477.8L247,477.8z M234.8,513.7l14-31l14,31
			H234.8z M332.2,526.5l-15.8-48.1h-3l-15.8,48.1l-17-48.1h-4.3l19.5,54.1h3l15.8-46.8l15.8,46.8h3l19.5-54.1h-4.3L332.2,526.5z
			 M379.6,478.4l-24.9,54.1h4.3l6.7-15.2h31.6l6.7,15.2h4.3l-24.9-54.1H379.6z M366.8,513.7l14-31l14,31H366.8z M459.9,494.2
			L459.9,494.2c0-4.3-1.8-7.9-4.3-10.3c-3-3-8.5-5.5-15.2-5.5h-22.5v54.1h4.3v-22.5h17.6l17,22.5h4.9l-17.6-23.1
			C453.2,508.2,459.9,502.8,459.9,494.2z M421.6,506.4v-24.3h18.3c9.7,0,15.8,4.3,15.8,11.6l0,0c0,7.9-6.7,12.2-15.8,12.2
			L421.6,506.4L421.6,506.4z M489.7,478.4h-18.3v54.1h18.3c17,0,28.6-11.6,28.6-26.8l0,0C518.3,490,506.8,478.4,489.7,478.4z
			 M514.1,505.8c0,12.8-9.7,23.1-24.3,23.1h-14v-46.8h14C504.9,482.1,514.1,492.4,514.1,505.8L514.1,505.8z M547.5,503.4
			c-12.8-2.4-15.8-6.1-15.8-11.6l0,0c0-5.5,5.5-10.3,13.4-10.3c6.1,0,11,1.8,16.4,6.1l2.4-3c-5.5-4.3-11-6.7-18.3-6.7
			c-9.7,0-17.6,6.1-17.6,14l0,0c0,7.9,5.5,12.8,18.3,15.2c12.2,2.4,15.2,6.1,15.2,11.6l0,0c0,6.1-5.5,11-13.4,11
			c-7.9,0-13.4-2.4-19.5-7.9l-2.4,3c6.7,6.1,13.4,8.5,21.9,8.5c10.3,0,17.6-6.1,17.6-14.6l0,0C565.8,510.7,560.3,505.8,547.5,503.4z
			"/>
	</g>
</g>
</svg>
