<?xml version="1.0" encoding="utf-8"?>
<!-- Generator: Adobe Illustrator 18.1.1, SVG Export Plug-In . SVG Version: 6.00 Build 0)  -->
<svg version="1.1" id="Layer_1" xmlns="http://www.w3.org/2000/svg" xmlns:xlink="http://www.w3.org/1999/xlink" x="0px" y="0px"
	 viewBox="0 0 852.9 263.9" enable-background="new 0 0 852.9 263.9" xml:space="preserve">
<path fill="#00AEEF" d="M650.2,181.1c0,35.2-16.2,71.1-69,71.1h-38.2l-2.1,2.1h110.4c0.7,0,1-0.3,1-1v-72.2
	C652.2,180.4,650.2,180.4,650.2,181.1z M792.2,252.2h-30.7c-1.4,0-2.1-0.3-2.1-1.4V35.7l-38,38v177.1c0,1-0.7,1.4-2.1,1.4H689
	c-0.7,0-0.7,2.1,0,2.1h103.2C792.9,254.3,792.9,252.2,792.2,252.2z M330.1,7.5l-35.7,98.8l3.6-3.6l16.6-45.5l7.7,21.2l27-27.1
	L332.5,7.5C332.2,6.5,330.4,6.5,330.1,7.5z M840.9,9.5h-55.3l-2.9,2.9c40.6,5.1,56.8,34.3,56.8,70.7c0,0.7,2.1,0.7,2.1,0V10.6
	C841.6,10.2,841.6,9.5,840.9,9.5z M117.5,123.8c32.8,0,69.7-24.5,69.7-57.6c0-38.3-38-56.6-80.8-56.6h-98c-1,0-1,2.1,0,2.1h30.4
	c1.4,0,2.1,0.7,2.1,1.4v237.9c0,1-0.7,1.4-2.1,1.4H8.4c-1,0-1,2.1,0,2.1h115.3c9.4,0,17.9-1,25.6-2.7l55.5-55.6
	c0.2-2.2,0.4-4.4,0.4-6.6C205.1,148.3,165.4,123.8,117.5,123.8z M78.4,13c0-0.7,0.7-1.4,2.4-1.4h20c35.2,0,49.7,15.2,49.7,55.9
	c0,42.5-12.1,55.2-38,55.2H78.4V13z M114,252.2H80.9c-1.7,0-2.4-0.3-2.4-1.4v-126h30.7c35.2,0,59,11.4,59,66.6
	C168.2,237,146.8,252.2,114,252.2z"/>
<path fill="#006991" d="M176.7,244.8c28-12.4,38.7-35.9,40.2-54.4l-60.4,60.5C163.6,249.5,170.2,247.6,176.7,244.8z M778.5,9.9h-125
	v48.3H717v13.2L778.5,9.9z M258.2,149.1l-38.9,104.7h64.9l12.1-39h89.8l12.1,39h64.9L379.7,27.5L258.2,149.1z M310.5,170.9
	c5.5-18.3,14.8-47,20-65.2c3.5-12.4,6.9-25.2,10-37.6l31.8,102.9H310.5z M547.3,9.9h-60.8v244.1h48.1l51.4-51.4h-38.7V9.9z"/>
</svg>
