<?xml version="1.0" encoding="utf-8"?>
<!-- Generator: Adobe Illustrator 18.1.1, SVG Export Plug-In . SVG Version: 6.00 Build 0)  -->
<svg version="1.1" id="Layer_1" xmlns="http://www.w3.org/2000/svg" xmlns:xlink="http://www.w3.org/1999/xlink" x="0px" y="0px"
	 width="100px" height="40px" viewBox="-255 377 100 40" enable-background="new -255 377 100 40" xml:space="preserve">
<g transform="translate(-208.45127,-644.63366)">
	<g transform="matrix(0.2576927,0,0,0.2576927,155.23992,508.16265)">
		<path d="M-569.6,2027.1c-34.5,0-60.6,26.8-60.6,60c0,35,27.2,60,60.6,60c33.4,0,60.5-25,60.5-60
			C-509.1,2053.9-535.1,2027.1-569.6,2027.1z M-569.6,2058.8c14.9-0.1,27.1,12.6,27.1,28.3c0,15.6-12.2,28.3-27.1,28.3
			c-14.9,0-27.1-12.7-27.1-28.3C-596.7,2071.4-584.5,2058.8-569.6,2058.8z"/>
		<path d="M-396.9,2126.1c0,11.6-9.4,21-21,21c-11.6,0-21-9.4-21-21c0-11.6,9.4-21,21-21C-406.3,2105.1-396.9,2114.5-396.9,2126.1z"
			/>
		<path d="M-458.1,2143.1h-33v-149h33V2143.1z"/>
		<g>
			<path d="M-690.1,1994.1h-31l-60,149h42l7-21h52l7,21h42L-690.1,1994.1z M-721,2091.1l15.5-50l15.5,50H-721z"/>
		</g>
	</g>
</g>
</svg>
