<?xml version="1.0" encoding="utf-8"?>
<!-- Generator: Adobe Illustrator 18.1.1, SVG Export Plug-In . SVG Version: 6.00 Build 0)  -->
<svg version="1.1" id="Layer_1" xmlns="http://www.w3.org/2000/svg" xmlns:xlink="http://www.w3.org/1999/xlink" x="0px" y="0px"
	 width="612px" height="792px" viewBox="0 0 612 792" enable-background="new 0 0 612 792" xml:space="preserve">
<g>
	<path fill="#B8B197" d="M35.9,32.9c-1.1-0.8-2.4-1.2-3.9-1.6c0.5-0.2,0.8-0.3,1.1-0.4c2.3-1,3.8-2.7,4-5.3c0.1-2.7-1-4.8-3.4-6.1
		c-1.5-0.8-3.2-1.2-4.9-1.4c-2.2-0.3-4.3-0.2-6.5-0.2c-2.8,0-5.7,0-8.5,0c-0.3,0-0.7-0.2-0.7,0.4c0,0.5,0.4,0.3,0.6,0.3
		c0.4,0,0.8,0,1.2,0.1c1.2,0.1,1.8,0.7,2.1,1.9c0.2,0.7,0.2,1.4,0.2,2.1c0,5.8,0,11.7,0,17.5c0,0.5,0,1.1-0.1,1.6
		c-0.2,1.7-1.1,2.5-2.8,2.6c-0.2,0-0.4,0-0.5,0c-0.2,0.1-0.7-0.2-0.7,0.3c0,0.6,0.4,0.4,0.7,0.4c3.2,0,6.4,0,9.6,0
		c2.5,0,5.1,0.1,7.6-0.3c2.6-0.4,4.8-1.4,6.3-3.6C38.8,39.1,38.9,35,35.9,32.9z M21.7,19.6c2.9-0.5,5.8-0.5,8.4,1
		c1.9,1.1,2.7,2.9,2.5,5c-0.2,2.1-1.3,3.5-3.3,4.2c-2.1,0.8-4.4,0.8-6.6,0.6c-1.8-0.1-1.8-0.2-1.8-2c0-1.2,0-2.3,0-3.5
		c0-1.5,0-3,0-4.5C21,20,21.1,19.7,21.7,19.6z M33.4,38.7c-0.2,2.2-1.5,3.6-3.5,4.4c-2.8,1.1-5.7,0.8-8.5,0.3
		C21,43.3,21,43.1,21,42.8c0-1.7,0-3.4,0-5c0-1.7,0-3.4,0-5c0-0.3-0.1-0.6,0.3-0.6c3.2-0.2,6.4-0.4,9.3,1.2
		C32.8,34.5,33.6,36.4,33.4,38.7z"/>
	<path fill="#B8B197" d="M54.6,17.4c-7.4,0.8-12.8,7.1-12.5,15c0.1,2.8,0.9,5.8,3,8.4c2.6,3.3,6.1,5,10.3,5.1
		c4.3,0.1,7.9-1.4,10.7-4.7c3.1-3.6,4-7.9,3.2-12.5C68.3,21.5,61.8,16.6,54.6,17.4z M63.7,39.3c-1.5,3.4-4.2,5.2-8,5.1
		c-3.8-0.1-6.1-2.2-7.5-5.5c-1.3-3.2-1.5-6.5-1.2-9.8c0.2-2.4,0.8-4.7,2.1-6.7c1.8-2.8,4.5-3.8,7.7-3.5c3.9,0.4,6.3,2.6,7.4,6.5
		c0.3,0.9,0.5,1.9,0.6,2.9c0.1,1.2,0.3,2.4,0.2,3.4C65,34.4,64.7,37,63.7,39.3z"/>
	<path fill="#B8B197" d="M178.8,30.4c-1.6,0-3.2,0-4.8,0c-1.7,0-3.3,0-5,0c-0.3,0-0.6-0.1-0.6,0.4c0,0.5,0.3,0.4,0.6,0.4
		c2.2,0.1,3,0.8,3.1,3c0.1,2.8,0,5.6,0.1,8.4c0,0.3-0.1,0.5-0.4,0.7c-5,2.4-10.8,1.7-14.1-3.9c-2.8-4.8-2.9-9.8-0.6-14.9
		c1.4-3.3,3.9-5.3,7.6-5.6c4.1-0.4,7.6,0.8,9.8,4.8c0.3,0.6,0.6,1.3,0.9,2c0.1,0.3,0.3,0.4,0.6,0.4c0.3,0,0.3-0.2,0.3-0.4
		c-0.2-2.5-0.4-5.1-0.6-7.6c0-0.2,0.1-0.6-0.4-0.6c-0.5,0-0.4,0.3-0.5,0.6c-0.2,1.1-0.6,1.3-1.7,1c-0.7-0.2-1.4-0.5-2.1-0.7
		c-4.3-1.3-8.7-1.3-12.6,1c-5,3.1-7.5,7.7-7.3,13.6c0.2,5.4,3,9.4,7.9,11.6c5.6,2.5,11.3,1.9,16.9-0.6c0.5-0.2,0.6-0.5,0.6-1
		c0-2.9,0-5.9,0.1-8.8c0.1-1.9,0.6-2.8,2.6-2.8c0.3,0,0.6,0,0.5-0.5C179.4,30.2,179,30.4,178.8,30.4z"/>
	<path fill="#B8B197" d="M307.6,18c-1.3,0-2.5,0-3.8,0c-1.7,0-3.3,0-5,0c-0.3,0-0.5-0.1-0.5,0.4c0,0.4,0.3,0.4,0.5,0.4
		c0.4,0,0.7,0,1.1,0.1c1.3,0.1,2,0.7,2.2,2c0.1,0.6,0.1,1.2,0.1,1.8c0,5.1,0,10.1,0,15.2c0,0.2,0.1,0.4-0.1,0.6
		c-1.9-2.3-3.9-4.6-5.8-6.9c-3.6-4.3-7.2-8.6-10.8-12.8c-0.2-0.3-0.4-0.6-0.9-0.6c-2.3,0-4.5,0-6.8,0c-0.2,0-0.5-0.1-0.5,0.3
		c0,0.3,0.1,0.5,0.4,0.5c2,0,3.4,1,4.7,2.3c0.3,0.3,0.4,0.6,0.4,1c0,6.3,0,12.6,0,18.9c0,2.8-0.7,3.5-3.5,3.6
		c-0.2,0-0.5-0.1-0.6,0.3c0,0.4,0.2,0.4,0.5,0.4c1.1,0,2.3,0,3.4,0c1.8,0,3.6,0,5.4,0c0.3,0,0.5,0,0.5-0.4c0-0.4-0.2-0.4-0.5-0.4
		c-0.3,0-0.5,0-0.8,0c-1.7-0.1-2.3-0.7-2.6-2.3c-0.1-0.4-0.1-0.8-0.1-1.2c0-5.6,0-11.1,0-16.7c0-0.1-0.1-0.3,0.1-0.5
		c0.2,0.3,0.5,0.5,0.7,0.8c5.8,6.9,11.6,13.8,17.4,20.6c0.2,0.3,0.5,0.6,0.9,0.4c0.4-0.1,0.2-0.5,0.2-0.8c0-5.9,0-11.7,0-17.6
		c0-1.8,0-3.6,0.1-5.4c0.1-2.7,0.7-3.2,3.4-3.3c0.3,0,0.6,0.1,0.5-0.4C308.1,17.8,307.8,18,307.6,18z"/>
	<path fill="#B8B197" d="M275.9,39c-0.4,0.7-0.8,1.3-1.2,2c-1.1,1.7-2.7,2.5-4.6,2.7c-2.5,0.3-5,0.2-7.5,0.1c-0.9,0-1.4-0.4-1.4-1.3
		c-0.3-3.5-0.1-6.9-0.2-10.4c0-0.3,0.2-0.3,0.4-0.3c2.3,0,4.6-0.1,6.9,0.1c2,0.2,2.7,0.9,3.2,2.8c0.1,0.3,0.1,0.6,0.1,0.8
		c0,0.3,0.2,0.3,0.4,0.3c0.3,0,0.3-0.1,0.3-0.4c0-2.9,0-5.8,0-8.8c0-0.2,0-0.4-0.3-0.4c-0.2,0-0.4,0-0.4,0.3c0,0.1,0,0.3,0,0.4
		c-0.2,2.1-0.9,2.9-3,3.2c-2.4,0.3-4.9,0.1-7.3,0.1c-0.3,0-0.3-0.2-0.3-0.4c0-3.3,0-6.7,0-10c0-0.3,0.1-0.5,0.4-0.4
		c3,0.1,5.9-0.1,8.9,0.1c1.8,0.1,3,1,3.4,2.7c0.1,0.3,0.2,0.7,0.3,1c0.1,0.4,0.2,0.7,0.7,0.6c0.5-0.1,0.2-0.4,0.2-0.7
		c-0.1-1.5-0.2-3-0.2-4.6c0-0.6-0.3-0.7-0.8-0.7c-6.7,0-13.5,0-20.2,0c-0.1,0-0.3,0-0.4,0c-0.2,0-0.4,0-0.4,0.3
		c0,0.3,0.1,0.4,0.4,0.4c0.4,0,0.8,0,1.2,0.1c1.4,0.1,2.1,0.7,2.3,2.1c0.1,0.6,0.1,1.2,0.1,1.8c0,5.9,0,11.8,0,17.8
		c0,0.7,0,1.5-0.2,2.2c-0.2,1-0.8,1.6-1.8,1.8c-0.6,0.1-1.2,0.1-1.8,0.1c-0.2,0-0.3,0.1-0.3,0.3c0,0.2,0,0.4,0.3,0.4
		c0.2,0,0.4,0,0.5,0c5.4,0,10.7,0,16.1,0c1.4,0,2.8,0,4.3,0c0.3,0,0.6,0.1,0.7-0.3c0.7-2.1,1.5-4.3,2.3-6.4
		C276.4,38.4,276.2,38.5,275.9,39z"/>
	<path fill="#B8B197" d="M147.2,39c-0.4,0.7-0.9,1.4-1.4,2.1c-0.9,1.3-2.1,2.1-3.7,2.4c-2.8,0.5-5.7,0.3-8.6,0.2
		c-0.7,0-1.2-0.5-1.2-1.3c-0.3-3.5-0.1-6.9-0.2-10.4c0-0.3,0.2-0.3,0.4-0.3c2.3,0,4.7-0.1,7,0.1c1.9,0.2,2.7,0.9,3.1,2.8
		c0.1,0.3,0.1,0.6,0.1,0.8c0,0.3,0.2,0.3,0.4,0.3c0.3,0,0.3-0.1,0.3-0.4c0-2.9,0-5.8,0-8.8c0-0.2,0-0.4-0.3-0.4
		c-0.3,0-0.5,0.1-0.5,0.4c0,0.1,0,0.2,0,0.2c-0.2,2.3-0.8,3-3.1,3.3c-2.4,0.3-4.8,0.1-7.1,0.1c-0.4,0-0.3-0.2-0.3-0.5
		c0-3.3,0-6.6,0-9.9c0-0.3,0.1-0.5,0.4-0.5c3,0.1,6-0.1,9,0.1c1.7,0.1,2.9,1,3.3,2.7c0.1,0.4,0.2,0.8,0.3,1.3
		c0.1,0.4,0.3,0.4,0.6,0.4c0.4,0,0.3-0.3,0.3-0.5c-0.1-1.6-0.2-3.2-0.2-4.7c0-0.6-0.2-0.7-0.8-0.7c-6.2,0-12.4,0-18.6,0
		c-0.6,0-1.3,0-1.9,0c-0.2,0-0.4,0-0.4,0.3c0,0.3,0.1,0.4,0.4,0.4c0.5,0,0.9,0,1.4,0.1c1.3,0.1,1.9,0.7,2.1,1.9
		c0.1,0.3,0.1,0.6,0.1,0.9c0,6.4,0,12.9,0,19.3c0,0.6-0.1,1.2-0.2,1.8c-0.2,0.9-0.8,1.5-1.7,1.7c-0.6,0.2-1.1,0.2-1.7,0.2
		c-0.3,0-0.5,0-0.5,0.4c0,0.4,0.3,0.4,0.5,0.4c0.2,0,0.3,0,0.5,0c5.2,0,10.3,0,15.5,0c1.6,0,3.1,0,4.7,0c0.3,0,0.6,0,0.7-0.4
		c0.7-2.1,1.5-4.2,2.2-6.4C147.7,38.4,147.4,38.5,147.2,39z"/>
	<path fill="#B8B197" d="M332.6,39c-0.4,0.7-0.9,1.4-1.3,2.1c-1.1,1.6-2.6,2.4-4.5,2.6c-2.5,0.3-5,0.2-7.5,0.1c-1,0-1.4-0.4-1.5-1.4
		c-0.3-3.4-0.1-6.8-0.1-10.2c0-0.3,0.1-0.3,0.4-0.3c2.4,0,4.7-0.1,7.1,0.1c1.9,0.2,2.6,0.9,3,2.7c0.1,0.3,0.1,0.6,0.1,0.8
		c0,0.3,0.2,0.4,0.4,0.4c0.3,0,0.4-0.2,0.4-0.4c0-2.9,0-5.7,0-8.6c0-0.2,0-0.5-0.3-0.5c-0.3,0-0.5,0.2-0.5,0.5c0,0.1,0,0.2,0,0.2
		c-0.2,2.2-0.8,2.9-3,3.2c-2.4,0.3-4.8,0.1-7.2,0.1c-0.4,0-0.3-0.2-0.3-0.5c0-3.3,0-6.6,0-9.9c0-0.3,0-0.5,0.4-0.5
		c3,0.1,6-0.1,9,0.1c1.7,0.1,2.9,1,3.3,2.7c0.1,0.4,0.3,0.8,0.3,1.3c0.1,0.4,0.3,0.4,0.6,0.4c0.4,0,0.3-0.3,0.3-0.5
		c-0.1-1.6-0.2-3.2-0.2-4.7c0-0.6-0.2-0.7-0.8-0.7c-6.7,0-13.5,0-20.2,0c-0.1,0-0.3,0-0.4,0c-0.2,0-0.4,0-0.4,0.3
		c0,0.3,0.1,0.4,0.4,0.4c0.4,0,0.8,0,1.2,0.1c1.4,0.1,2.1,0.7,2.3,2.1c0.1,0.4,0.1,0.8,0.1,1.2c0,6.3,0,12.6,0,18.9
		c0,2.3-0.3,3.7-3.5,3.6c-0.1,0-0.1,0-0.2,0c-0.3,0-0.3,0.1-0.3,0.4c0,0.3,0.1,0.4,0.4,0.4c0.2,0,0.3,0,0.5,0c4.5,0,9,0,13.5,0
		c2.3,0,4.6,0,6.8,0c0.3,0,0.6,0,0.7-0.4c0.7-2.1,1.5-4.2,2.3-6.4C332.9,38.5,332.9,38.5,332.6,39z"/>
	<path fill="#B8B197" d="M209.4,44.4c-1.1-0.2-2-0.8-2.6-1.7c-0.4-0.7-0.8-1.4-1.1-2.1c-3.3-7.5-6.5-15.1-9.8-22.6
		c-0.1-0.3-0.1-0.6-0.6-0.7c-0.5,0-0.5,0.3-0.6,0.6c-3.4,7.7-6.8,15.5-10.2,23.2c-0.7,1.7-1.6,3.1-3.7,3.3c-0.3,0-0.4,0.2-0.4,0.5
		c0,0.4,0.2,0.3,0.5,0.3c0.6,0,1.2,0,1.9,0c2,0,4,0,6.1,0c0.3,0,0.5,0,0.5-0.4c0-0.4-0.2-0.4-0.5-0.4c-0.3,0-0.6-0.1-0.9-0.1
		c-1.7-0.3-2.2-1.1-1.6-2.8c0.6-1.8,1.5-3.4,2.2-5.1c0.1-0.3,0.3-0.3,0.6-0.3c3.3,0,6.7,0,10,0c0.3,0,0.5,0.1,0.6,0.4
		c0.6,1.6,1.4,3.1,2,4.7c0.8,2.2,0.4,2.9-1.9,3.2c-0.3,0-0.6,0-0.5,0.4c0,0.5,0.3,0.4,0.6,0.4c1.7,0,3.3,0,5,0c1.6,0,3.1,0,4.7,0
		c0.3,0,0.8,0.3,0.9-0.4C210.3,44.3,209.7,44.5,209.4,44.4z M189.2,34.6c1.6-3.7,3.2-7.3,4.9-11c1.6,3.7,3.2,7.3,4.8,11
		C195.6,34.6,192.5,34.6,189.2,34.6z"/>
	<path fill="#B8B197" d="M390.4,44.5c-1.5-0.2-2.6-1-3.3-2.3c-0.3-0.5-0.5-1-0.7-1.4c-3.3-7.6-6.6-15.2-9.9-22.8
		c-0.1-0.3-0.2-0.6-0.7-0.6c-0.4,0-0.5,0.3-0.6,0.6c-1.8,4.2-3.7,8.4-5.5,12.5c-1.5,3.5-3.1,7-4.7,10.5c-0.8,1.7-1.6,3.3-3.7,3.5
		c-0.3,0-0.4,0.2-0.4,0.5c0,0.4,0.2,0.3,0.5,0.3c1.4,0,2.8,0,4.3,0c1.2,0,2.4,0,3.6,0c0.3,0,0.5,0,0.5-0.4c0-0.3-0.2-0.4-0.4-0.4
		c-0.3,0-0.6-0.1-0.8-0.1c-1.9-0.3-2.4-1.1-1.7-2.9c0.7-1.7,1.5-3.4,2.2-5c0.1-0.3,0.3-0.3,0.6-0.3c3.3,0,6.7,0,10,0
		c0.3,0,0.5,0.1,0.6,0.4c0.7,1.6,1.4,3.1,2,4.7c0.8,2.2,0.3,2.9-2,3.2c-0.3,0-0.6-0.1-0.6,0.4c0,0.5,0.3,0.4,0.6,0.4
		c1.7,0,3.3,0,5,0c1.7,0,3.3,0,5,0c0.2,0,0.6,0.1,0.6-0.4C390.9,44.5,390.7,44.5,390.4,44.5z M369.9,34.6c1.6-3.7,3.2-7.2,4.9-11
		c1.6,3.7,3.2,7.3,4.8,11C376.3,34.6,373.2,34.6,369.9,34.6z"/>
	<path fill="#B8B197" d="M251.1,18c-2.6,0-5.2,0-7.8,0c-0.2,0-0.4-0.1-0.4,0.3c0,0.3,0,0.5,0.4,0.6c0.5,0.1,1,0.3,1.5,0.4
		c0.9,0.3,1.3,1,1.1,1.9c-0.2,0.7-0.4,1.3-0.6,2c-1.4,3.3-2.8,6.7-4.2,10c-0.9,2.1-1.8,4.3-2.8,6.6c-0.8-1.9-1.6-3.6-2.4-5.3
		c-1.8-4-3.6-7.9-5.3-12c-1-2.5-0.5-3.3,2.1-3.7c0.3-0.1,0.5-0.1,0.5-0.5c0-0.5-0.3-0.3-0.6-0.3c-3.4,0-6.9,0-10.3,0
		c-0.2,0-0.6-0.2-0.6,0.3c0,0.5,0.3,0.4,0.6,0.5c1.4,0.2,2.4,0.8,3.1,2.1c0.2,0.4,0.4,0.8,0.6,1.2c3.5,7.7,6.9,15.5,10.4,23.2
		c0.1,0.3,0.1,0.7,0.7,0.7c0.6,0,0.6-0.4,0.7-0.7c1.6-3.8,3.2-7.6,4.8-11.5c1.6-3.8,3.2-7.5,4.8-11.2c0.8-1.7,1.8-3.3,3.8-3.7
		c0.3-0.1,0.3-0.3,0.3-0.5C251.5,17.9,251.3,18,251.1,18z"/>
	<path fill="#B8B197" d="M96,18.6c0-0.5-0.2-0.7-0.7-0.7c-3.6,0-7.2,0-10.8,0c-3.6,0-7.2,0-10.9,0c-0.4,0-0.7-0.1-0.7,0.5
		c-0.1,1.8-0.2,3.7-0.3,5.5c0,0.4,0.2,0.4,0.5,0.4c0.4,0,0.3-0.3,0.4-0.5c0.4-2.7,1.2-3.5,3.9-4c1.4-0.3,2.8,0,4.2-0.1
		c0.7,0,0.8,0.2,0.8,0.8c0,6.7,0,13.5,0,20.2c0,0.5,0,1-0.1,1.5c-0.2,1.6-1,2.2-2.6,2.3c-0.2,0-0.4,0-0.6,0
		c-0.3,0.1-0.7-0.2-0.7,0.4c0,0.5,0.4,0.4,0.7,0.4c3.5,0,7.1,0,10.6,0c0.1,0,0.3,0,0.4,0c0.3,0,0.3-0.2,0.3-0.4c0-0.2,0-0.4-0.3-0.4
		c-0.2,0-0.4,0-0.6,0c-2.1,0-2.8-0.7-3-2.8c0-0.2,0-0.3,0-0.5c0-7,0-14.1,0-21.1c0-0.4,0-0.6,0.5-0.5c1.3,0,2.6,0,3.9,0
		c2.7,0.1,4.2,1.4,4.7,4.1c0.1,0.3,0.1,0.6,0.6,0.5c0.5,0,0.3-0.4,0.3-0.6C96.2,22.1,96.1,20.3,96,18.6z"/>
	<path fill="#B8B197" d="M359.4,18.6c0-0.5-0.2-0.7-0.7-0.7c-3.6,0-7.2,0-10.8,0c-3.6,0-7.2,0-10.9,0c-0.5,0-0.7,0.1-0.7,0.7
		c0,1.8-0.2,3.5-0.2,5.3c0,0.2-0.1,0.5,0.3,0.5c0.3,0,0.6,0,0.6-0.4c0-0.1,0-0.2,0-0.2c0.3-2.4,1.3-3.5,3.7-3.9
		c1.6-0.3,3.2-0.1,4.8-0.2c0.5,0,0.4,0.3,0.4,0.6c0,6.9,0,13.9,0,20.8c0,2.7-0.7,3.4-3.5,3.5c-0.2,0-0.5-0.1-0.5,0.3
		c0,0.4,0.2,0.4,0.5,0.4c3.6,0,7.2,0,10.9,0c0.1,0,0.2,0,0.2,0c0.3,0,0.3-0.2,0.3-0.4c0-0.3-0.1-0.4-0.4-0.4c-0.4,0-0.7,0-1.1,0
		c-1.5-0.1-2.1-0.7-2.4-2.1c-0.1-0.6-0.1-1.2-0.1-1.8c0-2.8,0-5.6,0-8.4c0-4,0-7.9,0-11.9c0-0.6,0.2-0.7,0.7-0.7
		c1.3,0.1,2.6,0,3.9,0c0.9,0,1.8,0.3,2.6,0.8c1.2,0.8,1.7,2,1.9,3.4c0,0.4,0.2,0.5,0.5,0.5c0.5,0,0.3-0.3,0.3-0.5
		C359.5,22.1,359.4,20.4,359.4,18.6z"/>
	<path fill="#B8B197" d="M122,18.7c0-0.6-0.2-0.7-0.7-0.7c-3.6,0-7.2,0-10.8,0c-0.5,0-0.9,0-1.4,0c-3.2,0-6.3,0-9.5,0
		c-0.2,0-0.6-0.2-0.6,0.3c-0.1,1.9-0.2,3.8-0.3,5.7c0,0.4,0.2,0.4,0.4,0.4c0.7,0,0.4-0.6,0.5-0.9c0.4-2.2,1.4-3.2,3.6-3.6
		c1.5-0.3,3.1-0.1,4.6-0.2c0.5,0,0.6,0.2,0.6,0.7c0,6.8,0,13.7,0,20.5c0,2.2-0.1,3.8-3.5,3.7c-0.2,0-0.4-0.1-0.4,0.2
		c0,0.1,0,0.3,0,0.5c0.1,0.2,0.4,0.1,0.6,0.1c3.6,0,7.1,0,10.7,0c0.1,0,0.3,0,0.4,0c0.3,0,0.2-0.2,0.2-0.4c0-0.2,0-0.4-0.3-0.4
		c-0.2,0-0.5,0-0.7,0c-2,0-2.7-0.6-2.9-2.6c0-0.3-0.1-0.5-0.1-0.8c0-7,0-14,0-21c0-0.5,0.1-0.6,0.6-0.5c1.2,0,2.3,0,3.5,0
		c0.7,0,1.3,0.1,2,0.3c1.7,0.6,2.6,1.8,3,3.5c0.1,0.3-0.1,0.9,0.6,0.9c0.7-0.1,0.3-0.6,0.3-1C122.2,21.8,122,20.2,122,18.7z"/>
</g>
</svg>
