<?xml version="1.0" encoding="utf-8"?>
<!-- Generator: Adobe Illustrator 18.1.1, SVG Export Plug-In . SVG Version: 6.00 Build 0)  -->
<svg version="1.1" id="Layer_1" xmlns="http://www.w3.org/2000/svg" xmlns:xlink="http://www.w3.org/1999/xlink" x="0px" y="0px"
	 width="612px" height="792px" viewBox="0 0 612 792" enable-background="new 0 0 612 792" xml:space="preserve">
<g>
	<path fill="#161616" d="M334.1,72.2c-2.5,3.2-3.4,7-3.8,10.8c-0.8,6.7,4.1,11.3,11.7,11.6c4.8,0.7,9.7,0.1,14.6,0.3
		c1.7,0.5,3.5,0.2,5.1,0.9c0.4,0.4,0.5,0.8,0.2,1.3l0,0c-0.3,0.9-0.9,1.5-1.8,1.8c-2.4,0.5-4.5,2.1-7.1,1.8
		c-0.5-0.2-1.2-1.2-1.5,0.2c-8.3,1.5-16.3,1.9-23.1-4.5c-4.7-4.4-5-10-4.6-15.7c0.6-8.1,5.5-14.1,10.7-19.7
		c5.3-5.7,10.8-11.2,17.6-15.2c1.3-0.8,1.5-2.8,3.4-2.9c0.4-0.9,1.2-1.3,2.1-1.4c0.3,0.1,0.5,0,0.6-0.3c1.2-2.1,3.2-2.8,5.4-3.4
		c0.6-0.4,1.2-0.7,1.7-1.1c1-2,2.9-2.1,4.8-2.3c11.6-5.5,23.2-11.1,36-13.4c1.6,0.8,3.1-0.3,4.6-0.5c0.7-0.1,1.4,0,2.1-0.1
		c0.1,0,0.7,0.6,0.3-0.2c0-0.1-0.1-0.2-0.2-0.3c8.3-2.5,17,0.4,21.4,7.3c1,2,0.8,4.1,0,6.1c-1.1,1.4-1.9,3.3-4.2,3
		c-1.1-0.1-1.9-0.2-1.7-1.7c0.7-5.9-0.8-7.7-6.8-8.4c-2.3-0.3-4.7-0.6-7,0c-6.8-0.3-13.1,1.9-19.2,4.1c-12.6,4.6-24.8,10.4-36,18
		c-1.7,1.1-3.2,2.4-4.8,3.6c-0.4,0.8-0.7,1.6-1.9,1.5c-6.8,4.8-12.9,10.4-17.6,17.2C334.7,71,335,72,334.1,72.2z"/>
	<path fill="#151515" d="M163.9,17.3c2.5,2.6,2.4,3.6-1.1,5.7C152,29.5,141.1,36,130.3,42.4c-1.2,0.7-2.4,1.6-3.6,2.4
		c-0.4,1.4-1.8,1.3-2.7,1.7c-11.5,6.5-23,13-34.6,19.5c-0.8,0.9-1.7,1.5-2.9,1.7c-0.3-0.1-0.5,0-0.6,0.3c-0.4,1.3-1.8,1.1-2.7,1.6
		c-2.8,1-4.5,3.2-6,5.6c-1.1,0.7-1.3,1.5,0,2.2c1.2,1.8,1.2,4.3,3.2,5.7c1.1,0.5,1.5,1.6,1.9,2.6c2.4,3.5,5.2,6.6,8.6,9.2
		c0.9,0.7,2.2,1.4,1.6,2.8c-0.7,1.4-2.2,1.5-3.5,1.1c-2-0.7-3.9-1.6-5.9-2.4c-1.2-0.4-2.1-1.2-2.6-2.4c-5.7-5.9-10.5-12.3-9.5-21.2
		c0.5-6.3,5.5-8.5,10.2-11c0.9-0.5,2.1-0.1,2.8-0.9c13.2-6.1,25.9-13.2,38.1-21.1c2.3-1.5,4.9-2.4,7.3-3.6c1,0.4,1.5-0.1,1.7-1
		c2.8-2.9,6.8-3.9,9.8-6.4c0.4-0.9,1.2-1.4,2.2-1.4c1.1-0.7,2.1-1.3,3.2-2c0.9-1.3,2-2.2,3.7-2.3c0.5-0.4,1.1-0.9,1.6-1.3
		c0.8-1.4,2-2.3,3.7-2.2c1.2-1.2,2.7-1.8,4.3-2.1C160.9,17.8,162.4,17,163.9,17.3z"/>
	<path fill="#161616" d="M35.8,96.2c0.4-0.6,0.2-1.6,1.2-1.9c0.3-0.8,0.9-1.3,1.7-1.7c5.2-5.3,9.8-11.2,14.3-17.1
		c0.5-1.4,1-2.7,2.5-3.3c0.7-0.8,1.4-1.5,2.1-2.3c0.1-1.5,0.9-2.5,2.3-3.1c2.9-3.4,6-6.6,8.3-10.4c0.4-1,0.6-2.2,1.8-2.5
		c1.7-0.4,1.3-2.4,2.5-3.2c0.3-0.4,0.4-1.1,1.1-1.2c9.1-10.3,17.1-21.5,25.6-32.4c0.7-0.8,0.4-2.4,2-2.5c2-2.1,3.8-4.8,7.4-3.5
		c1.3,0.4,1.6,1.3,1.3,2.5c-7,10.8-15.6,20.3-23.2,30.6c-3.8,5.1-7.7,10.3-11.5,15.4c-1.5,4.2-4.4,7.2-7.8,9.9
		c-10.4,12.2-20.8,24.5-31.2,36.7c-1.5,1.8-2.9,3.6-5.4,4.2c-4.1,0.2-4.7-0.5-3.4-4.5c1.1-1.5,2.3-3.1,3.4-4.6
		c0.5-1.3,1.3-2.1,2.6-2.6c0.3-0.4,0.6-0.8,0.9-1.1C34.6,97.1,35.1,96.6,35.8,96.2z"/>
	<path fill="#161616" d="M276.7,85.9c-4,4.2-8.9,7.5-12.5,12.2c-0.4,0.8-0.9,1.5-1.9,1.4c-1.2,0.6-2.2,2.3-3.7,0.5
		c0.2-1.3-0.9-2.4-0.6-3.7c4.6-4.9,9.3-9.8,13.9-14.8c0.8-0.9,1.5-1.8,2.2-2.8c4.8-7,4.4-8-3.7-9.8c-5.8-1.2-11.4-0.7-16.7,1.8
		c-1.3,2.1-3.5,2-5.5,2.4c-0.1-0.2-0.3-0.3-0.6-0.3c-2.5,0.7-3.6-1-4.6-2.8c-0.9-0.7-0.5-1.4,0.2-1.7c9-3.9,18.1-7.4,28.3-4.9
		c-0.2,0.2-0.5,0.3-0.8,0.4c-0.5,0.1-1.1,0.1-1.6,0.1c0.4,0,0.8,0,1.2,0c0.4,0,0.8-0.1,1.2-0.5c4.6,0.1,8.6,2.1,12.4,4.5
		c1.9,1.1,2.2,2.6,1,4.5c-0.1,0.3-0.2,0.5-0.3,0.8c-2.8,6.6-2.8,6.6,4.6,6.1c1.8-2.5,3.1-5.5,6-7c2.4-2.9,5.2-5.6,7.1-8.8
		c1.4-2.3,3.4-2.3,4.8-1.6c1.8,0.9,0,2.8-0.5,4c-2,4.8-5.4,8.9-8.4,13.2c1,0.8,1.9,0.4,2.7,0.4c1.4-0.1,3.4-1,3.9,0.7
		c0.6,2.2-1.7,3.3-3.2,3.4c-8.8,0.4-13.3,6.3-17.4,13c-0.5,0.7-0.9,1.6-1.6,2.1c-1.4,1.1-3,1.6-4.4,0.4c-1.3-1.1-0.4-2.5,0.2-3.5
		c1.8-2.9,3.7-5.7,5.5-8.5c-1.8-1.2-4,0.3-5.5-1.2c1.6-1,3.2-0.3,4-0.3C280.9,85.2,278.8,84.5,276.7,85.9z"/>
	<path fill="#161616" d="M161.8,77.6c0.5-0.5,1.1-1.1,1.6-1.6c-0.2-1.7,1-2.3,2.2-2.8c0.6-0.6,1.2-1.2,1.8-1.8
		c0.5-1.3,1.4-2.2,2.7-2.7c1.7,0.5,4.1-1.5,5.2,0.5c1.3,2.5-1.7,3.4-2.9,4.7c-5.9,6.2-9.8,13.8-15.8,19.9c-3.6,3.7-7.5,7-13.3,6.7
		c-0.7,0-1.5,0-1.8-0.8c-0.7-1.7,0.4-3.6-0.7-5.3c-3.5-0.5-4.9,2.7-7.2,4.2c-2,1.4-3.7,2.4-5.6,0.1c-1.8-2.2-1.2-4,1.3-5.2
		c0.4-1.3,1.7-1.3,2.7-1.7c5.9-3.3,10-8.5,14-13.8c2.3-3.1,4.4-6.6,7.3-9.3c1.1-0.1,2,0.5,3.1,0.7c2,1.1,2.4,2.6,1.3,4.6
		c-1.3,5.6-5.2,9.8-7.1,14.8C154.9,85.9,157.1,80.5,161.8,77.6z"/>
	<path fill="#161616" d="M174.4,98c-1,0.6-2,1.2-3,1.7c-1.3,0.7-2.7,2.5-4,0.2c-1.1-1.9-2.5-4.5,0.1-5.8c6.8-3.4,10.8-9.2,14.7-15.2
		c1.3-2,3.1-3.6,4.4-5.5c0.8-1.2,1.4-2.4,3.1-1.7c1.8,0.8,2.1,2.5,1.5,4.2c-1.3,3.8-2.9,7.6-4.3,11.3c-0.2,1.9-0.5,3.8,2.4,2
		c1.1-0.7,2-1.5,3.4-1.7c0.3,0.1,0.5,0,0.5-0.3c0.6-1.4,1.4-2.7,2.9-3.3c3.1-2.9,4.9-6.7,6.9-10.3c0.9-1.7,1.9-3.2,3.5-4.2
		c3.4-0.2,2.7,2.3,2.8,4.3c-0.5,1.4-1.2,2.7-2.1,3.9c-0.8,0.3-0.7,1-0.7,1.7c-0.9,4.4-3,8.1-6.7,10.8c-0.2,0.3-0.3,0.5-0.5,0.8
		c0,1.7-1.5,2-2.5,2.7c-4.5,4-9.5,6.6-15.8,5.1c-0.4-0.1-0.6-0.4-0.6-0.8c-0.1-0.3-0.3-0.5-0.4-0.8c-0.8-0.6-0.7-3.3-2.6-0.9
		C176.6,97.1,175.5,97.7,174.4,98z"/>
	<path fill="#161616" d="M384.7,99.7c-3.9,0.6-7.9,1.4-11.9,0.8c-2-0.2-3.1-1.6-3.9-3.2c-0.4-0.3-0.9-0.6-0.3-1.2
		c0.4-1.4,0.5-2.9-0.2-4.2c2-6.9,7.3-10.7,13.3-13.6c2.2-1.1,4.6-1.8,6.9-2.8c1.8-0.8,3.8-0.8,4.9-3.2c1-2,3.1-0.6,4.6,0
		c1.1,0.5,1.7,1.3,1.4,2.6c-0.7,1.4-0.3,2.9-0.6,4.3c-0.3,1.4-0.8,2.7-0.3,4.2c-0.1,3.9-1.3,7.1-4.6,9.4c-1.5,2.2-3.3,4.1-5.6,5.4
		C387.7,100,386,99.3,384.7,99.7z"/>
	<path fill="#171717" d="M454.9,87.4c-3.4,3.1-7.9,2-11.8,3.2c-1.6,0.5-3.1,1.1-2.9,2.6c0.1,1.9,2.2,1.4,3.6,1.7
		c2.6,0.6,5-2.7,7.7-0.4c0.3,1.4-1,2.4-0.9,3.7c-1.2,1.4-2.8,1.7-4.5,1.7c-3.5-0.5-7.1-0.7-10.6,0.1c-1.5-0.2-2.5-1-2.7-2.6
		c-0.2-1.2,0.5-2.4,0.1-3.5c0.6-3.5,3-5.8,5.4-8.1c3.6-3.6,6.9-7.5,10.9-10.7c2-1.7,4.1-2.6,6.8-2.5c1.2,0.5,2.3,0.8,3.4-0.1
		c2-1.4,4.2-0.5,6.3-0.7c0.2,0.4,0.1,0.7-0.3,1c-0.4,0.2-1,0.3-1.4,0.6c0.7-0.1,1.3-0.5,1.8-1c0.9-0.8,2.4,0.5,3.2-0.9
		c0.1-0.2,0.1-0.5,0.3-0.7c2.3-1.1,4.9-0.1,7.3-0.9c1-0.3,2.1,0.1,2.6,1.1c0.7,1.4,0.3,2.5-1.2,3.2c-8.2,0.9-15.9,4-23.9,5.6
		c-2.2,0.4-4.8,1.9-5.1,5c1.1,1.4,2.6,0.4,3.9,0.7C454.1,85.6,454.9,86,454.9,87.4z"/>
	<path fill="#161616" d="M219.9,76.6c-0.7-6.1,0.7-8,7-9.6c1.7,0.3,3.1-0.5,4.5-1.1c0.3-0.2,0.6-0.5,0.9-0.7
		c0.9,0.3,1.7,0.5,2.6,0.8c1.5,1.6,1.6,3.4,0.9,5.4l0,0c-1.4,0.9-3.2-0.2-4.5,0.8c-1.4-0.2-2.6,0.1-3.3,1.4c7,4.5,7,6.6-0.4,10.8
		c-4.5,2.6-9.6,4.3-13.1,8.7c2.2,1.8,6-1,7.1,2.8c-0.5,1,0.4,2.6-1.3,3.1c-0.2-0.2-0.5-0.3-0.7-0.5c-0.4-0.4-1,0-1.5-0.3
		c0,0.3,0.2,0.3,0.6,0.2c0.3-0.1,0.6,0,0.8,0.1c0.3,0.2,0.4,0.4,0.4,0.6c0,0.2,0,0.4-0.1,0.4c-4.2,0.8-8.1-0.6-12-1.7
		c-0.5,0-0.7-0.2-0.8-0.7c0.2-1.8,0.3-3.6,0-5.3c0.3-2.3,1.9-3.5,3.7-4.5c0.4-0.3,0.8-0.7,1.1-1c0.8-1.6,2.3-1.9,3.8-2.4
		c0.5-0.4,1-0.8,1.6-1.1C218.2,80.8,221.5,79.8,219.9,76.6z"/>
	<path fill="#161616" d="M127.5,74.1c-3.1,1.1-5.6,3.4-8.9,4c-0.1,2.4,2.4,0.8,2.8,2.2c-0.3,0.4-0.7,0.4-1.1,0.5
		c0.2,0.1,0.5,0,0.7,0.1c1,0.2,2,0,2.9-0.4c4.2,1.1,2.3,3.4,0.6,5c-2,1.9-4.5,3.3-6.8,4.8c-0.8,1.5-2.3,1.9-3.8,2.3
		c-0.3-0.1-0.5,0-0.6,0.3c-0.5,1.4-4.3,2.1-1,4.4c0.3,0.9,1,0.8,1.7,0.8c1.3,1.6,0.2,2.5-1,3.4c-0.9,0-2,0.5-2.7-0.6
		c-1.3-1.4-2.7-0.5-4.1-0.3c-2.3,0-4.5-0.1-5.3-2.8c-0.7-2.6,0.5-4.2,2.5-6c2.6-2.4,5.9-3.5,8.8-5.5c-0.1-1.5-2.3-1-2.6-2.3
		c0.3-1.6-1-2.9-0.8-4.5c3.8-5.1,9.5-7.3,15-9.8C126.8,69.6,127.8,71.3,127.5,74.1z"/>
	<path fill="#171717" d="M405.3,98.9c-1.6,0.6-1.5-1.6-2.7-1.7c-0.8-0.4-1.3-1-1.4-1.9c0.1-1.6,0.4-3.2-0.1-4.8
		c1.7-5.4,5.3-9,10.5-11.1c3.5-2.2,7-4.6,10.6-6.7c2-1.2,4.3-2.4,6.3,0.4c-0.1,1.1-0.6,2-0.9,3c-5.9,4.1-12.6,7.1-17.2,12.8
		c-1,1.2-3,2-2.2,4c0.7,1.8,2.7,1.5,4.3,1.5c1.5,0,3,0.1,4.4,0.1c1.2,0.9,2.5,0,2.9,0.3c-0.3,0-1.4,0.6-2.3-0.4
		c3.3-0.5,6.6-0.9,9.9-1.4c0.7,0.5,0.6,1,0,1.5c-0.3,0.2-0.6,0.5-0.9,0.7c-0.5,1.4-1.7,1.7-2.9,1.8c-1.6,0.1-2.8,1.5-4.5,1.1
		C414.4,98.9,409.8,98.8,405.3,98.9z"/>
	<path fill="#171717" d="M242.2,88.4c2-1.5,3.8-3.2,5.2-5.2c2.2-3.8,4.9-7.1,9.1-8.9c3.8,1.2,4.8,3,2.3,5.7
		c-6.1,6.7-12.1,13.6-19.5,19c-1.6,1.2-3.3,1.5-4.6-0.2c-1.7-2.1-0.4-3.7,1.1-5.3C237.8,91.6,239.4,89.3,242.2,88.4z"/>
	<path fill="#161616" d="M28.1,61.7c4.3,0.3,8.7-2,13,0c-1.4,0.8-2.9,0.3-4.4,0.4c1.7,0.3,3.3-0.3,4.9,0.4l-0.1-0.1
		c1.5,3.1,1.2,3.6-2.3,3.5c-10.8-0.3-21.6-0.2-32.5-0.2c-1.2,0-2.4-0.3-3.4,0.4c-3.1-0.4-4.6-1.5-1.8-4.4
		C10.4,61.7,19.2,61.7,28.1,61.7z"/>
	<path fill="#F9F9F9" d="M411.6,79.5c-2.7,2.8-6.1,4.8-8.4,8c-0.8,1.1-1.7,2-1.5,3.5c1.2,1.4-0.4,2.8,0.1,4.1
		c-0.2,0.9,0.3,1.5,0.8,2.2c-1.5,0.7-3.3,0.7-3.6-0.9c-0.7-2.8-3.2-2.5-4.9-3.6c1.4-3.3,3.7-6.2,4.1-9.8c-0.1-0.5,0-0.8,0.5-1
		c0.2,0.1,0.4,0.2,0.6,0.3c-0.2,1.2,0.7,1.9,1.2,2.7c0.3,0.6-1.1,2,0.8,1.7c0.7-0.1,1.5-0.7,1.3-1.5c-0.7-2.5,0.5-3.1,2.6-3.2
		c0.5,0,1.2-0.5,1.4-0.9C407.8,78.1,407.7,78.1,411.6,79.5z"/>
	<path fill="#FBFBFB" d="M207.6,97.1c0,0.3,0.1,0.5,0.1,0.8c-3,1.2-4.4-0.2-3.7-3c1-4.1-0.5-5.4-4.3-4.9c2.2-3.6,4.5-7.2,6.7-10.8
		c2.4,2.2,0.7,6.5,4.2,8.1c-0.6,1.8-2.8,2.5-3.1,4.5C207.4,93.6,207.3,95.4,207.6,97.1z"/>
	<path fill="#161616" d="M490.5,66.1c-3.1-0.4-4.6-1.6-1.8-4.4c8.9,0,17.7,0,26.6,0c4.3,0.3,8.7-2,13,0c-1.4,0.9-2.9,0.1-4,0.4
		c1.3,0.2,2.9-0.4,4.5,0.4l-0.1-0.1c2,2.1,1.6,3.7-1.3,3.5c-4.9-0.5-10,1.2-14.8-0.7c-0.4,0-0.9-0.1-1.3-0.2
		C504.3,64.6,497.3,63.6,490.5,66.1z"/>
	<path fill="#F6F6F6" d="M161.8,77.6c-3.8,5.3-8.2,10.1-12.9,14.6c-0.4-0.3-0.7-0.6-1.1-0.9c3.3-5.7,6.6-11.4,9.9-17.2
		C158,76.5,160.9,75.9,161.8,77.6z"/>
	<path fill="#111111" d="M490.5,66.1c1.3-2.2,3.3-2.9,5.8-2.6c5.2,0.5,10.5-1.1,14.7,1.1c-4.7,0.2-9.8,0.2-12.8,0.2
		c3.1-0.2,8.4,0.3,12.8-0.2c5.9,1.2,11.1,0.1,16.3,0.5c3,0.2,1.8-1.3,1.4-2.6c3.5-0.1,1.3,2.4,1.7,3.7c-2.4,0.7-4.8,0.6-7.2,0
		c-6.7,1.7-13.3-0.4-20,0C498.9,66.5,494.7,66.1,490.5,66.1z"/>
	<path fill="#F4F4F4" d="M67.3,69.7c2.6-3.3,5.2-6.6,7.8-9.9c2.7,2.3,5.9-0.3,8.8,0.9c-4.8,3.4-10.6,5.9-13,12
		C70.1,71.2,69.2,69.8,67.3,69.7z"/>
	<path fill="#171717" d="M127.5,74.1c-0.9-1.8-1.7-3.7-3.7-4.5c2.4-1.9,5.3-2.6,8.1-3.6c1.5,0.1,3,0.1,4.5,0
		c3.7,1.9,1.3,3.5-0.5,4.5C133.3,72,130.3,72.9,127.5,74.1z"/>
	<path fill="#F8F8F8" d="M256.5,74.2c-3,3-6.1,5.9-9.1,8.9c-0.4-1.5-4.1-3.1,0.9-4.3c3.7-0.9,0.9-3.8-0.3-5.7
		c1.8-0.8,3.7-1.6,5.5-2.4C254.5,71.9,255.5,73.1,256.5,74.2z"/>
	<path fill="#131313" d="M3.3,66.1c0.7-0.9,1.8-0.8,2.8-0.8C17.4,65.1,28.7,64.9,40,65c3,0,1.8-1.3,1.5-2.6c3.5-0.1,1.3,2.4,1.7,3.7
		c-2.4,0.7-4.8,0.6-7.2,0c-6.4,1.8-12.7-0.4-19.1,0C12.3,66.5,7.8,66.1,3.3,66.1z"/>
	<path fill="#0B0B0B" d="M28.1,61.7c-0.4,0.4-0.8,1.2-1.2,1.2c-8-0.1-16-0.2-24-0.4c-0.5,0-1-0.5-1.5-0.8
		C10.4,60.6,19.2,60.6,28.1,61.7z"/>
	<path fill="#0B0B0B" d="M515.3,61.7c-0.4,0.4-0.8,1.2-1.2,1.2c-8-0.1-16-0.2-24-0.4c-0.5,0-1-0.5-1.5-0.8
		C497.6,60.6,506.4,60.6,515.3,61.7z"/>
	<path fill="#F7F7F7" d="M477.9,74c1.6-2.6,1.8-4.1-2.1-3.6c-2.2,0.3-4.4,0.1-6.6,0.1c3.8,0.1,6.2-4.7,10.4-3
		c0.8,0.3,2.9-0.9,2.4,0.3c-1,2.4,1.3,4.6,0,6.4C480.9,75.8,479.2,74.6,477.9,74z"/>
	<path fill="#F9F9F9" d="M398.9,75c-0.3-0.9-0.5-1.8-0.8-2.7c1.1,0,0.3-2.2,1.9-1.7c1.7,0.6,2.3,2,2.2,3.6c0,1,0.9,2.7-1.7,1.8
		c-0.7-0.3-0.8,2.4-0.3,3.3c1.1,2,1.3,1.9-1,2.9c0,0-0.2-0.2-0.2-0.2c-0.7-0.8-0.6-1.8-0.4-2.7C398.8,77.8,398.3,76.4,398.9,75z"/>
	<path fill="#F7F7F7" d="M295,72.3c-1.9,2.5-3.1,5.5-6,7c-1.6-1.8-1.6-1.7,0.6-3.3c0.9-0.6,1.6-1.8,1.8-2.9
		C292,70,293.4,70.8,295,72.3z"/>
	<path fill="#F6F6F6" d="M361.8,97.2c0-0.3,0-0.6-0.1-0.9c-1.3-1.1-3,0.1-4.3-0.8c-5.1-0.5-10.4,1-15.4-0.8
		c6.6-0.1,13.1-0.1,19.7-0.1c1.1,0,2.6-0.3,2.6,1.5C364.1,97.4,362.7,97,361.8,97.2z"/>
	<path fill="#F8F8F8" d="M27.3,106.1c-0.6,2.8,0.5,4.4,3.4,4.5c-0.9,3.2-3.5,1.9-4.6,1c-1.8-1.5-2.2-4.2-1.3-6.4
		C25.3,104.1,26.4,106,27.3,106.1z"/>
	<path fill="#FBFBFB" d="M219.9,76.6c3.3,3.2,3.2,3.4-2.7,6.2c-0.7-1.2-1.4-2.5-2.3-4.1C217,78.8,218.8,78.5,219.9,76.6z"/>
	<path fill="#F7F7F7" d="M284.8,72.3c0.1-1.6-0.3-3.1-1-4.5c1.4-0.9,3.3-0.9,3.7,0.5c0.5,1.7,1.7,4.1,0,5.7
		C285.2,76.1,285.8,72.7,284.8,72.3z"/>
	<path fill="#F4F4F4" d="M242.2,88.4c-1.6,2.4-3.7,4.1-6.4,5.1c-2.1-2.6-2.1-2.8,0.6-3c1-0.1,2.1-0.4,2.1-1.1
		C238.7,84.6,240.8,88,242.2,88.4z"/>
	<path fill="#FBFBFB" d="M207.1,77.6c0.4-1.2,0.9-2.3,1.3-3.5c0.2-0.3,0.5-0.4,0.9-0.4c0.3-0.9-0.3-2.1,0.9-2.7
		c0.6-0.1,1.1,0,1.6,0.4c1.4,1.5-1,3,0,4.5c0.7,1.1,0,2.1-0.8,2.6c-1.5,0.9-1.4-0.7-2-1.5C208.2,75.8,207.9,77.8,207.1,77.6z"/>
	<path fill="#F3F3F3" d="M192.6,87.5c-1,0.9-1.9,1.8-3,2.6c-1.2,0.8-2.8,2.3-3.9,1.2c-1.2-1.2,0-2.9,1.1-4.1
		C188.7,89.2,190.8,85.2,192.6,87.5z"/>
	<path fill="#F7F7F7" d="M414.6,26c2.3-1.4,4.7-1,7,0c-0.5,0.2-1.2,0.2-1.6,0.6c-0.5,0.5,0.1,0.6,0.5,0.7c1.6,0.2,3.3,0.4,5.8,1.9
		c-3.3-0.2-5.4-0.3-7.5-0.5c-0.9-0.1-0.8-0.3-1.3-2C417.1,25.5,415.6,26.4,414.6,26z"/>
	<path fill="#0B0B0B" d="M405.3,98.9c2.9-2.5,6.3-0.3,9.4-1c1.3-0.3,2.9,0.1,4.3,0.2C414.5,99.9,409.9,100.5,405.3,98.9z"/>
	<path fill="#F8F8F8" d="M242.9,70c1,1.7,3.3,1.5,4.6,2.8c0.6,4.3-2.4,1.4-3.6,1.7c-1.9,0.5-2.3-0.8-2-2.2
		C241.9,71.5,242.5,70.7,242.9,70z"/>
	<path fill="#F9F9F9" d="M363.6,37.7c-1.8,1.1-3.6,2.3-5.4,3.4c-0.4-1.3-2.8-1.8-1.8-3.5c0.9-1.5,2.4,0.4,3.5-0.1
		C361.2,37.1,362.4,36.9,363.6,37.7z"/>
	<path fill="#F7F7F7" d="M209.2,74.1l-0.4,0l-0.4,0c-0.4-1.7,1.3-4.2-2-4.7c0.5-1.9,2-2.5,3.6-2.2c2.4,0.5,0.4,3.1,1.7,4.2
		c-0.6,0-1.2,0-1.8,0C208.9,72,210.1,73.4,209.2,74.1z"/>
	<path fill="#F9F9F9" d="M370.1,34.3c-1.4,1.1-3,2.1-4.8,2.3c-0.3-1.3-3-2-1.8-3.3c1-1.2,3.1-1,4.7,0.1
		C368.8,33.7,369.5,34,370.1,34.3z"/>
	<path fill="#F6F6F6" d="M112.4,97.3c-1.3-0.5-2.7-0.9-4.2-1.4c1.5-1.8,3.4-2.3,5.2-3C115.8,95,114.1,96.2,112.4,97.3z"/>
	<path fill="#F7F7F7" d="M155.1,19.4c-1.1,1-2.1,2.1-3.7,2.2c-0.2-1.2-2.4-2.3-0.4-3.6C152.9,16.8,154.3,17.4,155.1,19.4z"/>
	<path fill="#F4F4F4" d="M384.7,99.7c1.3-0.5,2.5-1,3.8-1.5c0.5,1.1,3.5,1.5,1.7,2.9C388.9,102.1,386,102.1,384.7,99.7z"/>
	<path fill="#F7F7F7" d="M174.4,98c1.6-1.7,3.1-3.3,5.4-5.7c0,2.2,0,3.6,0,4.9C177.9,96.4,176.5,99.4,174.4,98z"/>
	<path fill="#F8F8F8" d="M219.8,98.8c1.4-0.4,0.6-2.2,1.7-2.8c-0.3,1.4,3.6-0.1,1.6,2.2c-0.9,1.1,1.2,2.8-1,3.2
		c-1.5,0.3-2.2-0.5-2.3-1.9C219.7,99.3,219.7,99.1,219.8,98.8L219.8,98.8z"/>
	<path fill="#F6F6F6" d="M114,92.6c0.9-1.4,2.5-1.6,3.8-2.3c0.8,0.8,2.6,1.7,1.8,2.6C118,94.6,115.8,93.4,114,92.6z"/>
	<path fill="#F8F8F8" d="M232.3,65.3c-0.1,0.2-0.1,0.4-0.2,0.7c-1.3,1.2-2.8,1.3-4.3,0.4c-0.1-0.9-2.6-1.7-0.3-2.6
		c1-0.4,3-1.6,3.6,0.7C231.4,65.4,231.9,65.1,232.3,65.3z"/>
	<path fill="#F8F8F8" d="M235.8,71.4c1-2-0.2-3.6-0.9-5.4c1.1-0.5,1-2.6,3.2-2.2C237.1,66.4,237.3,69.1,235.8,71.4z"/>
	<path fill="#121212" d="M454.9,87.4c-1.5-1.4-3.3-1.9-5.4-1.4c-1.6,0.4-1.8-0.3-0.6-1.4c1.7-0.1,3.5-0.3,5.2-0.1
		C456.3,84.8,456.3,86,454.9,87.4z"/>
	<path fill="#F3F3F3" d="M196,83.9c-0.2,1.8-1.6,2.5-2.9,3.3c-0.8-1.3-1.1-2.7-0.6-4.3C193.9,82.3,194.8,83.7,196,83.9z"/>
	<path fill="#F7F7F7" d="M423.5,97c1-0.6,2-1.2,2.9-1.8c0.8,1.8,3,0.5,4.4,2C428.2,97.4,425.9,98.4,423.5,97z"/>
	<path fill="#F9F9F9" d="M122.4,92.6c2.6,1.2,4,2.7,3,4.4c-1.5,2.3-1.6,0.5-1.8-0.9C123.6,95.1,123,94.2,122.4,92.6z"/>
	<path fill="#FBFBFB" d="M215.5,83.9c-1.1,1.1-2.2,2.1-3.8,2.4c-0.9-1.4,0.3-2.7,0-5.1C212.9,83.4,214.3,83.4,215.5,83.9z"/>
	<path fill="#F4F4F4" d="M70,54c-0.2,1.2-0.9,1.9-1.8,2.5c-0.8-1.3-2.3-2.8-1.1-4.1C67.8,51.6,69.2,52.9,70,54z"/>
	<path fill="#F3F3F3" d="M452.3,94.5c2.2,2.5,1.5-0.7,2.2-1.2c1.9,3,1.1,4.2-2.4,3.8C451.5,96.2,451.7,95.3,452.3,94.5z"/>
	<path fill="#F6F6F6" d="M165.7,73.2c-0.7,1-1,2.2-2.2,2.8c-4.2-0.7,0.4-2.5-0.4-3.7l0,0C163.9,72.6,164.8,72.9,165.7,73.2z"/>
	<path fill="#050505" d="M435.4,99.8c3.5-1.4,7.1-1.3,10.6-0.1C442.5,100.3,439,100.2,435.4,99.8z"/>
	<path fill="#F2F2F2" d="M80.4,93.9c1.2,0.5,2.4,0.9,2.6,2.4c-1.3,0.4-2.9,1.2-3.9,0.1C78.4,95.6,80,94.8,80.4,93.9z"/>
	<path fill="#F5F5F5" d="M352.8,53.2c0.3-0.9,1-1.2,1.9-1.5c0.2,1.3,2.7,2.3,1.1,3.5C354.8,56.1,352.9,55.3,352.8,53.2z"/>
	<path fill="#F6F6F6" d="M368.8,97.4c1.3,1.1,2.6,2.1,3.9,3.2C369.8,101.5,368.5,100.5,368.8,97.4z"/>
	<path fill="#FBFBFB" d="M196.6,93.6c0.8-0.9,1.7-1.8,2.5-2.7c1.2,0.8,1.5,1.9,0.7,2.9C198.9,94.9,197.7,93.4,196.6,93.6z"/>
	<path fill="#F4F4F4" d="M59.8,66.9c-0.2,1.4-1.3,2.2-2.3,3.1c-0.7-0.6-1.3-1.2-2-1.9C56.9,67.3,58,66,59.8,66.9z"/>
	<path fill="#F2F2F2" d="M33.3,98.9c-0.3,1.4-1.2,2.3-2.6,2.6c-0.4-0.7-0.7-1.5-1.1-2.2C30.8,98.8,32,98.1,33.3,98.9z"/>
	<path fill="#F4F4F4" d="M55.4,72.3c-0.2,1.6-1.6,2.3-2.5,3.3C51.7,72.9,52.6,71.8,55.4,72.3z"/>
	<path fill="#131313" d="M227.9,66.3c1.4-0.1,2.9-0.3,4.3-0.4c-1.3,2.6-3.2,2.4-5.3,1.1C227.2,66.8,227.5,66.6,227.9,66.3z"/>
	<path fill="#101010" d="M108.8,79.4c0.8,1.4,2.5,2.7,0.8,4.5C108.4,82.6,107.7,81.1,108.8,79.4z"/>
	<path fill="#090909" d="M136.4,66c-1.5,1.4-3,1.4-4.5,0C133.4,65,134.9,64.9,136.4,66z"/>
	<path fill="#F2F2F2" d="M262.3,99.5c0.6-0.5,1.3-0.9,1.9-1.4c0.3,1.1,1.8,2.5-0.2,3.2C262.7,101.8,262.4,100.5,262.3,99.5z"/>
	<path fill="#0B0B0B" d="M123.9,80.5c-1.7,2.1-3.8,0.1-6.7,1.6c1.8-2.1,3.1-1.5,4.2-1.8C122.2,80.3,123.1,80.4,123.9,80.5z"/>
	<path fill="#0B0B0B" d="M276.7,85.9c2-2.4,4.6-0.6,6.9-0.5c-1.8,0.1-3.6,0.2-5.4,0.3C277.7,85.8,277.2,85.8,276.7,85.9z"/>
	<path fill="#F4F4F4" d="M83.1,69.6c0.6-1.1,1.6-1.4,2.7-1.6c0.4,0.9,1.3,1.8,0.1,2.6C84.6,71.6,84.1,69.7,83.1,69.6z"/>
	<path fill="#F4F4F4" d="M170.1,68.8c-0.9,0.9-1.8,1.8-2.7,2.7C166,68.1,167.7,68.1,170.1,68.8z"/>
	<path fill="#0B0B0B" d="M368.3,91.9c2.7,1.3,1.6,2.8,0.2,4.2C368.5,94.7,368.4,93.3,368.3,91.9z"/>
	<path fill="#070707" d="M163.9,17.3c-1.5,1.3-2.9,1.3-4.4,0C160.9,16.4,162.4,16.2,163.9,17.3z"/>
	<path fill="#1F1F1F" d="M452.3,94.5c0.5,0.9,0,1.7-0.2,2.6c-0.5,0.3-1.1,0.6-1.6,1c-2-1.8-0.5-2.7,0.9-3.7
		C451.7,94.5,452,94.5,452.3,94.5z"/>
	<path fill="#F6F6F6" d="M360,98.9c0.6-0.6,1.2-1.2,1.8-1.8c0.3,1.1,2.1,1.9,1.3,2.8C361.9,101.3,361.1,99,360,98.9z"/>
	<path fill="#F7F7F7" d="M149.8,22.9c-1,1.1-2.1,2-3.7,2.3C146.6,23.3,146.8,20.9,149.8,22.9z"/>
	<path fill="#F7F7F7" d="M261.2,72c-2.2,1.5-3.4,1.5-4.9,0.4C257.7,71.5,258.9,71.8,261.2,72z"/>
	<path fill="#F7F7F7" d="M180.2,97.9c0.2,0.3,0.4,0.5,0.6,0.8c0,1-0.3,1.6-1.6,1.5c-0.7-0.1-1.1-0.2-1-1
		C178.4,98.1,179.4,98.1,180.2,97.9z"/>
	<path fill="#F0F0F0" d="M123.9,46.5c0.6-1,1.7-1.3,2.7-1.7c0.6,1,0.7,2.1-0.2,2.7C125.3,48.3,124.9,46.6,123.9,46.5z"/>
	<path fill="#F6F6F6" d="M113,101.5c0.3-1.1,2-1.9,1-3.4c2.2-0.2,1.3,1.6,1.3,2.4C115.3,102.3,113.9,101.3,113,101.5z"/>
	<path fill="#161616" d="M36,66.1c2.4,0,4.8,0,7.2,0C40.8,67.5,38.4,67.1,36,66.1z"/>
	<path fill="#F4F4F4" d="M86.4,67.7c0.7-1.1,1.7-1.5,2.9-1.7c-0.4,1.2-0.8,2.4-1.1,3.6C87.6,69,87,68.4,86.4,67.7z"/>
	<path fill="#161616" d="M523.2,66.1c2.4,0,4.8,0,7.2,0C528,67.5,525.6,67.1,523.2,66.1z"/>
	<path fill="#0A0A0A" d="M410.6,20.8c-1.4,1.4-2.9,1.3-4.4,0.1c1.4-0.7,2.8-1.1,4.4-0.9c0.3,0.2,0.4,0.4,0.3,0.5
		C410.8,20.7,410.7,20.8,410.6,20.8z"/>
	<path fill="#F0F0F0" d="M434.4,33.2c0-2,0-4.1,0-6.1C437,29.2,435.6,31.2,434.4,33.2z"/>
	<path fill="#0B0B0B" d="M257.9,96.3c1,1.1,1.9,2.2,0.6,3.7C256.9,99,256.5,97.8,257.9,96.3z"/>
	<path fill="#F2F2F2" d="M109.8,13.7c-0.4-0.8-0.9-1.7-1.3-2.5c0.9-0.3,1.9-1.2,2.6,0.2C111.7,12.7,110.7,13.2,109.8,13.7z"/>
	<path fill="#E7E7E7" d="M140.8,94.5c1.2,1.6,0.1,3.6,0.7,5.3C140.1,98.2,140.8,96.3,140.8,94.5z"/>
	<path fill="#F9F9F9" d="M357.6,41.4c-0.4,0.9-1.2,1.1-2.1,1.4c-0.3-0.6-1.6-0.7-1-1.6C355.5,39.8,356.5,41.1,357.6,41.4z"/>
	<path fill="#F0F0F0" d="M73.5,49.6c-0.1,0.6-0.2,1.3-1.1,1.2c-0.3-0.7-1.9-0.9-1.2-1.9C72.1,47.8,73,48.6,73.5,49.6z"/>
	<path fill="#090909" d="M432.9,93.6c1.1,1.2,1.2,2.4-0.1,3.5C431.8,96,432.2,94.8,432.9,93.6z"/>
	<path fill="#F1F1F1" d="M143,27.2c-0.5,0.8-1.3,1.3-2.2,1.4c-0.3-0.7-2-1-1.2-1.7C140.4,26.1,141.8,26.6,143,27.2z"/>
	<path fill="#F3F3F3" d="M132,91.9c-0.7,0.9-1.5,1.6-2.7,1.7c-0.4-0.4-0.7-0.9-1.1-1.3C129.4,91.4,130.7,91.1,132,91.9z"/>
	<path fill="#F1F1F1" d="M101.1,14.7c-0.7,0.8-1.4,1.7-2,2.5c-0.1-1-0.7-2.2-0.3-2.9C99.4,13.4,100.3,14.6,101.1,14.7z"/>
	<path fill="#F3F3F3" d="M334.1,72.2c0.4-0.6,0.7-1.2,1.1-1.7c0.7,1,2.2,1.6,1.6,3.7C335.8,73.5,335.4,71.9,334.1,72.2z"/>
	<path fill="#0B0B0B" d="M41.5,62.5c-1.8,0-3.6,0-6.2,0c2.4-1.2,4.1-0.6,5.8-0.8C41.3,61.9,41.4,62.2,41.5,62.5z"/>
	<path fill="#0B0B0B" d="M528.7,62.5c-1.8,0-3.6,0-6.2,0c2.4-1.2,4.1-0.6,5.8-0.8C528.4,61.9,528.6,62.2,528.7,62.5z"/>
	<path fill="#F3F3F3" d="M82.2,85.7c-0.9-0.7-1.7-1.4-1.9-2.6C82.5,82.8,83.5,83.4,82.2,85.7z"/>
	<path fill="#F5F5F5" d="M283.6,100.4c-1.1,1.6-2.2,1.1-3.4,1C281.1,100.2,282.2,100.7,283.6,100.4z"/>
	<path fill="#050505" d="M106.2,100.6c1.4-0.9,2.9-1.5,4.1,0.3C108.9,101,107.5,101.4,106.2,100.6z"/>
	<path fill="#F2F2F2" d="M35.8,96.2c-0.2,0.8-0.7,1.4-1.5,1.6c-0.3-0.6-1-1.3-0.4-1.9C34.6,95.2,35.2,95.9,35.8,96.2z"/>
	<path fill="#090909" d="M417.4,94.4c1.3,0.1,2.5,0.3,3.8,0.4c-1.5,0.5-3,1.1-4.4-0.2C417,94.3,417.2,94.2,417.4,94.4z"/>
	<path fill="#050505" d="M77.1,77.4c-1.3,1.3-1.4-0.4-1.4-0.8c0-0.6-0.4-2.3,1.4-1.4C77.1,75.9,77.1,76.6,77.1,77.4z"/>
	<path fill="#F5F5F5" d="M86.7,56.4c0.7,0.1,1.3,0.2,1,0.7c-0.2,0.4-0.8,0.7-1.4,0.9c-0.4,0.1-1-0.2-0.7-0.7
		C85.8,56.9,86.4,56.6,86.7,56.4z"/>
	<path fill="#F6F6F6" d="M95.4,53.3c-0.6,0.4-0.9,0.8-1.4,1c-0.2,0.1-0.8-0.6-0.7-0.7c0.3-0.4,0.6-0.9,1-1.1
		C94.4,52.4,94.8,52.9,95.4,53.3z"/>
	<path fill="#F7F7F7" d="M427.4,94.5c0-0.5,0-1,0-1.5c-0.2-0.7-0.4-1.3-0.6-2.1C428.4,92.3,428.4,92.3,427.4,94.5z"/>
	<path fill="#050505" d="M410.6,20.8c0-0.3,0-0.5,0-0.8c0.8-0.6,1.6-0.4,2.4-0.2c0.3,0.1,0.6,0.1,0.8,0.3c0.4,0.4,0.3,0.7-0.2,0.7
		C412.6,20.8,411.6,20.8,410.6,20.8z"/>
	<path fill="#070707" d="M351.4,100.8c-0.4-0.1-0.8-0.3-1.3-0.4c0.3-0.3,0.5-0.7,0.8-0.8c1.1-0.5,1.6,0.3,2,1.1
		C352.4,101.1,351.9,101.1,351.4,100.8z"/>
	<path fill="#F6F6F6" d="M394,22.1c-0.8,0.6-1.6,1-2.6,0.5C392.1,21.5,392.9,21.6,394,22.1z"/>
	<path fill="#0D0D0D" d="M131,35c0.5,0.3,1,0.8,0.5,1.3c-0.7,0.8-1.5,0.4-2.1-0.3C129.8,35.7,130.4,35.3,131,35z"/>
	<path fill="#F2F2F2" d="M38.6,92.7c-0.1,1-0.6,1.6-1.7,1.7c-0.2-0.6-0.8-1.2-0.1-1.8C37.5,91.9,38,92.5,38.6,92.7z"/>
	<path fill="#020202" d="M156.4,69.5c-1.1,0-2.3,0.4-3.1-0.7C154.7,67.5,155.5,68.4,156.4,69.5z"/>
	<path fill="#F6F6F6" d="M163,72.3c-0.5,0.1-1.2,0.8-1.4,0c-0.2-0.9,0.5-1.7,1.5-1.5C163.8,71.1,163.1,71.8,163,72.3
		C163,72.3,163,72.3,163,72.3z"/>
	<path fill="#050505" d="M427.5,76.2c0-1.1-0.3-2.3,0.9-3C429.6,74.6,428.7,75.4,427.5,76.2z"/>
	<path fill="#050505" d="M459.3,72.3c-1.1,1.5-2.3,1.2-3.4,0.1C457,72.3,458.1,72.3,459.3,72.3z"/>
	<path fill="#060606" d="M465.6,72.3c0-0.2,0-0.5,0-0.7c1.1-0.6,2.2-0.4,3.3-0.3C468.4,73.4,466.7,71.8,465.6,72.3L465.6,72.3z"/>
	<path fill="#F5F5F5" d="M449.3,73c-0.4-0.4-0.6-0.7-0.8-1c0.3-0.2,0.7-0.5,1-0.5c0.4,0,0.8,0.2,1.1,0.3
		C450.3,72.2,449.9,72.5,449.3,73z"/>
	<path fill="#F8F8F8" d="M231.2,72.3c1.3-1.3,3-0.5,4.5-0.8C234.5,72.9,232.8,72.2,231.2,72.3z"/>
	<path fill="#050505" d="M357.4,95.4c1.6-0.4,3.3-1.5,4.3,0.8C360.2,96.1,358.6,96.8,357.4,95.4z"/>
	<path fill="#070707" d="M271.3,63.4c-1,1.2-2.2,1.1-4.3,0.4C269,63.6,270.1,63.5,271.3,63.4L271.3,63.4z"/>
	<path fill="#F7F7F7" d="M393.6,81c-3.7,6.8-7,12.5-14.8,12.9c-1.1,0.1-2.5,0.5-3.1-1c-0.5-1.2,0.1-2.3,1-3.2
		C381,85.2,386.2,82.1,393.6,81z"/>
	<path fill="#0A0A0A" d="M398.9,79.4c0,0.9,0,1.7,0,2.6c-0.3,0.3-0.6,0.6-0.9,1c-1.2-1.2-1.2-2.4,0.1-3.5
		C398.5,79,398.7,79,398.9,79.4z"/>
	<path fill="#090909" d="M377,95.1c0.9-0.6,1.7-0.7,2.6-0.2C378.7,95.9,377.8,95.1,377,95.1z"/>
	<path fill="#040404" d="M398.9,79.4c-0.2,0-0.5,0-0.7,0c0.1-1.5-0.6-3.1,0.7-4.4C399.4,76.5,399.4,77.9,398.9,79.4z"/>
	<path fill="#0C0C0C" d="M465.6,72.3c-0.7,2.1-1.7,2.5-3.2,0.6C463.3,71.9,464.5,72.5,465.6,72.3C465.6,72.3,465.6,72.3,465.6,72.3z
		"/>
	<path fill="#0A0A0A" d="M207.6,97.1c-1.6-1.7-1.2-3.5-0.1-5.3C208.7,93.6,208.6,95.4,207.6,97.1z"/>
	<path fill="#0B0B0B" d="M219.7,98.9c-1.1,0-2.3,0-3.4,0C217.4,98.6,218.7,96.4,219.7,98.9L219.7,98.9z"/>
	<path fill="#070707" d="M401.8,95.1c-0.8-1.4-0.7-2.7-0.1-4.1C403.3,92.3,402.5,93.7,401.8,95.1z"/>
	<path fill="#161616" d="M511.4,64.9c-5.5,0-10.9,0-16.4,0c0-0.1,0-0.2,0-0.3c5.6,0,11.2,0,16.7,0C511.6,64.7,511.5,64.8,511.4,64.9
		z"/>
	<path fill="#FEFEFE" d="M209.2,74.1c0-1.1-0.3-2.4,0.2-3.3c0.5-0.8,0.5,0.3,0.7,0.6C209.6,72.3,210.9,73.7,209.2,74.1z"/>
</g>
</svg>
