<?xml version="1.0" encoding="utf-8"?>
<!-- Generator: Adobe Illustrator 18.1.1, SVG Export Plug-In . SVG Version: 6.00 Build 0)  -->
<svg version="1.1" id="Layer_1" xmlns="http://www.w3.org/2000/svg" xmlns:xlink="http://www.w3.org/1999/xlink" x="0px" y="0px"
	 width="612px" height="792px" viewBox="0 0 612 792" enable-background="new 0 0 612 792" xml:space="preserve">
<g>
	<path fill="#FEFEFE" d="M306.9,426.8c-34.5,0-69,0-103.5,0.1c-2.2,0-2.7-0.4-2.7-2.7c0.1-18.4,0.1-36.7,0-55.1
		c0-1.9,0.4-2.3,2.3-2.3c69.2,0.1,138.5,0.1,207.7,0c1.9,0,2.3,0.4,2.3,2.3c-0.1,18.4-0.1,36.8,0,55.1c0,2.2-0.5,2.7-2.7,2.7
		C375.9,426.7,341.4,426.8,306.9,426.8z"/>
	<path fill="#502170" d="M246.6,387.7c-2.9,3.8-5.1,6.8-7.7,10.2c-2.3-3.4-4.4-6.6-7-10.5c-0.3,4.4-0.9,7.7-2,11
		c-0.9,2.6-2.4,4.7-5.2,5.4c-2.1,0.5-3.5-0.6-4.7-2.2c-1.4-2,0.7-2.3,1.5-3.1c4.2-4.6,6.1-15.1,3.3-20.8c-0.9-1.9-0.3-2.4,1.2-2.9
		c3.3-1.1,5.9,0.1,7.8,2.8c1.9,2.6,3.6,5.4,5.6,8.5c2.3-3.1,4.4-6,6.6-8.8c1.8-2.4,4.2-3.4,7.3-2.5c1.7,0.5,2.3,0.9,1.1,3
		c-3.6,6.2-1.6,19.5,3.3,24.8c2,2.2,4.6,3.4,7.5,4c-3.8,6.4-10.9,6.7-14.9,0.8c-2.8-4.1-3.3-8.8-3.5-13.6
		C246.5,392,246.6,390.4,246.6,387.7z"/>
	<path fill="#502270" d="M314.1,386.1c0-3,0-5.6,0-8.2c-0.1-2.7,0.8-4.9,3.8-5c3.3-0.1,4,2.3,4,5.1c-0.1,5.7-0.1,11.5,0,17.2
		c0,2.2-0.5,4.5,1.4,6.4c1.2,1.1-0.2,1.5-0.8,1.8c-2.1,1-4.3,0.7-5.9-0.9c-1.5-1.4-2.1-1-3.5,0c-3.7,2.7-8.7,1.4-10.8-2.7
		c-1.9-3.9-2.1-7.9-0.3-11.9C304,382.8,308.4,382.1,314.1,386.1z"/>
	<path fill="#502271" d="M287.1,387c1-0.9,1.8-1.7,2.7-2.3c4.1-2.8,8-1.1,8.5,3.9c0.3,2.7,0.1,5.5,0.1,8.2c0,0.9,0.2,1.7,0.2,2.6
		c0.1,1.4,3.6,3.2-0.5,4.2c-2.9,0.7-6.3-0.9-6.7-3.8c-0.4-2.6-0.1-5.2-0.2-7.8c0-1.4,0.4-3.5-1.7-3.5c-2,0-2.4,1.9-2.4,3.6
		c-0.1,2.6,0,5.2,0,7.9c0,2.3-1.2,3.6-3.4,3.7c-2.4,0.2-3.8-1.3-3.9-3.6c-0.2-3.5,0-7,0-10.5c0-1.1-0.2-2.2-0.3-3.3
		c-0.1-1-2.2-1.4-0.9-2.7c1.2-1.1,2.7-1.2,4.2-0.8C285,383.3,286.5,384.7,287.1,387z"/>
	<path fill="#502271" d="M267.5,403.9c-5.6,0.1-10.4-4.4-10.5-10c-0.2-5.8,4.4-10.6,10.2-10.7c5.8-0.1,10.6,4.6,10.6,10.3
		C277.7,399,273,403.8,267.5,403.9z"/>
	<path fill="#502271" d="M383.1,389.6c-1.6,0-3.2,0-4.8,0c-1.9,0-3.7-0.5-3.6-2.8c0.1-2.2,1.8-2.8,3.7-2.7c3,0,6,0,9,0
		c0.6,0,1.4-0.2,1.8,0c1.4,0.8,3-2.5,4.1,0.1c0.9,2.1,0.2,4.3-1.5,5.8c-2.7,2.6-5.6,5.1-8.7,7.8c2.7,0.5,5.1,0.4,7.2-0.6
		c2.5-1.1,2.5,0.4,2.5,1.9c0.1,3.6-3.3,5.9-6.4,4.1c-4.3-2.5-8.5-2.6-13,0.2C373.7,396.4,378.3,393,383.1,389.6z"/>
	<path fill="#502271" d="M341.5,398.6c-0.8,3.3-3,4.7-6.1,5.1c-4.2,0.6-7.7-0.8-10.1-4.3c-2.7-4-2-10.1,1.6-13.4
		c3.4-3.2,9.2-3.5,13.2-0.7c2.2,1.5,3,3.6,2.5,6.2c-0.5,2.5-2.4,3.4-4.6,3.8c-2.1,0.4-4.2,0.5-6.4,0.7
		C333.6,399.1,333.6,399.1,341.5,398.6z"/>
	<path fill="#502271" d="M361.7,395.9c3.2,4.2,6.9,3.2,10.8,2c-1.1,3.9-3.6,5.6-7.1,5.9c-4.1,0.3-7.3-1.2-9.5-4.7
		c-2.6-4.1-1.7-10.1,1.9-13.4c3.5-3.1,9.4-3.2,13.2-0.4c2,1.5,2.8,3.5,2.3,5.9c-0.4,2.5-2.4,3.5-4.5,3.8
		C366.6,395.5,364.3,395.6,361.7,395.9z"/>
	<path fill="#502170" d="M352.3,387.4c0,3.2,0,6.5,0,9.7c0,1.1-0.2,2.3,0.6,3.3c2.9,3.5-0.5,3.3-2.2,3.4c-3.2,0.3-5.8-2.2-5.9-5.5
		c-0.2-7.2-0.1-14.5,0-21.7c0-2.3,1.4-3.8,3.7-3.8c2.5,0,3.8,1.6,3.8,4.1C352.3,380.4,352.3,383.9,352.3,387.4z"/>
	<path fill="#CE1527" d="M385,404.7c5.3,2.3,8.1,0.6,10.2-3.5c1.2-2.5,3.6-3.8,6.6-3.3c2.7,0.5,4.5,2.2,5.1,4.9c0.7,3-0.5,5.4-3,7.2
		c-3.9,2.8-9.9,2.4-14.3-1C388.2,407.8,387,406.5,385,404.7z"/>
	<path fill="#CE1527" d="M225.5,405.9c-4.3,5.2-10.2,7.1-15.2,5c-3.1-1.3-5.3-3.5-5-7.1c0.2-3,1.9-5.1,4.9-5.8
		c3.5-0.8,5.6,1.1,7.3,3.8C220,405.7,220.2,405.8,225.5,405.9z"/>
	<path fill="#572B76" d="M364.5,375.9c1.6,0,3.2,0,4.9,0c1.6,0,2.8,0.8,2.8,2.4c0.1,1.6-1.1,2.5-2.7,2.5c-3.6,0.1-7.2,0.1-10.9,0
		c-1.4,0-2.5-1-2.5-2.3c0-1.5,1.1-2.5,2.7-2.5C360.7,375.8,362.6,375.9,364.5,375.9C364.5,375.9,364.5,375.9,364.5,375.9z"/>
	<path fill="#552874" d="M373.9,416.3c-0.5,1.4,1.2,4.2-2.2,4.3c-6,0.1-7.5-1-7.4-4.7c0.1-2.1,0.6-4.1,3.2-4.3
		C373.9,411.2,373.9,411.3,373.9,416.3z"/>
	<path fill="#532673" d="M332.1,416.3c-0.6,1.3,1.3,4.2-2,4.3c-6.3,0.1-7.3-0.7-7.2-4.7c0-2.1,0.3-4.1,3-4.3
		C332.1,411.3,332.1,411.4,332.1,416.3z"/>
	<path fill="#552875" d="M354,416c0.1,2.7-1.9,4.8-4.6,4.7c-2.8-0.1-4.3-1.7-4.6-4.4c-0.2-2.6,2-4.7,4.7-4.7
		C352.1,411.5,353.9,413.3,354,416z"/>
	<path fill="#522472" d="M280.2,415.8c0.4-1.7-1.6-5.3,3.9-3.2c4,1.5,5.1,1.1,4.5,5.9c-0.1,1.1-0.3,2-1.6,2.1
		c-1.3,0.1-1.5-0.9-1.7-2c-0.3-1.4,1.1-4.1-0.9-4.1c-1.7,0-0.8,2.7-1,4.2c-0.1,0.9-0.4,1.8-1.5,1.9c-1.2,0.1-1.7-0.7-1.7-1.9
		C280.2,417.8,280.2,417,280.2,415.8z"/>
	<path fill="#572B76" d="M359.5,414.3c-1.8,0.8-1,2.3-1.2,3.5c-0.1,1,0.3,2.2-1.6,2.2c-2.1,0.1-1.7-1.2-1.6-2.4c0-1.1,0-2.2,0-3.3
		c-0.1-2,0.1-3.8,2.7-1.9c0.4,0.3,0.7,0.7,1.3,0.3c1.3-0.8,2.8-1.8,3.8,0.1c1.1,2.1,0.6,4.6,0.3,6.9c-0.1,0.6-0.8,0.9-1.5,0.9
		c-1.1-0.1-1.4-0.9-1.5-1.8C359.9,417.4,360.9,415.7,359.5,414.3z"/>
	<path fill="#5F357D" d="M275.1,413.2c0-1.4,0-2.7,0-4.1c0-0.7-1.1-1.7,0.4-2.1c1.2-0.3,2.4,0.1,2.7,1.3c0.9,3.8,0.6,7.6,0.2,11.4
		c-0.1,0.7-0.9,1.2-1.8,1c-1-0.2-1.4-1-1.4-1.9C275.1,416.9,275.2,415,275.1,413.2C275.2,413.2,275.1,413.2,275.1,413.2z"/>
	<path fill="#532673" d="M296.7,413.2c0.2-0.2,0.4-0.3,0.6-0.5c1.9-1.6,3.9-1.5,5.9-0.4c1,0.5,1.3,1.5,1.1,2.6
		c-0.5,2.6-2.9,1.6-4.4,2.4c0.3,2,2.6,0.5,3.3,2.3c-2.2,1.8-4.3,1.1-6.4-0.4C294.3,417.3,294.5,415.3,296.7,413.2z"/>
	<path fill="#5A2E78" d="M295.3,420c-3.4,1.1-5.1,0.2-4.9-3c0.1-1.9-1.5-3.5-0.3-5.6c1.3-2.4,2.3-3.2,3.6-0.3c0.5,1,1.9,0.8,2,2
		C293.7,415.3,295.7,417.7,295.3,420z"/>
	<path fill="#522572" d="M378.6,413.6c0,1.6,0,3.2,0,4.9c0,0.8,1.5,1.9-0.5,2.2c-1.2,0.2-2.5-0.4-2.6-1.6c-0.2-3.6-0.2-7.2-0.1-10.8
		c0-0.8,0.7-1.3,1.5-1.2c1,0.1,1.6,0.7,1.6,1.7C378.6,410.3,378.6,411.9,378.6,413.6C378.6,413.6,378.6,413.6,378.6,413.6z"/>
	<path fill="#552774" d="M339.2,413c-3.4,2-2.3,4.2-0.3,6.5c0,0-0.5,0.8-0.9,1c-1.3,0.7-2.8,0.2-3.2-0.9c-0.8-2.5-1.4-5.1-0.8-7.8
		c0.7-2.9,2-3.4,3.4-0.3C337.8,412.3,339.1,411.9,339.2,413z"/>
	<path fill="#592D78" d="M308.7,414c0,2.2,0,3.5,0,4.9c0,1-0.4,1.7-1.5,1.8c-1.3,0.1-1.8-0.7-1.9-1.8c-0.1-2-0.1-4,0.1-5.9
		c0.1-1.1,1.1-1.6,2.2-1.2c0.6,0.2,1,1.2,1.9,0.6c1.1-0.8,2.1-0.8,2.8,0.5c0.5,0.8,0.3,1.7-0.4,2.4C310.7,416.2,310,414.9,308.7,414
		z"/>
	<path fill="#5C317A" d="M317.1,414.2c-0.1,1.5-0.2,3-0.4,4.4c-0.1,1-0.5,2-1.8,2c-1.2,0-1.7-0.9-1.7-2c0-1.4,0-2.7,0-4.1
		c0-1.1-0.3-2.3,1.1-2.9c1.5-0.5,1.9,0.8,2.6,1.5C317.4,413.5,317.5,413.9,317.1,414.2z"/>
	<path fill="#62387F" d="M343.9,416.6c0,0.9,0.1,1.7,0,2.6c-0.1,0.8-0.6,1.4-1.4,1.4c-1.7,0.1-2.2-1.2-2-2.4c0.4-2-1.5-4.9,1.5-5.7
		c2.2-0.6,1.9,1.6,1.9,3C343.9,415.9,343.9,416.3,343.9,416.6C343.9,416.6,343.9,416.6,343.9,416.6z"/>
	<path fill="#522472" d="M317.1,414.2c0-0.3-0.1-0.7-0.1-1c1-0.7,1.9-1.8,3.3-1.2c1.4,0.6,1.3,2,1.3,3.2c0,0.2,0.1,0.5,0,0.7
		c-0.4,1.6,1.3,4.4-1.6,4.5c-2.5,0-1.3-2.7-1.5-4.2C318.3,415.3,318.7,414.1,317.1,414.2z"/>
	<path fill="#EEEAF1" d="M295.3,420c-0.8-2.3-4.2-4.8,0.4-6.9c0.3,0,0.7,0.1,1,0.1c-1,2-0.9,4,0.1,6
		C296.3,419.5,295.8,419.7,295.3,420z"/>
	<path fill="#633A80" d="M342,408c1,0,1.7,0.5,1.8,1.5c0.1,0.9-0.5,1.4-1.3,1.5c-1,0.2-1.9-0.2-2-1.2C340.4,408.9,341,408.2,342,408
		z"/>
	<path fill="#FBFBFC" d="M313.6,393.9c-0.2,2.1-0.1,4.6-2.7,4.7c-2.9,0.1-2.9-2.5-3.1-4.6c0-0.5,0-1,0.1-1.5c0.3-1.9,0.6-4.1,3-3.9
		c2.1,0.1,2.5,2.1,2.6,3.9C313.5,393.1,313.5,393.6,313.6,393.9z"/>
	<path fill="#FAF9FB" d="M264.4,393.5c0.3-2.3-0.1-5.5,2.9-5.6c3.1-0.1,2.9,3.3,3,5.6c0,2.4,0.3,5.9-3.1,5.8
		C264.2,399.2,264.6,395.8,264.4,393.5z"/>
	<path fill="#FAFAFB" d="M335.8,389.5c-0.2,1.9-1.4,2.8-3.2,2.8c-0.7,0-1.7,0.2-1.6-0.9c0.3-1.7,0.7-3.6,2.9-3.8
		C335,387.5,335.7,388.3,335.8,389.5z"/>
	<path fill="#F7F5F8" d="M361.3,392.1c0.7-2,0.6-4.5,3.6-4.4c1.1,0,1.8,1,1.5,2.1C365.7,392.4,363.8,392.7,361.3,392.1z"/>
	<path fill="#E7E1EB" d="M368.9,418.4c-1.1-0.2-1.3-1.1-1.4-1.9c-0.2-1,0-2.2,1.1-2.5c1.3-0.3,1.6,0.9,1.6,1.9
		C370.3,417,370,417.9,368.9,418.4z"/>
	<path fill="#F7F5F8" d="M328.4,416.1c-0.1,1,0,2.2-1.4,2.1c-1,0-1.2-1.1-1.2-2c0-1,0-2.2,1.4-2.1
		C328.3,414.1,328.3,415.2,328.4,416.1z"/>
	<path fill="#F6F4F7" d="M350.8,416.1c0,1.1-0.1,2.3-1.3,2.4c-1.4,0-1.2-1.4-1.2-2.3c0-0.9-0.2-2.4,1.1-2.4
		C350.9,413.6,350.7,415.1,350.8,416.1z"/>
	<path fill="#DDD5E3" d="M301.3,414.3c0,0.8-0.5,1.2-1.1,1.2c-0.4,0-1.2,0-0.9-0.7c0.2-0.5,0.6-1.1,1.1-1.4
		C300.8,413.2,301.2,413.7,301.3,414.3z"/>
</g>
</svg>
