<?xml version="1.0" encoding="UTF-8" standalone="no"?>
<!-- Created with Inkscape (http://www.inkscape.org/) -->
<svg
   xmlns:svg="http://www.w3.org/2000/svg"
   xmlns="http://www.w3.org/2000/svg"
   version="1.0"
   width="313"
   height="52.81875"
   viewBox="0 0 800 134.839"
   id="Layer_1"
   xml:space="preserve"><defs
   id="defs18" />
<g
   id="g3">
	<g
   id="g5">
		<polyline
   fill="#1C4598"
   points="38.519,133.175 0,133.175 0,2.181 66.62,2.181 143.047,99.975 143.047,2.181 181.567,2.181     181.567,133.175 116.298,133.175 38.519,33.711 38.519,133.175   "
   id="polyline7"
   style="fill:#1c4598" />
		<path
   d="M 365.872,92.673 C 365.872,110.879 362.653,117.156 357.321,123.179 C 349.148,132.144 337.262,134.839 314.349,134.839 L 248.578,134.839 C 225.665,134.839 213.764,132.144 205.598,123.179 C 200.274,117.157 197.047,110.879 197.047,92.673 L 197.047,42.174 C 197.047,23.968 200.274,17.698 205.598,11.668 C 213.765,2.696 225.666,0 248.579,0 L 314.35,0 C 337.263,0 349.149,2.696 357.322,11.668 C 362.654,17.698 365.873,23.968 365.873,42.174 L 365.873,92.673 M 312.729,101.645 C 321.526,101.645 324.628,101.13 326.735,99.211 C 328.712,97.417 329.583,95.107 329.583,87.413 L 329.583,47.426 C 329.583,39.734 328.712,37.437 326.735,35.636 C 324.629,33.711 321.526,33.202 312.729,33.202 L 250.191,33.202 C 241.394,33.202 238.292,33.711 236.192,35.636 C 234.209,37.437 233.343,39.734 233.343,47.426 L 233.343,87.413 C 233.343,95.106 234.208,97.417 236.192,99.211 C 238.292,101.13 241.394,101.645 250.191,101.645 L 312.729,101.645 L 312.729,101.645 z "
   style="fill:#1c4598"
   id="path9" />
		<path
   d="M 421.849,2.181 L 421.849,133.175 L 381.602,133.175 L 381.602,2.181 L 421.849,2.181 M 489.85,2.181 L 542.986,2.181 L 471.274,63.453 L 552.155,133.175 L 495.299,133.175 L 421.85,64.856 L 489.85,2.181 z "
   style="fill:#1c4598"
   id="path11" />
		<rect
   width="40.264"
   height="130.994"
   x="559.578"
   y="2.181"
   style="fill:#1c4598"
   id="rect13" />
		<path
   d="M 753.308,133.175 L 741.4,110.355 L 663.511,110.355 L 651.741,133.174 L 607.272,133.174 L 678.622,2.18 L 728.656,2.18 L 800,133.175 L 753.308,133.175 M 677.497,81.905 L 727.546,81.905 L 702.518,34.48 L 677.497,81.905 z "
   style="fill:#1c4598"
   id="path15" />
	</g>
</g>
</svg>