<?xml version="1.0" encoding="UTF-8" standalone="no"?>
<!-- Created with Inkscape (http://www.inkscape.org/) -->
<svg
   xmlns:svg="http://www.w3.org/2000/svg"
   xmlns="http://www.w3.org/2000/svg"
   version="1.0"
   width="800"
   height="115.854"
   viewBox="0 0 800 115.854"
   id="Layer_1"
   xml:space="preserve"><defs
   id="defs24" />
<polyline
   fill-rule="evenodd"
   clip-rule="evenodd"
   fill="#0061AE"
   points="301.622,0 301.622,2.197 314.811,2.197 353.499,115.854   358.121,115.854 384.282,41.765 384.5,41.765 410.438,115.854 414.838,115.854 455.067,2.197 467.822,2.197 467.822,0 439.024,0   439.024,2.197 452.431,2.197 423.41,84.858 423.193,84.858 394.835,2.197 409.342,2.197 409.342,0 362.516,0 362.516,2.197   371.088,2.197 383.182,38.032 366.693,84.636 366.477,84.636 338.335,2.197 349.767,2.197 349.767,0 "
   id="polyline3"
   style="fill:#0061ae;fill-rule:evenodd" />
<path
   d="M 96.072,28.793 L 98.264,28.793 L 98.264,0 L 0,0 L 0,28.793 L 1.98,28.793 C 4.839,18.463 8.789,11.209 13.628,7.471 C 17.805,3.955 23.958,2.198 32.096,2.198 L 37.814,2.198 L 37.814,109.262 L 23.302,109.262 L 23.302,111.459 L 74.745,111.459 L 74.745,109.262 L 60.455,109.262 L 60.455,2.197 L 66.173,2.197 C 74.305,2.197 80.241,3.955 84.641,7.47 C 89.475,11.209 93.213,18.463 96.072,28.793"
   style="fill:#0061ae;fill-rule:evenodd"
   id="path5" />
<path
   d="M 121.132,44.407 L 121.132,46.382 L 131.462,46.382 L 131.462,109.262 L 121.132,109.262 L 121.132,111.459 L 159.82,111.459 L 159.82,109.262 L 150.591,109.262 L 150.591,71.225 C 150.591,62.436 152.132,56.278 154.98,52.545 C 158.284,48.802 162.022,47.044 166.2,47.044 C 172.569,47.044 175.656,51.221 175.656,59.354 L 175.656,109.262 L 166.417,109.262 L 166.417,111.459 L 204.009,111.459 L 204.009,109.262 L 194.775,109.262 L 194.775,63.092 C 194.775,58.035 196.533,54.08 200.493,50.781 C 203.352,48.367 206.428,47.044 209.504,47.044 C 216.318,47.044 219.839,51.66 219.839,60.678 L 219.839,109.262 L 210.828,109.262 L 210.828,111.459 L 249.3,111.459 L 249.3,109.262 L 238.965,109.262 L 238.965,66.391 C 238.965,60.016 238.086,55.176 236.106,51.883 C 232.59,45.947 225.554,42.866 215.446,42.866 C 205.989,42.866 198.958,47.044 194.119,55.398 C 191.922,51.443 189.942,48.584 187.522,46.826 C 184.006,44.407 178.95,42.866 172.358,42.866 C 163.125,42.866 155.648,47.044 150.592,55.398 L 150.153,55.398 L 150.153,44.407"
   style="fill:#0061ae;fill-rule:evenodd"
   id="path7" />
<polyline
   fill-rule="evenodd"
   clip-rule="evenodd"
   fill="#0061AE"
   points="78.7,44.407 78.7,46.382 89.258,46.382 89.258,109.262   78.7,109.262 78.7,111.459 118.935,111.459 118.935,109.262 108.382,109.262 108.382,44.407 "
   id="polyline9"
   style="fill:#0061ae;fill-rule:evenodd" />
<path
   d="M 308.214,49.241 C 302.718,44.407 295.682,42.21 287.549,42.21 C 277.658,42.21 268.859,45.726 261.611,53.196 C 254.574,60.232 251.058,68.365 251.058,77.821 C 251.058,88.596 254.796,97.385 262.267,103.982 C 269.303,110.574 278.754,113.656 289.751,113.656 C 297.884,113.656 304.476,111.459 309.755,106.619 C 313.492,103.103 316.129,99.148 317.447,94.087 L 315.25,93.208 C 314.811,96.507 312.831,100.027 309.755,103.76 C 305.138,108.823 299.202,111.459 292.166,111.459 C 283.811,111.459 278.098,107.938 275.238,100.901 C 273.263,96.289 272.162,89.036 272.162,79.139 L 272.162,72.325 L 318.326,72.325 C 318.326,62.213 315.028,54.736 308.214,49.241 M 274.582,53.196 C 276.779,47.265 280.74,44.407 287.109,44.407 C 293.928,44.407 297.221,49.241 297.221,59.353 L 297.221,69.906 L 272.161,69.906 C 272.602,61.768 273.264,56.277 274.582,53.196"
   style="fill:#0061ae;fill-rule:evenodd"
   id="path11" />
<path
   d="M 577.739,56.277 C 577.739,52.099 576.421,48.801 573.784,46.381 C 570.926,44.189 567.41,42.865 563.015,42.865 C 554.22,42.865 547.401,47.704 542.784,57.372 L 542.567,57.372 L 542.567,44.407 L 513.541,44.407 L 513.541,46.382 L 523.882,46.382 L 523.882,109.262 L 513.541,109.262 L 513.541,111.459 L 555.316,111.459 L 555.316,109.262 L 542.784,109.262 L 542.784,69.249 C 542.784,63.314 544.542,57.818 547.841,53.196 C 550.699,49.463 553.559,47.483 556.195,47.483 C 558.615,47.483 559.716,48.801 559.716,51.22 L 558.831,59.136 C 558.831,63.753 561.902,66.161 568.288,66.161 C 574.663,66.162 577.739,62.875 577.739,56.277"
   style="fill:#0061ae;fill-rule:evenodd"
   id="path13" />
<path
   d="M 575.098,44.407 L 575.098,46.382 L 585.656,46.382 L 585.656,109.262 L 575.098,109.262 L 575.098,111.459 L 614.676,111.459 L 614.676,109.262 L 604.563,109.262 L 604.563,75.847 C 604.563,66.608 606.543,59.354 610.276,54.297 C 613.797,49.463 618.192,47.044 623.687,47.044 C 630.062,47.044 633.583,51.221 633.583,59.799 L 633.583,109.262 L 623.687,109.262 L 623.687,111.459 L 663.042,111.459 L 663.042,109.262 L 652.49,109.262 L 652.49,65.072 C 652.49,58.252 650.51,52.984 646.549,48.801 C 642.817,44.846 637.538,42.865 630.724,42.865 C 618.403,42.865 609.62,48.583 604.563,59.798 L 604.34,59.798 L 604.34,44.407"
   style="fill:#0061ae;fill-rule:evenodd"
   id="path15" />
<path
   d="M 721.956,49.241 C 716.243,44.407 709.207,42.21 701.068,42.21 C 691.177,42.21 682.388,45.726 675.13,53.196 C 668.094,60.232 664.578,68.365 664.578,77.821 C 664.578,88.596 668.31,97.385 675.786,103.982 C 683.046,110.574 692.279,113.656 703.488,113.656 C 711.404,113.656 718.001,111.459 723.274,106.619 C 727.012,103.103 729.654,99.148 730.967,94.087 L 728.77,93.208 C 728.331,96.507 726.356,100.027 723.274,103.76 C 718.657,108.823 712.944,111.459 705.691,111.459 C 697.33,111.459 691.617,107.938 688.753,100.901 C 686.783,96.289 685.683,89.036 685.683,79.139 L 685.683,72.325 L 731.847,72.325 C 731.847,62.213 728.548,54.736 721.956,49.241 M 700.629,44.407 C 707.443,44.407 710.965,49.241 710.965,59.353 L 710.965,69.906 L 685.683,69.906 C 686.122,61.767 687.001,56.277 688.097,53.196 C 690.299,47.266 694.477,44.407 700.629,44.407"
   style="fill:#0061ae;fill-rule:evenodd"
   id="path17" />
<path
   d="M 735.807,44.407 L 735.807,46.382 L 745.92,46.382 L 745.92,109.262 L 735.807,109.262 L 735.807,111.459 L 777.355,111.459 L 777.355,109.262 L 765.044,109.262 L 765.044,69.249 C 765.044,63.314 766.802,57.818 769.884,53.196 C 772.743,49.463 775.814,47.483 778.234,47.483 C 780.871,47.483 781.977,48.801 781.977,51.22 L 780.871,59.136 C 780.871,63.753 784.17,66.161 790.327,66.161 C 796.702,66.161 800.001,62.874 800.001,56.276 C 800.001,52.098 798.683,48.8 795.823,46.38 C 793.186,44.188 789.671,42.864 785.27,42.864 C 776.253,42.864 769.662,47.703 765.044,57.371 L 764.822,57.371 L 764.822,44.407"
   style="fill:#0061ae;fill-rule:evenodd"
   id="path19" />
<path
   d="M 471.994,42.21 C 464.963,42.21 458.588,43.528 453.526,46.382 C 448.036,49.681 445.399,53.858 445.399,58.914 C 445.399,64.193 448.469,66.83 454.41,66.83 C 460.785,66.83 463.867,64.854 463.867,60.455 L 462.982,51.883 C 462.982,46.826 465.841,44.407 471.994,44.407 C 478.374,44.407 481.673,47.928 481.673,55.398 L 481.673,64.854 C 481.673,68.809 480.35,71.441 477.713,73.204 C 475.733,74.522 470.02,76.503 461.008,79.14 C 454.41,81.337 449.571,83.318 446.94,85.298 C 442.541,88.157 440.56,92.552 440.56,98.047 C 440.56,103.543 442.985,107.715 447.814,110.135 C 451.774,112.555 456.826,113.656 462.76,113.656 C 468.479,113.656 472.434,112.994 475.293,111.236 C 478.374,109.695 480.571,106.841 482.335,102.664 L 482.552,102.664 C 483.87,110.135 489.583,113.656 499.257,113.656 C 506.516,113.656 511.35,112.12 513.33,108.822 L 511.789,107.498 C 510.031,109.478 508.051,110.574 505.849,110.574 C 502.333,110.574 500.792,107.937 500.792,102.881 L 500.792,64.193 C 500.792,49.463 491.124,42.21 471.994,42.21 M 481.45,72.765 L 481.673,72.765 L 481.673,93.208 C 481.673,98.926 480.35,103.104 478.152,106.18 C 476.172,108.823 473.54,110.135 470.681,110.135 C 463.867,110.135 460.345,105.084 460.345,95.194 C 460.345,89.693 462.325,85.515 465.841,82.439 C 467.159,81.337 470.898,79.14 477.055,76.281 C 479.688,75.185 481.011,73.866 481.45,72.765"
   style="fill:#0061ae;fill-rule:evenodd"
   id="path21" />
</svg>