<?xml version="1.0" encoding="UTF-8" standalone="no"?>
<!-- Created with Inkscape (http://www.inkscape.org/) -->

<svg
   xmlns:dc="http://purl.org/dc/elements/1.1/"
   xmlns:cc="http://creativecommons.org/ns#"
   xmlns:rdf="http://www.w3.org/1999/02/22-rdf-syntax-ns#"
   xmlns:svg="http://www.w3.org/2000/svg"
   xmlns="http://www.w3.org/2000/svg"
   xmlns:sodipodi="http://sodipodi.sourceforge.net/DTD/sodipodi-0.dtd"
   xmlns:inkscape="http://www.inkscape.org/namespaces/inkscape"
   id="svg2"
   version="1.1"
   inkscape:version="0.47 r22583"
   width="300"
   height="60"
   sodipodi:docname="Time_Inc._logo.png">
  <metadata
     id="metadata8">
    <rdf:RDF>
      <cc:Work
         rdf:about="">
        <dc:format>image/svg+xml</dc:format>
        <dc:type
           rdf:resource="http://purl.org/dc/dcmitype/StillImage" />
        <dc:title></dc:title>
      </cc:Work>
    </rdf:RDF>
  </metadata>
  <defs
     id="defs6">
    <inkscape:perspective
       sodipodi:type="inkscape:persp3d"
       inkscape:vp_x="0 : 0.5 : 1"
       inkscape:vp_y="0 : 1000 : 0"
       inkscape:vp_z="1 : 0.5 : 1"
       inkscape:persp3d-origin="0.5 : 0.33333333 : 1"
       id="perspective10" />
    <inkscape:perspective
       id="perspective2826"
       inkscape:persp3d-origin="0.5 : 0.33333333 : 1"
       inkscape:vp_z="1 : 0.5 : 1"
       inkscape:vp_y="0 : 1000 : 0"
       inkscape:vp_x="0 : 0.5 : 1"
       sodipodi:type="inkscape:persp3d" />
  </defs>
  <sodipodi:namedview
     pagecolor="#ffffff"
     bordercolor="#666666"
     borderopacity="1"
     objecttolerance="10"
     gridtolerance="10"
     guidetolerance="10"
     inkscape:pageopacity="0"
     inkscape:pageshadow="2"
     inkscape:window-width="1600"
     inkscape:window-height="838"
     id="namedview4"
     showgrid="false"
     inkscape:zoom="0.9"
     inkscape:cx="150"
     inkscape:cy="30"
     inkscape:window-x="-8"
     inkscape:window-y="-8"
     inkscape:window-maximized="1"
     inkscape:current-layer="svg2" />
  <path
     style="fill:#0091ff;fill-opacity:1"
     d="M -0.05208341,0.05555554 C 0.06444414,6.2739497 -0.3010245,12.532826 0.17361103,18.727431 c 0.3048125,0.679103 0.71885025,-0.125989 0.85069447,-0.46007 1.544513,-0.138507 0.8692833,-2.269604 1.2847222,-3.315972 -0.034863,-0.753572 1.0026761,-0.7196 0.7899306,-1.571181 -0.1170042,-0.726226 0.063459,-1.32326 0.7118055,-1.5625 C 4.1350924,11.103001 4.140928,10.156507 4.9739583,9.8993055 4.9807294,9.0987508 6.1407399,9.3245269 6.1718749,8.4756944 6.5301469,8.0251333 7.4788019,8.2273889 7.2916666,7.3559028 7.6499691,6.7318664 8.9861702,7.3801808 9.0190971,6.3836805 9.5980935,6.224823 10.19493,6.0448542 10.130208,5.2899305 11.085322,4.749513 12.808008,5.65705 13.272569,4.4131944 14.125506,3.9535703 15.532056,4.288388 16.015625,3.3454861 18.319592,2.98393 20.678539,3.2437914 23.003472,3.1631944 22.917248,19.878277 23.196068,36.599978 22.8125,53.310764 c 0.208643,0.955019 -0.909052,1.102886 -0.876736,2.057292 -0.263328,0.600766 -1.13516,0.54878 -1.189236,1.328125 -0.886171,0.631219 -2.866848,-0.354425 -2.881945,1.25868 -0.523681,0.04328 -1.020909,0.63012 -0.381944,1.032986 5.279085,0.393792 10.669225,0.09788 15.989564,0.170436 2.51183,-0.03732 5.066566,0.04332 7.552102,-0.06627 0.347142,-0.725956 0.07533,-1.46642 -0.755208,-1.371528 -0.314522,-0.4234 -0.499567,-0.977167 -1.241319,-0.772569 -0.788703,0.229661 -0.857286,-0.403111 -1.206598,-0.789931 -0.801877,-0.05146 -0.406494,-1.406933 -1.397569,-1.241319 -0.823233,-2.421923 -0.254997,-5.180014 -0.471331,-7.72565 -0.09909,-14.675714 -0.05779,-29.351883 -0.06686,-44.0278226 2.333183,0.174572 4.907558,-0.3553208 7.118055,0.3038195 0.493533,1.1731908 2.343684,0.3245666 3.046875,1.09375 0.139056,1.067 1.906261,0.039369 2.083334,1.1197916 0.683966,0.4710403 1.736383,0.3585962 2.022569,1.2413195 0.739311,0.2062158 1.918928,-0.1221872 1.822917,0.9982639 0.374366,0.371883 1.231039,0.1513016 1.067708,0.9809028 0.262458,0.5123583 1.068144,0.5157705 0.980903,1.3368053 0.06936,0.755887 1.11068,0.601555 0.963541,1.440972 0.221195,0.504664 1.084734,0.396476 0.789931,1.215278 0.0039,0.932695 0.210628,1.990234 1.032986,2.421875 0.243822,1.026896 -0.12673,3.18153 1.55382,2.847222 1.314505,-0.423572 0.208941,-3.1696 0.572916,-4.496527 C 58.906083,9.1195292 59.010789,4.5145689 58.888889,0.00347221 39.249144,0.03817212 19.551683,-0.0659404 -0.05208341,0.05555554 z"
     id="path2831" />
  <path
     style="fill:#0091ff;fill-opacity:1"
     d="m 57.690972,20.012153 c -0.888529,-0.163246 -0.721943,0.9648 -1.545139,1.006944 -0.472153,0.305721 -0.306871,1.163878 -1.145833,0.92882 -0.887997,-0.249751 -0.758437,0.661364 -1.111111,1.041666 -0.743879,0.07861 -1.627321,-0.05706 -1.892361,0.746528 -0.978116,0.449168 -2.476385,0.122888 -3.081597,1.119792 -1.901473,0.460885 -4.114434,-0.294511 -5.876737,0.486111 -0.159864,0.770069 1.171108,0.492286 1.09375,1.354167 0.675009,0.903026 2.818565,-0.376385 2.80382,1.119791 0.240019,0.573818 1.330358,0.135519 1.059028,1.111111 0.04223,0.715972 -0.189261,1.818608 0.581597,2.126736 0.50937,6.028946 0.159921,12.181102 0.243055,18.255209 -0.160626,1.841814 0.258251,4.011008 -0.355902,5.694444 -0.676781,0.120117 -0.266996,1.260578 -1.09375,1.197917 -0.194441,0.541372 -0.545547,0.922822 -1.258681,0.746528 -0.747292,-0.185367 -1.133349,0.26838 -1.371528,0.807291 -1.003836,-0.169094 -1.194202,1.561517 -0.06944,1.362848 6.276313,0.1871 12.583379,0.16728 18.854167,-0.138889 1.194835,-0.0704 0.442736,-1.3057 -0.329862,-1.380209 -0.177305,-1.255552 -2.284051,-0.01374 -2.395833,-1.284722 -0.471487,-0.180944 -0.863885,-0.42943 -0.815972,-1.041667 -1.038302,-0.624077 -0.592926,-2.214666 -0.810969,-3.289136 -0.419163,-10.648101 -0.104751,-21.363184 -0.282781,-31.979961 -0.399248,0.0048 -0.79895,-0.01023 -1.197917,0.0087 z"
     id="path2833" />
  <path
     style="fill:#0091ff;fill-opacity:1"
     d="m 78.793403,19.178819 c -0.873822,-0.222518 -0.632842,1.009738 -1.475695,0.850695 -0.53245,0.19421 -0.432831,0.924227 -1.119791,0.920139 -0.353393,0.673242 -0.821833,1.261274 -1.744792,1.015625 -0.917662,-0.12887 -0.303671,1.31568 -1.267361,1.085069 -0.726277,-0.162647 -1.245645,0.137942 -1.449653,0.737847 -0.98305,0.24226 -2.531066,0.01907 -3.055555,1.059028 -1.426055,0.491988 -3.271864,-0.318466 -4.52257,0.503472 -0.363766,0.77448 0.643763,0.757447 0.789931,1.232639 0.528571,1.073342 2.413992,-0.104616 3.046875,0.815973 -0.13927,0.898769 1.165345,0.72877 0.998264,1.692708 0.04957,0.919674 1.140427,1.075431 0.833333,2.126736 0.157658,7.483699 0.247439,14.986261 -0.05208,22.465278 0.05041,0.654764 -0.93647,0.582575 -0.659723,1.397569 0.228277,1.026017 -1.091854,0.911284 -1.223958,1.727431 -0.805578,0.2689 -2.074946,-0.156472 -2.274306,0.920139 -1.013697,-0.0248 -1.001166,2.170608 0.217014,1.545139 6.399055,-0.03473 12.855653,0.06946 19.21875,-0.05208 0.194736,-0.758941 -0.06196,-1.447608 -0.78125,-1.605903 -0.105775,-1.326577 -2.317577,-0.0051 -2.404514,-1.362847 -1.075108,-0.22048 -0.616663,-1.833936 -1.5625,-2.204861 -0.496213,-6.701622 -0.164872,-13.459533 -0.217013,-20.182292 0.157292,-1.194213 -0.197094,-2.723303 0.347222,-3.767361 0.783131,-0.473318 0.40994,-1.822789 1.362847,-2.126736 0.361578,-0.715071 0.340822,-1.674078 1.180556,-1.944444 0.08952,-0.566057 0.302799,-1.127171 1.050347,-0.920139 0.794327,0.250167 0.893353,-0.497132 1.397569,-0.729167 1.424836,-0.186291 3.296103,-0.562489 4.513889,0.260417 0.281618,0.952562 2.047217,-0.04096 2.065972,1.163194 0.514731,0.360853 1.176984,0.587915 0.989584,1.40625 0.0029,0.672579 -0.11662,1.628936 0.581597,1.901042 0.508639,5.958962 0.161697,12.042091 0.243055,18.046875 -0.149097,1.827267 0.245742,3.943556 -0.347222,5.625 -1.060203,0.530211 0.0699,2.430964 -0.815972,3.055556 -0.791242,0.07889 -0.680267,1.4506 -1.71875,1.111111 -0.777498,-0.231967 -0.870922,0.44295 -1.25,0.78993 -0.849214,-0.138233 -1.06436,0.761184 -0.659722,1.39757 6.6009,-0.125934 13.238882,0.263733 19.817712,-0.225695 0.79677,-0.349641 -0.0138,-1.180639 -0.5816,-1.241319 -0.2441,-1.126053 -1.72702,-0.378159 -2.36979,-0.998264 9.5e-4,-0.679211 -1.07581,-0.461839 -0.88542,-1.293403 -0.19526,-0.468786 -0.78682,-0.327228 -0.63368,-1.024305 -0.24238,-7.857025 -0.24237,-15.736723 0,-23.59375 -0.17806,-0.79801 0.83959,-0.628493 0.6684,-1.440973 -0.20088,-0.768274 0.22708,-1.111081 0.71181,-1.458333 0.26129,-0.717698 0.32984,-1.569745 1.11111,-1.831597 0.0895,-0.566057 0.3028,-1.127171 1.05035,-0.920139 0.73504,0.206739 0.91342,-0.376664 1.31076,-0.711806 1.56514,-0.268922 3.48148,-0.5236 4.88715,0.260417 0.19618,0.848733 1.7352,0.02795 1.72743,1.09375 -0.0225,0.732641 0.4547,1.198534 0.94618,1.519097 0.3817,0.857678 -0.40782,2.429693 0.625,2.838542 0.87868,0.09445 0.32696,1.597382 0.54505,2.178735 -0.0129,6.189091 0.24974,12.439209 -0.15442,18.593834 -0.19032,0.432742 -1.0633,0.142459 -0.86806,0.9375 -0.27206,1.261031 0.36066,2.972653 -0.37326,4.010417 -0.80852,0.0509 -0.63691,1.361222 -1.61458,1.111111 -0.83355,-0.05429 -2.11164,-0.16153 -2.03993,0.972222 -0.37307,0.164239 -1.44446,0.226664 -0.8073,0.868056 1.97303,0.839942 4.32708,0.252617 6.44096,0.474855 4.66806,-0.08755 9.39617,0.293123 14.02779,-0.301244 0.89212,-0.130625 0.55033,-1.399847 -0.26909,-1.197917 -0.44817,-0.22113 -0.36592,-0.98668 -1.09375,-0.798611 -0.77234,0.189289 -1.13305,-0.20348 -1.41493,-0.755208 -0.76075,-0.07775 -0.75339,-0.811845 -1.18924,-1.180556 -0.7179,-0.322977 -0.1779,-1.740491 -0.42535,-2.369791 -0.23804,-8.433708 0.18884,-16.892871 -0.27777,-25.3125 -0.0609,-0.626003 -1.12089,-0.211478 -0.8941,-1.041667 0.17666,-0.759704 -0.16179,-1.253929 -0.78125,-1.467014 -0.0171,-0.879641 -1.2159,-0.826108 -1.31945,-1.649305 -0.77567,0.02272 -0.53534,-0.826054 -0.97222,-1.171875 -0.6312,0.06001 -0.8958,-0.360431 -0.91146,-0.92882 -0.59952,-0.533133 -1.86759,0.11634 -2.02257,-0.911458 -0.71812,-0.366889 -1.96296,0.170675 -2.22222,-0.78125 -2.185,-0.333598 -4.57593,-0.373807 -6.75347,0.01736 -0.20011,1.12012 -2.05961,0.08163 -2.1875,1.293403 -0.72826,0.218295 -2.01341,-0.09805 -1.90104,1.059027 -0.64545,0.177442 -1.13416,0.450998 -1.18924,1.206598 -0.6404,0.0047 -0.95303,0.418264 -1.18923,0.902777 -0.8705,-0.04752 -0.33061,1.404458 -1.31945,1.163195 -0.56228,0.06818 -0.33065,1.571345 -1.04167,0.911458 0.004,-0.647482 -0.40607,-1.022808 -1.04166,-1.024305 -0.19635,-0.46539 -0.23292,-1.09457 -0.88542,-1.128473 -0.0339,-0.652497 -0.66308,-0.689069 -1.12847,-0.885416 -0.0354,-0.552733 -0.281821,-0.949454 -0.798612,-1.102431 -0.200881,-1.094712 -1.335103,-0.948181 -2.1875,-1.076389 -0.23962,-0.940334 -1.451272,-0.699778 -2.256945,-0.737847 -0.83963,0.16605 -0.580325,-1.006298 -1.493055,-0.755208 -1.7452,0.05965 -3.751791,-0.405907 -5.364584,0.269097 -0.195861,1.098197 -2.190362,-0.08202 -2.34375,1.145833 -0.659742,0.456977 -1.770462,0.338374 -2.013888,1.24132 -0.930269,-0.0453 -0.398522,1.420313 -1.414931,1.215278 -0.469031,0.239224 -0.409074,0.897925 -1.067708,0.902777 -0.252766,0.276342 -0.833155,1.630328 -1.041667,0.598959 -0.235163,-1.795441 0.0076,-3.66737 -0.15625,-5.434028 -0.402148,0.0046 -0.804719,-0.01 -1.206597,0.0087 z"
     id="path2835" />
  <path
     style="fill:#0091ff;fill-opacity:1"
     d="m 151.71007,19.1875 c -0.71898,0.0049 -1.67896,-0.0591 -1.93576,0.677083 -1.14574,0.462068 -2.80574,-0.347491 -3.7066,0.538195 -0.25032,0.962969 -2.15145,-0.09311 -2.22222,1.223958 -0.51371,0.68322 -2.14622,-0.131916 -1.97917,1.154514 -0.32829,0.429507 -1.19372,0.242655 -1.18924,1.006944 -0.65249,0.0339 -0.68907,0.663083 -0.88541,1.128473 -0.58401,0.02119 -0.97448,0.331749 -1.1198,0.868055 -0.92245,-0.06633 -0.38251,1.412141 -1.3802,1.189236 -0.64178,0.150108 -0.16939,1.327998 -1.07639,1.09375 -0.90904,0.352635 0.0445,1.97567 -1.10243,2.092014 -0.35892,0.590203 0.14213,1.723831 -0.73785,1.918403 -0.81637,0.763801 -0.057,2.318511 -0.86806,2.925347 -0.87061,0.42005 -0.27251,1.988616 -0.49568,2.769015 0.15731,2.02914 -0.36414,4.293216 0.33943,6.197999 1.03852,0.257218 0.20532,1.917627 0.82466,2.630208 0.21232,0.528964 0.96672,0.467278 0.76389,1.24132 -0.14913,0.770658 0.11344,1.37713 0.7552,1.657986 0.2163,0.652597 0.42919,1.358358 1.10243,1.588542 -0.0373,0.724361 0.4725,1.003797 1.08507,1.085069 0.11239,0.500217 0.2567,1.009872 0.82466,1.102431 0.0992,0.575091 0.32107,1.129727 1.03298,1.059027 0.30366,0.313414 0.31893,0.822189 0.85938,0.859375 0.25446,0.579359 0.63114,1.024475 1.23264,1.189237 0.0708,1.21333 1.92798,0.138644 2.13541,1.241319 0.5933,0.505342 1.70147,0.293311 1.95313,1.137153 0.87024,0.802208 2.45414,0.04697 3.19444,0.833333 0.38912,0.852764 1.91801,0.276881 2.66493,0.494792 2.71425,-0.127253 5.59968,0.352589 8.22049,-0.30382 0.26843,-1.06865 1.91688,-0.222841 2.64757,-0.842014 0.54219,-0.352783 0.79401,-1.007788 1.6059,-0.954861 0.84222,0.0068 0.67299,-1.113686 1.53646,-0.980902 0.47696,-0.214912 0.38212,-0.879778 1.00695,-0.902778 0.25243,-0.49495 0.2292,-1.248364 1.08506,-0.998264 1.53416,0.364467 0.78718,-1.836133 1.94445,-2.03125 0.30639,-0.401586 0.18961,-1.086317 0.83333,-1.145833 0.48855,-0.640164 0.32781,-1.7184 1.18056,-2.005209 0.39074,-0.660564 -0.28624,-2.169103 0.8941,-2.083333 0.8139,-0.292125 0.0665,-1.083883 -0.52952,-0.954861 -0.26735,-0.33475 -0.51899,-1.17199 -1.06771,-0.564236 0.0619,0.897847 -1.38362,0.364152 -1.19791,1.345486 -0.19614,0.561039 -1.04814,0.584453 -0.94618,1.40625 0.047,0.965114 -1.1825,0.898761 -1.07639,1.88368 -0.46539,0.196348 -1.09457,0.23292 -1.12848,0.885417 -0.66782,0.02494 -0.64221,0.696533 -1.04166,1.050347 -0.83609,0.188214 -0.89674,1.292014 -1.93577,1.163195 -0.83006,0.03416 -0.72913,1.154027 -1.6927,0.868055 -2.97319,0.0029 -6.09402,0.364625 -8.99306,-0.199653 -0.296,-0.9574 -1.9885,-0.400883 -2.07465,-1.536458 -0.48423,-0.337092 -0.99072,-0.555344 -1.18924,-1.119792 -0.5241,-0.08358 -0.98602,-0.240538 -1.05903,-0.815972 -0.5922,-0.06379 -0.70553,-0.553447 -0.81597,-1.059028 -0.35707,-0.300869 -1.14787,-0.08753 -0.9809,-0.842013 0.20424,-0.776581 -0.22653,-1.198884 -0.72917,-1.545139 -0.28869,-0.63867 -0.29145,-1.585964 -1.05903,-1.822917 -0.5253,-1.235487 0.34152,-3.014201 -0.56423,-4.027778 -0.86471,-0.360598 -0.20268,-1.883636 -0.43403,-2.595486 0.83435,-0.861256 3.277,-0.114206 4.72222,-0.364583 3.0116,-0.155361 6.15684,0.317554 9.09722,-0.3125 0.50443,-0.87318 2.08299,-0.238184 2.90799,-0.494792 4.04686,-0.08529 8.15051,0.05369 12.16146,-0.07813 -0.23415,-1.227628 0.45401,-2.901975 -0.36458,-3.91493 -1.37811,0.0016 -0.43126,-1.957574 -0.86806,-2.786459 -0.38435,-0.394653 -0.9458,-0.708754 -0.88542,-1.440972 0.0179,-0.850847 -1.12538,-0.662726 -0.9809,-1.536458 -0.25754,-0.485514 -1.00948,-0.537926 -0.91146,-1.302084 0.14276,-0.992009 -1.13241,-0.833901 -1.01562,-1.72743 -0.19271,-0.609128 -1.21534,-0.236276 -1.18056,-1.032986 -0.54305,-0.187362 -0.93273,-0.515627 -1.14583,-1.08507 -0.6998,-0.341566 -1.72601,-0.04593 -1.65799,-1.145833 -0.40316,-0.274979 -1.02288,-0.166355 -1.11979,-0.763889 -0.7638,-0.816365 -2.31851,-0.05698 -2.92535,-0.868056 -0.48038,-1.099098 -2.31185,-0.003 -3.05555,-0.807291 -0.37376,-0.943341 -2.03389,-0.292382 -2.82118,-0.529514 -0.82182,0.0025 -1.64374,-0.0096 -2.46528,0.01736 z m 2.17882,2.864583 c 0.74301,0.02128 2.07913,-0.250102 1.97049,0.859375 0.63159,0.613204 2.33708,-0.275127 2.20486,1.076389 0.31299,0.439998 1.17323,0.17663 1.13715,0.920139 0.48373,0.173948 0.84352,0.44282 0.82465,1.041667 0.46658,0.360194 1.02375,0.637901 0.96354,1.40625 0.001,0.817535 1.09301,0.71511 0.85938,1.614583 0.30217,1.308543 -0.40181,3.045513 0.3993,4.157986 1.06609,-0.146113 0.7235,1.234344 0.75521,1.875 -6.26157,0 -12.52315,0 -18.78472,0 0.22116,-0.867024 -0.40848,-2.345223 0.36458,-2.951389 1.0544,-0.53465 -0.0536,-2.408199 0.80729,-3.055555 1.2171,-0.357417 0.22644,-2.299056 1.13716,-2.777778 0.70576,-0.119319 0.2477,-1.372752 1.20659,-1.154514 0.50213,-0.260641 0.50466,-1.062434 1.30209,-0.94618 0.99841,0.08914 0.90793,-1.242448 1.93576,-0.954862 0.77956,0.211904 1.05168,-0.397239 1.15452,-0.972222 0.55697,-0.199566 1.18244,-0.111942 1.76215,-0.138889 z"
     id="path2837" />
  <path
     style="fill:#0091ff;fill-opacity:1"
     d="m 181.89236,0.05555554 c -0.58683,2.03015546 0.67835,2.24710306 2.37847,2.01388886 0.96578,-0.2207854 0.42848,1.1516442 1.25868,1.1284723 0.3226,0.4331611 0.56818,0.9887038 1.05903,1.1892361 0.53466,7.3919972 0.19376,14.8424242 0.30382,22.2569442 -0.0844,9.323889 0.18482,18.663772 -0.24305,27.977431 -0.0245,0.511644 -0.69347,0.532661 -0.67709,1.119791 -0.48431,0.291634 -0.95767,0.59117 -1.18923,1.076389 -0.84503,0.430448 -2.46955,-0.398094 -2.89063,0.651042 0.20421,0.797392 -1.23563,0.460458 -0.73785,1.310764 1.18173,0.857169 2.98397,0.18108 4.36632,0.442708 6.17544,-0.01719 12.41107,0.178967 18.55035,-0.260416 0.37396,-1.028684 -0.22946,-2.431484 -1.52778,-2.013889 -0.65663,-0.01599 -1.70269,0.168539 -1.79687,-0.694445 -0.64041,-0.05843 -0.68563,-0.628428 -0.86806,-1.128472 -1.11344,-0.536039 -0.55714,-2.341908 -0.79861,-3.385417 -0.15412,-15.915555 -0.24636,-31.838742 0.0347,-47.7517358 -0.0339,-0.8721544 1.1358,-0.7944092 0.98959,-1.7013889 1.06959,-0.690954 2.92189,0.2981884 3.8368,-0.6336805 0.99466,-1.98716881 -0.67273,-1.74955568 -2.21354,-1.64930559 -6.60418,0.03499325 -13.26685,-0.06952081 -19.83507,0.05208333 z"
     id="path2839" />
  <path
     style="fill:#0091ff;fill-opacity:1"
     d="m 220.43403,19.178819 c -0.61759,0.07137 -0.39947,1.028285 -1.17188,0.850695 -0.53874,0.171154 -0.40892,0.903306 -1.05902,0.920139 -0.25458,0.457954 -0.19359,1.178309 -0.96355,1.041666 -0.57149,0.194669 -0.12611,1.26778 -0.99826,1.059028 -0.74446,-0.173642 -1.18737,0.175961 -1.5191,0.677084 -1.22179,0.504426 -3.09808,-0.0011 -3.90625,1.145833 -1.60333,0.441492 -3.5709,-0.32761 -5.00868,0.47743 -0.1044,0.825557 1.13995,0.8008 1.26736,1.545139 0.66193,0.389841 2.16865,-0.285718 2.08334,0.894098 0.22187,0.49489 0.93548,0.381033 0.92014,1.067708 1.43173,0.507488 0.65924,2.652909 0.91611,3.802044 0.0306,7.404831 0.2181,14.82922 -0.16091,22.222261 0.16061,0.990078 -1.08808,0.901806 -0.92882,1.840278 -0.81736,0.676034 -2.56592,-0.378644 -3.01215,0.746528 0.20421,0.797392 -1.23563,0.460458 -0.73785,1.310764 1.14201,0.826747 2.87754,0.163469 4.21871,0.4234 5.34112,-0.03525 10.74738,0.2392 16.05039,-0.197706 0.99805,-0.238889 0.38502,-1.138405 -0.32118,-1.171875 -0.25341,-0.500539 -0.46646,-1.087389 -1.24132,-0.885416 -0.7887,0.229661 -0.85728,-0.403111 -1.2066,-0.789931 -0.82575,0.01832 -0.31776,-1.401664 -1.31944,-1.180555 -0.62638,-2.647506 -0.18022,-5.599203 -0.33854,-8.350695 0.12824,-5.456094 -0.2739,-11.002694 0.26041,-16.40625 0.54164,-0.09293 1.03604,-0.443695 0.8507,-1.137153 -0.31471,-0.983363 0.64237,-0.774781 1.05035,-1.206597 -0.0473,-0.607098 0.34948,-0.845303 0.81597,-1.032986 0.0246,-0.80285 1.17961,-0.583939 1.21528,-1.467014 0.59103,-0.548105 1.78538,0.04408 2.05729,-0.868055 1.73813,-0.521777 3.92574,-0.696341 5.57291,0.104166 0.0879,0.742531 1.39185,0.249857 1.1632,1.223959 0.26107,0.509802 1.07057,0.507663 0.95486,1.310763 -0.0526,0.875781 1.02559,0.932033 0.79861,1.822917 0.23013,8.488425 0.26317,16.999607 -0.0174,25.486111 0.0785,0.668892 -0.76526,0.610986 -0.74653,1.284722 -0.4842,0.298992 -0.97533,0.586148 -1.18923,1.09375 -0.70026,0.192895 -1.74456,-0.09851 -1.89236,0.815973 -0.58465,0.105975 -1.24774,0.348252 -0.99827,1.154514 0.59416,1.11198 3.16283,0.144352 4.49653,0.46875 5.19535,-0.03474 10.44825,0.06947 15.60764,-0.05208 0.19473,-0.758941 -0.062,-1.447608 -0.78125,-1.605903 -0.10578,-1.326577 -2.31758,-0.0051 -2.40452,-1.362847 -1.15295,-0.255933 -0.60965,-2.026891 -1.5625,-2.5 -0.60695,-8.746381 0.072,-17.556768 -0.45138,-26.310764 -0.0414,-0.615902 -0.92976,-0.592634 -0.63369,-1.41493 0.26203,-0.893763 -0.52127,-0.972164 -1.04166,-1.215278 0.0124,-0.586013 -0.34494,-0.933205 -0.8507,-1.085069 0.0663,-0.922455 -1.41214,-0.382517 -1.18923,-1.380209 -0.19301,-0.610389 -1.17968,-0.246009 -1.2066,-1.006944 -0.67242,-0.469846 -1.70671,-0.366602 -2.03993,-1.189236 -0.92597,-0.433458 -2.56091,0.353369 -3.00347,-0.763889 -2.185,-0.333598 -4.57594,-0.373807 -6.75347,0.01736 -0.43081,1.270992 -2.46912,0.01615 -3.17709,0.989583 -0.29164,0.897305 -1.90934,0.385823 -2.05729,1.458334 -0.74875,-0.01939 -0.60218,0.800115 -0.96354,1.163194 -0.71434,-0.105812 -0.89456,0.494554 -0.99827,1.032986 -0.48781,0.125766 -1.05027,0.239368 -1.09375,0.850695 -0.88941,0.434995 -0.52476,-1.388358 -0.625,-1.788195 0.006,-0.781853 -0.16654,-1.834206 0.70313,-2.083333 0.45165,-0.631639 -0.23824,-1.027527 -0.67708,-1.24132 0.009,-0.418345 -0.34255,-0.673777 -0.75521,-0.607639 z"
     id="path2841" />
  <path
     style="fill:#0091ff;fill-opacity:1"
     d="m 272.95139,18.953125 c -1.59077,0.2104 -3.55711,-0.175354 -4.93056,0.651042 -0.37454,0.884874 -2.10242,-0.09146 -2.36111,1.015625 -0.8619,0.522852 -2.43531,0.07757 -2.79514,1.215277 -0.65898,0.02642 -1.05718,0.416167 -1.0677,1.076389 -0.47083,0.179027 -1.08369,0.234223 -1.1198,0.876736 -0.65249,0.0339 -0.68907,0.663083 -0.88541,1.128473 -0.52343,0.04639 -0.98986,0.260811 -1.06771,0.815972 -0.88075,0.02939 -0.85467,1.184414 -1.64063,1.328125 -0.22009,0.481502 -0.23854,1.043545 -0.84201,1.171875 -0.39774,0.694293 -0.36003,1.66759 -1.16319,1.987847 -0.24599,0.699357 0.0965,1.670442 -0.74653,1.927083 -0.68535,1.234107 0.0948,3.328267 -1.12847,4.149306 -0.26317,2.117505 -0.41797,4.448913 0.0781,6.519097 1.04829,0.589541 0.43387,2.42522 0.85938,3.4375 -0.0417,0.855345 1.11253,0.764309 0.80729,1.71875 -0.30064,1.045359 1.04064,0.982603 0.95486,1.953125 -0.1447,0.98535 1.10761,0.829839 1.01562,1.701389 0.17563,0.539397 0.93997,0.412545 0.90278,1.111111 0.78234,0.373509 1.20014,1.062675 1.31945,1.944445 0.21422,0.500858 0.88125,0.41825 0.92881,1.032986 0.66451,0.478808 1.73125,0.343453 2.01389,1.215278 0.57972,0.05672 0.92286,0.306366 1.1632,0.78993 0.72951,0.309603 1.59568,0.36712 1.94444,1.119792 1.15482,0.754136 2.81882,0.04271 3.91493,0.711805 0.34328,0.986806 2.04371,0.311514 2.82986,0.555556 1.32992,-0.199878 3.10007,0.394028 4.21875,-0.399306 0.33156,-0.922825 1.89229,-0.171144 2.63021,-0.546875 0.83949,0.06949 1.13125,-0.592036 1.66667,-0.963541 0.74507,-0.105053 1.4383,-0.410514 1.75347,-1.059028 0.66234,-0.135881 1.77592,0.107211 1.82292,-0.824653 0.46706,-0.313725 0.98966,-0.548847 1.16319,-1.10243 0.59524,-0.02805 0.98677,-0.346103 1.13716,-0.885417 0.89555,0.07195 0.40043,-1.285181 1.26736,-1.215278 0.47053,-0.386189 0.56903,-1.052667 1.18055,-1.25 0.3758,-0.696894 0.3513,-1.650922 1.14584,-1.970486 0.23937,-0.697928 -0.10866,-1.73 0.80729,-1.883681 0.45893,-0.568363 -0.11433,-1.095511 -0.625,-1.223958 0.10632,-0.781068 -0.8246,-0.885885 -1.02431,-0.112847 -0.0222,0.885958 -0.83099,1.108078 -1.2934,1.649305 0.0294,0.546406 -0.27121,0.867317 -0.75521,1.032987 -0.16025,0.746027 -0.0328,1.662341 -1.05035,1.597222 -0.18219,0.732753 -0.48066,1.217664 -1.40625,1.050347 -0.6584,0.144158 -0.50528,1.247717 -1.37152,1.050347 -0.73798,-0.170136 -1.24359,0.167836 -1.5191,0.720486 -2.65518,0.676706 -5.65873,0.497523 -8.33334,-0.0434 -0.45671,-0.641914 -1.27296,-0.783567 -2.0052,-1.059028 -0.18976,-0.533197 -0.63129,-0.742784 -1.18056,-0.850695 -0.10674,-0.490661 -0.47091,-0.701202 -0.92882,-0.850694 -0.18946,-0.675389 -0.74113,-0.960422 -1.34548,-1.137153 0.045,-0.745642 -1.05476,-0.511169 -0.8941,-1.302083 0.12564,-0.878659 -1.1585,-0.720675 -0.98959,-1.675347 0.0916,-0.944899 -1.09647,-0.892397 -0.9375,-1.788195 -0.0971,-0.811574 0.24538,-2.049504 -0.625,-2.447917 -0.65652,-3.683004 -0.74454,-7.662402 -0.0608,-11.354166 0.2962,-0.451188 0.85955,-0.688052 0.65972,-1.423611 -0.0161,-0.742305 -0.0941,-1.626495 0.67709,-1.918403 0.31422,-0.716181 0.33205,-1.626683 1.14583,-1.892361 0.0855,-0.569671 0.28287,-1.061655 0.97222,-0.998264 0.33574,-0.386821 0.49261,-0.889436 1.11979,-1.006945 0.30351,-0.455889 0.37973,-1.086492 1.18056,-0.859375 0.74823,0.204868 1.0541,-0.364847 1.13715,-0.928819 2.06917,-0.266058 4.35239,-0.365626 6.38889,0.0434 -0.0971,1.302596 1.47442,0.655923 2.20486,1.050347 0.001,0.589307 0.31965,0.932843 0.80729,1.119792 1.01864,2.331822 -0.64499,5.30034 0.64236,7.526041 1.11738,0.107861 0.0232,1.944044 1.22396,2.065973 1.38885,0.107407 3.1512,0.626417 4.39236,-0.06076 -0.12884,-0.800339 0.57407,-0.757874 1.05903,-1.015625 0.10283,-0.502943 0.21931,-0.942526 0.74653,-1.09375 0.60461,-1.252801 0.69862,-3.242849 -0.52951,-4.071181 -0.25228,-0.679168 -0.32198,-1.592498 -1.10243,-1.822917 -0.0684,-0.54974 -0.29519,-0.966848 -0.82466,-1.119791 -0.14372,-0.693442 -0.75268,-0.895364 -1.21528,-1.215278 -0.0152,-0.844173 -1.44479,-0.339148 -1.18055,-1.388889 -0.61696,-0.627063 -2.11825,0.108627 -2.01389,-1.223958 -0.44714,-0.247098 -1.05109,-0.210238 -1.13715,-0.833334 -0.93078,-0.533089 -2.54158,0.322026 -3.0816,-0.763888 -1.45687,-0.585798 -3.15979,-0.4456 -4.70486,-0.477431 z"
     id="path2843" />
  <path
     style="fill:#0091ff;fill-opacity:1"
     d="m 292.93403,51.131944 c -0.71879,-0.154388 -0.99914,0.324856 -1.25868,0.789931 -1.0619,0.181421 -0.51898,1.87715 -1.54514,2.126736 -0.20762,0.897739 -0.50737,2.320843 0.22569,3.003472 0.60992,0.124531 0.46207,1.188154 1.31945,1.163195 0.2923,0.682755 0.8861,1.134935 1.74479,0.998264 1.05047,-0.1643 3.02405,0.468509 3.55035,-0.77257 -0.086,-0.7236 -0.005,-1.558114 0.88541,-1.467014 0.53176,-1.106209 0.27452,-2.746109 -0.30382,-3.810764 -0.80161,-0.08829 -0.34051,-1.44975 -1.36284,-1.241319 -0.44809,-0.242231 -0.39165,-0.978669 -1.1632,-0.78125 -0.69641,-0.03719 -1.39533,-0.03686 -2.09201,-0.0087 z"
     id="path2845" />
</svg>
